<svg width="180" height="100" viewBox="0 0 180 100" fill="none" xmlns="http://www.w3.org/2000/svg">
<g opacity="0.8">
<path d="M41.9355 48.0506C41.5518 48.4294 41.258 48.8865 41.0749 49.3894C40.8919 49.8923 40.8241 50.4286 40.8765 50.9602L40.8582 50.9423C40.9121 51.568 40.8261 52.1976 40.6063 52.7873C40.3865 53.3771 40.0381 53.9126 39.5856 54.3566C39.133 54.8006 38.5872 55.1423 37.9861 55.358C37.3851 55.5736 36.7433 55.658 36.1056 55.6052L36.1238 55.6231C35.3609 55.5534 34.5948 55.7163 33.9297 56.0895C33.2647 56.4627 32.7332 57.028 32.4076 57.7084C32.0821 58.3889 31.9783 59.1512 32.1106 59.8916C32.2428 60.632 32.6046 61.3143 33.1466 61.8456C33.6886 62.3769 34.3844 62.7312 35.1392 62.8603C35.8939 62.9893 36.6709 62.8869 37.3641 62.5669C38.0573 62.2469 38.6331 61.7249 39.0129 61.0721C39.3927 60.4193 39.558 59.6674 39.4863 58.919L39.5055 58.9369C39.4517 58.3113 39.5377 57.6816 39.7575 57.0919C39.9773 56.5022 40.3256 55.9667 40.7782 55.5227C41.2307 55.0787 41.7766 54.7369 42.3776 54.5213C42.9787 54.3056 43.6205 54.2213 44.2582 54.2741L44.239 54.2562C44.8621 54.3112 45.4893 54.2109 46.0625 53.9648C46.6356 53.7186 47.1361 53.3345 47.5177 52.848C47.8992 52.3615 48.1494 51.7884 48.2451 51.1818C48.3407 50.5752 48.2788 49.9547 48.0649 49.3778C47.8511 48.8009 47.4923 48.2864 47.0218 47.8818C46.5512 47.4772 45.9842 47.1957 45.3733 47.0633C44.7623 46.931 44.1272 46.9521 43.5268 47.1246C42.9264 47.2972 42.3801 47.6157 41.9386 48.0506H41.9355Z" fill="#5F6164"/>
<path d="M34.4692 53.28L34.4499 53.2621C34.9919 53.3157 35.5393 53.2504 36.0525 53.071C36.5656 52.8916 37.0318 52.6025 37.4171 52.2248C37.8025 51.847 38.0974 51.3899 38.2807 50.8866C38.4639 50.3832 38.5308 49.8462 38.4766 49.3144L38.4959 49.3323C38.442 48.7066 38.528 48.077 38.7478 47.4873C38.9676 46.8976 39.316 46.362 39.7685 45.918C40.2211 45.474 40.7669 45.1323 41.368 44.9166C41.969 44.701 42.6108 44.6166 43.2485 44.6694L43.2293 44.6516C43.9922 44.7218 44.7586 44.5595 45.424 44.1868C46.0895 43.814 46.6215 43.2489 46.9475 42.5686C47.2736 41.8882 47.3778 41.1258 47.2459 40.3852C47.114 39.6447 46.7526 38.9621 46.2107 38.4305C45.6689 37.8989 44.9731 37.5442 44.2183 37.4149C43.4635 37.2855 42.6864 37.3877 41.9929 37.7076C41.2995 38.0275 40.7235 38.5494 40.3436 39.2023C39.9636 39.8551 39.7982 40.6071 39.8698 41.3556L39.8516 41.3367C39.9056 41.9624 39.8198 42.5921 39.6 43.1819C39.3803 43.7717 39.0319 44.3073 38.5794 44.7513C38.1268 45.1954 37.5808 45.5371 36.9797 45.7527C36.3786 45.9683 35.7367 46.0525 35.0989 45.9996L35.1172 46.0184C34.5751 45.9649 34.0278 46.0301 33.5146 46.2095C33.0014 46.3889 32.5353 46.678 32.15 47.0557C31.7646 47.4335 31.4697 47.8906 31.2864 48.3939C31.1032 48.8973 31.0362 49.4343 31.0905 49.9661L31.0722 49.9482C31.1259 50.5738 31.0398 51.2034 30.8199 51.793C30.6 52.3827 30.2517 52.9181 29.7992 53.3621C29.3467 53.806 28.8009 54.1478 28.1999 54.3635C27.599 54.5792 26.9572 54.6637 26.3196 54.6111L26.3378 54.6289C25.5749 54.5587 24.8085 54.721 24.143 55.0937C23.4776 55.4665 22.9456 56.0316 22.6196 56.7119C22.2935 57.3923 22.1893 58.1547 22.3212 58.8953C22.453 59.6358 22.8145 60.3184 23.3564 60.85C23.8982 61.3816 24.594 61.7363 25.3488 61.8656C26.1036 61.995 26.8807 61.8928 27.5742 61.5729C28.2676 61.253 28.8436 60.7311 29.2235 60.0782C29.6035 59.4254 29.7689 58.6734 29.6973 57.9249L29.7165 57.9428C29.6627 57.3171 29.7486 56.6875 29.9685 56.0978C30.1883 55.5081 30.5366 54.9725 30.9891 54.5285C31.4417 54.0846 31.9875 53.7428 32.5886 53.5272C33.1897 53.3115 33.8314 53.2271 34.4692 53.28V53.28Z" fill="#5F6164"/>
<path d="M27.6803 51.2865C28.0641 50.9079 28.3579 50.4507 28.5408 49.9478C28.7237 49.4448 28.7911 48.9085 28.7384 48.377L28.7576 48.3948C28.7037 47.769 28.7897 47.1391 29.0097 46.5493C29.2296 45.9594 29.5781 45.4238 30.0309 44.9798C30.4837 44.5357 31.0298 44.194 31.6311 43.9785C32.2324 43.763 32.8744 43.6789 33.5123 43.732L33.4931 43.7141C34.2557 43.7842 35.0218 43.6218 35.6869 43.2491C36.352 42.8763 36.8838 42.3114 37.2096 41.6312C37.5355 40.9511 37.6395 40.189 37.5077 39.4487C37.3758 38.7084 37.0145 38.026 36.4728 37.4946C35.9312 36.9632 35.2357 36.6087 34.4812 36.4793C33.7266 36.35 32.9498 36.4521 32.2566 36.7718C31.5633 37.0915 30.9875 37.6132 30.6076 38.2657C30.2277 38.9183 30.0621 39.6699 30.1336 40.4181L30.1154 40.4002C30.1692 41.0259 30.0832 41.6556 29.8634 42.2453C29.6436 42.835 29.2953 43.3705 28.8427 43.8145C28.3902 44.2585 27.8443 44.6002 27.2433 44.8159C26.6422 45.0315 26.0004 45.1159 25.3627 45.0631L25.3809 45.081C24.7578 45.0262 24.1306 45.1265 23.5576 45.3728C22.9845 45.6191 22.4841 46.0033 22.1027 46.4898C21.7213 46.9764 21.4712 47.5495 21.3756 48.1561C21.2801 48.7627 21.3421 49.3831 21.5561 49.9599C21.77 50.5367 22.1288 51.0512 22.5994 51.4557C23.0699 51.8603 23.6369 52.1417 24.2478 52.274C24.8587 52.4063 25.4938 52.3851 26.0942 52.2125C26.6946 52.0399 27.2408 51.7214 27.6823 51.2865H27.6803Z" fill="#5F6164"/>
<path d="M59.0469 41.3789H62.054V55.736H59.0469V41.3789Z" fill="#5F6164"/>
<path d="M63.758 50.82C63.7537 49.7882 64.0617 48.7785 64.6429 47.9186C65.2241 47.0587 66.0524 46.3874 67.0227 45.9897C67.9931 45.592 69.0619 45.4858 70.0939 45.6845C71.1258 45.8833 72.0744 46.3781 72.8195 47.1062C73.5646 47.8343 74.0727 48.7629 74.2794 49.7746C74.4861 50.7862 74.3822 51.8353 73.9807 52.7889C73.5793 53.7425 72.8984 54.5578 72.0242 55.1314C71.1501 55.7051 70.1222 56.0113 69.0705 56.0113C68.3725 56.0191 67.6798 55.8903 67.0331 55.6325C66.3863 55.3746 65.7984 54.9928 65.3038 54.5095C64.8092 54.0261 64.4177 53.4509 64.1523 52.8174C63.8868 52.1839 63.7528 51.5049 63.758 50.82V50.82ZM71.376 50.82C71.3635 50.3752 71.2176 49.944 70.9566 49.5802C70.6956 49.2164 70.3311 48.9361 69.9086 48.7744C69.4862 48.6127 69.0245 48.5768 68.5814 48.6711C68.1382 48.7655 67.7332 48.9859 67.417 49.3048C67.1009 49.6237 66.8875 50.027 66.8037 50.4642C66.7199 50.9014 66.7692 51.3532 66.9457 51.7631C67.1221 52.1729 67.4178 52.5226 67.7957 52.7685C68.1737 53.0144 68.6171 53.1455 69.0705 53.1454C69.3811 53.1536 69.69 53.0985 69.9778 52.9837C70.2655 52.8688 70.526 52.6968 70.7426 52.4783C70.9592 52.2598 71.1273 51.9996 71.2363 51.7142C71.3453 51.4288 71.3929 51.1243 71.376 50.82V50.82Z" fill="#5F6164"/>
<path d="M86.3657 45.9023V55.2399C86.3657 58.5439 83.7393 59.9405 81.0734 59.9405C80.1347 60.0094 79.1949 59.8234 78.3569 59.4029C77.5189 58.9823 76.8151 58.3435 76.3227 57.5564L78.8884 56.1012C79.0954 56.5114 79.4251 56.8499 79.8335 57.0713C80.2419 57.2927 80.7094 57.3864 81.1736 57.3399C81.4703 57.3802 81.7724 57.3546 82.0576 57.2649C82.3428 57.1752 82.6038 57.0238 82.8213 56.8217C83.0387 56.6197 83.2071 56.3723 83.314 56.0978C83.4208 55.8233 83.4634 55.5288 83.4386 55.2359V54.3369C83.0865 54.7597 82.6382 55.0955 82.1299 55.3175C81.6216 55.5395 81.0672 55.6416 80.5114 55.6154C79.1889 55.5745 77.9345 55.0303 77.0138 54.098C76.093 53.1657 75.5781 51.9184 75.5781 50.6203C75.5781 49.3221 76.093 48.0748 77.0138 47.1425C77.9345 46.2102 79.1889 45.666 80.5114 45.6251C81.0672 45.5989 81.6216 45.701 82.1299 45.923C82.6382 46.145 83.0865 46.4809 83.4386 46.9036V45.9003L86.3657 45.9023ZM83.4396 50.6217C83.4598 50.1463 83.3345 49.6758 83.0799 49.2707C82.8252 48.8657 82.4528 48.5447 82.0107 48.3491C81.5685 48.1535 81.0768 48.0921 80.5988 48.173C80.1208 48.2539 79.6784 48.4732 79.3285 48.8029C78.9787 49.1325 78.7374 49.5573 78.6357 50.0226C78.534 50.4879 78.5766 50.9724 78.7579 51.4138C78.9393 51.8551 79.2511 52.2332 79.6533 52.4992C80.0555 52.7652 80.5296 52.9071 81.0147 52.9065C81.3306 52.9281 81.6477 52.8846 81.9454 52.7787C82.2432 52.6728 82.5151 52.5069 82.7435 52.2917C82.972 52.0764 83.1519 51.8166 83.2718 51.529C83.3917 51.2414 83.4488 50.9324 83.4396 50.6217V50.6217Z" fill="#5F6164"/>
<path d="M88.0705 50.82C88.0662 49.7882 88.3742 48.7785 88.9554 47.9186C89.5366 47.0587 90.3649 46.3874 91.3352 45.9897C92.3056 45.592 93.3744 45.4858 94.4064 45.6845C95.4383 45.8833 96.3869 46.3781 97.132 47.1062C97.8771 47.8343 98.3852 48.7629 98.5919 49.7746C98.7986 50.7862 98.6947 51.8353 98.2932 52.7889C97.8918 53.7425 97.2109 54.5578 96.3367 55.1314C95.4626 55.7051 94.4347 56.0113 93.383 56.0113C92.685 56.0191 91.9923 55.8903 91.3456 55.6325C90.6988 55.3746 90.1109 54.9928 89.6163 54.5095C89.1217 54.0261 88.7302 53.4509 88.4648 52.8174C88.1993 52.1839 88.0653 51.5049 88.0705 50.82V50.82ZM95.6885 50.82C95.676 50.3752 95.5301 49.944 95.2691 49.5802C95.0081 49.2164 94.6436 48.9361 94.2211 48.7744C93.7987 48.6127 93.337 48.5768 92.8938 48.6711C92.4507 48.7655 92.0457 48.9859 91.7295 49.3048C91.4134 49.6237 91.2 50.027 91.1162 50.4642C91.0324 50.9014 91.0817 51.3532 91.2582 51.7631C91.4346 52.1729 91.7303 52.5226 92.1082 52.7685C92.4862 53.0144 92.9296 53.1455 93.383 53.1454C93.6936 53.1536 94.0025 53.0985 94.2903 52.9837C94.578 52.8688 94.8385 52.6968 95.0551 52.4783C95.2717 52.2598 95.4398 51.9996 95.5488 51.7142C95.6578 51.4288 95.7054 51.1243 95.6885 50.82Z" fill="#5F6164"/>
<path d="M100.098 43.2673C100.098 42.9171 100.203 42.5749 100.402 42.2838C100.6 41.9927 100.882 41.7658 101.211 41.6318C101.541 41.4978 101.904 41.4628 102.254 41.5311C102.604 41.5994 102.925 41.768 103.178 42.0155C103.43 42.2631 103.602 42.5785 103.672 42.9219C103.741 43.2653 103.705 43.6212 103.569 43.9447C103.432 44.2681 103.201 44.5446 102.904 44.7391C102.608 44.9336 102.259 45.0374 101.902 45.0374C101.425 45.0328 100.969 44.8448 100.631 44.5138C100.294 44.1828 100.102 43.7353 100.098 43.2673V43.2673ZM100.401 45.9027H103.41V55.737H100.397L100.401 45.9027Z" fill="#5F6164"/>
<path d="M116.393 50.8199C116.428 51.4698 116.332 52.1201 116.109 52.7333C115.887 53.3465 115.543 53.9106 115.098 54.393C114.653 54.8754 114.115 55.2668 113.515 55.5445C112.915 55.8222 112.265 55.9808 111.602 56.0112C111.045 56.041 110.488 55.9488 109.972 55.7413C109.455 55.5337 108.992 55.216 108.616 54.8112V59.6698H105.609V45.9027H108.616V46.8265C108.992 46.422 109.455 46.1046 109.972 45.8972C110.488 45.6898 111.045 45.5977 111.602 45.6276C112.265 45.6578 112.915 45.8164 113.515 46.0941C114.115 46.3718 114.654 46.7633 115.099 47.2458C115.544 47.7284 115.888 48.2926 116.11 48.906C116.332 49.5194 116.429 50.1698 116.393 50.8199V50.8199ZM113.386 50.8199C113.375 50.3596 113.225 49.913 112.956 49.5359C112.686 49.1588 112.31 48.868 111.873 48.6998C111.436 48.5316 110.958 48.4936 110.5 48.5905C110.041 48.6874 109.621 48.9149 109.294 49.2445C108.966 49.5742 108.745 49.9913 108.658 50.4436C108.571 50.896 108.621 51.3636 108.804 51.7878C108.986 52.212 109.292 52.5741 109.683 52.8286C110.074 53.0832 110.533 53.2189 111.002 53.2189C111.324 53.2329 111.646 53.18 111.946 53.0636C112.245 52.9472 112.517 52.77 112.742 52.5434C112.967 52.3169 113.141 52.0463 113.252 51.7492C113.363 51.4522 113.409 51.1355 113.386 50.8199V50.8199Z" fill="#5F6164"/>
<path d="M125.674 52.7854C125.674 55.0473 123.67 56.0108 121.506 56.0108C120.631 56.0885 119.753 55.9071 118.984 55.4898C118.216 55.0726 117.593 54.4388 117.195 53.6704L119.8 52.2152C119.906 52.5703 120.132 52.8793 120.442 53.0905C120.751 53.3016 121.125 53.4022 121.501 53.3754C122.222 53.3754 122.584 53.1589 122.584 52.7665C122.584 51.6837 117.652 52.2549 117.652 48.8526C117.652 46.7079 119.497 45.6272 121.581 45.6272C122.365 45.6028 123.141 45.7852 123.829 46.1552C124.516 46.5253 125.09 47.0695 125.49 47.7311L122.924 49.088C122.812 48.8304 122.624 48.611 122.385 48.4572C122.147 48.3033 121.867 48.2218 121.581 48.2228C121.06 48.2228 120.739 48.4215 120.739 48.7731C120.743 49.8947 125.674 49.1467 125.674 52.7854Z" fill="#5F6164"/>
<path d="M136.658 45.9023V55.7367H133.651V54.8119C133.304 55.2199 132.863 55.5415 132.365 55.7501C131.867 55.9587 131.326 56.0484 130.785 56.0118C128.76 56.0118 127.039 54.5963 127.039 51.939V45.9023H130.046V51.5069C130.021 51.7411 130.048 51.9779 130.126 52.2008C130.203 52.4237 130.33 52.6273 130.495 52.7975C130.661 52.9677 130.863 53.1003 131.087 53.1862C131.31 53.2722 131.55 53.3093 131.79 53.295C132.892 53.295 133.654 52.6662 133.654 51.2695V45.9053L136.658 45.9023Z" fill="#5F6164"/>
<path d="M153.902 49.6978V55.7355H150.895V49.9531C150.895 48.9697 150.414 48.3409 149.452 48.3409C148.449 48.3409 147.888 49.0293 147.888 50.1895V55.7355H144.881V49.9531C144.881 48.9697 144.4 48.3409 143.438 48.3409C142.435 48.3409 141.874 49.0293 141.874 50.1895V55.7355H138.867V45.9011H141.874V46.8051C142.186 46.4041 142.595 46.086 143.064 45.8801C143.534 45.6741 144.048 45.5867 144.56 45.626C145.075 45.6013 145.587 45.7078 146.047 45.9352C146.508 46.1625 146.9 46.503 147.186 46.9233C147.519 46.4836 147.96 46.1339 148.469 45.907C148.977 45.6802 149.536 45.5835 150.093 45.626C152.394 45.627 153.902 47.2392 153.902 49.6978Z" fill="#5F6164"/>
<path d="M156.442 45.8416C157.675 45.8416 158.674 44.8614 158.674 43.6523C158.674 42.4431 157.675 41.4629 156.442 41.4629C155.21 41.4629 154.211 42.4431 154.211 43.6523C154.211 44.8614 155.21 45.8416 156.442 45.8416Z" fill="#5F6164"/>
</g>
</svg>
