<svg width="113" height="113" viewBox="0 0 113 113" fill="none" xmlns="http://www.w3.org/2000/svg">
<path d="M82.5588 68.3073C80.1754 68.3073 79.1191 67.3865 77.6296 66.0865C75.9775 64.6781 73.9192 62.8906 70.0463 62.8906C66.1463 62.8906 64.115 64.6781 62.4629 66.0865C60.9733 67.3865 59.89 68.3073 57.5067 68.3073C55.1504 68.3073 54.0671 67.3865 52.5775 66.0865C50.9254 64.6781 48.8671 62.8906 44.9942 62.8906C41.0942 62.8906 39.0359 64.6781 37.3838 66.0865C35.8942 67.3865 34.8379 68.3073 32.4546 68.3073C31.3442 68.3073 30.4233 69.2281 30.4233 70.3385C30.4233 71.476 31.3442 72.3698 32.4546 72.3698C36.3546 72.3698 38.3858 70.6094 40.0379 69.174C41.5275 67.874 42.6109 66.9531 44.9942 66.9531C47.3775 66.9531 48.4338 67.874 49.9234 69.174C51.5755 70.6094 53.6338 72.3698 57.5067 72.3698C61.4067 72.3698 63.465 70.6094 65.1171 69.174C66.6067 67.874 67.6629 66.9531 70.0463 66.9531C72.4025 66.9531 73.4859 67.874 74.9755 69.174C76.6275 70.6094 78.6858 72.3698 82.5588 72.3698C83.6692 72.3698 84.59 71.476 84.59 70.3385C84.59 69.2281 83.6692 68.3073 82.5588 68.3073Z" fill="white" fill-opacity="0.6"/>
<path d="M82.5588 57.151C80.1754 57.151 79.1191 56.2031 77.6296 54.9302C75.9775 53.4948 73.9192 51.7344 70.0463 51.7344C66.1463 51.7344 64.115 53.4948 62.4629 54.9302C60.9733 56.2031 59.89 57.151 57.5067 57.151C55.1504 57.151 54.0671 56.2031 52.5775 54.9302C50.9254 53.4948 48.8671 51.7344 44.9942 51.7344C41.0942 51.7344 39.0359 53.4948 37.3838 54.9302C35.8942 56.2031 34.8379 57.151 32.4546 57.151C31.3442 57.151 30.4233 58.0448 30.4233 59.1823C30.4233 60.2927 31.3442 61.2135 32.4546 61.2135C36.3546 61.2135 38.3858 59.426 40.0379 57.9906C41.5275 56.7177 42.6109 55.7969 44.9942 55.7969C47.3775 55.7969 48.4338 56.7177 49.9234 57.9906C51.5755 59.426 53.6338 61.2135 57.5067 61.2135C61.4067 61.2135 63.465 59.426 65.1171 57.9906C66.6067 56.7177 67.6629 55.7969 70.0463 55.7969C72.4025 55.7969 73.4859 56.7177 74.9755 57.9906C76.6275 59.426 78.6858 61.2135 82.5588 61.2135C83.6692 61.2135 84.59 60.2927 84.59 59.1823C84.59 58.0448 83.6692 57.151 82.5588 57.151Z" fill="white" fill-opacity="0.6"/>
<path d="M32.4546 50.1081C36.3546 50.1081 38.3858 48.3206 40.0379 46.9122C41.5275 45.6122 42.6109 44.6914 44.9942 44.6914C47.3775 44.6914 48.4338 45.6122 49.9234 46.9122C51.5755 48.3206 53.6338 50.1081 57.5067 50.1081C61.4067 50.1081 63.465 48.3206 65.1171 46.9122C66.6067 45.6122 67.6629 44.6914 70.0463 44.6914C72.4025 44.6914 73.4859 45.6122 74.9755 46.9122C76.6275 48.3206 78.6858 50.1081 82.5588 50.1081C83.6692 50.1081 84.59 49.1872 84.59 48.0768C84.59 46.9393 83.6692 46.0456 82.5588 46.0456C80.1754 46.0456 79.1192 45.1247 77.6296 43.8247C75.9775 42.3893 73.9192 40.6289 70.0463 40.6289C66.1463 40.6289 64.115 42.3893 62.4629 43.8247C60.9733 45.1247 59.89 46.0456 57.5067 46.0456C55.1504 46.0456 54.0671 45.1247 52.5775 43.8247C50.9254 42.3893 48.8671 40.6289 44.9942 40.6289C41.0942 40.6289 39.0359 42.3893 37.3838 43.8247C35.8942 45.1247 34.8379 46.0456 32.4546 46.0456C31.3442 46.0456 30.4233 46.9393 30.4233 48.0768C30.4233 49.1872 31.3442 50.1081 32.4546 50.1081Z" fill="white" fill-opacity="0.6"/>
<circle cx="56.5" cy="56.5" r="54" stroke="white" stroke-opacity="0.3" stroke-width="5" stroke-dasharray="4 12"/>
</svg>
