<svg width="16" height="12" viewBox="0 0 16 12" fill="none" xmlns="http://www.w3.org/2000/svg">
<path d="M6.70711 0.292893C7.09763 0.683417 7.09763 1.31658 6.70711 1.70711L3.41421 5L15 5C15.5523 5 16 5.44772 16 6C16 6.55229 15.5523 7 15 7L3.41421 7L6.70711 10.2929C7.09763 10.6834 7.09763 11.3166 6.70711 11.7071C6.31658 12.0976 5.68342 12.0976 5.2929 11.7071L0.292893 6.70711C0.105357 6.51957 5.96047e-08 6.26522 0 6C-1.19209e-07 5.73479 0.105357 5.48043 0.292893 5.29289L5.29289 0.292893C5.68342 -0.097631 6.31658 -0.0976311 6.70711 0.292893Z" fill="black"/>
</svg>
