<svg width="35" height="35" viewBox="0 0 35 35" fill="none" xmlns="http://www.w3.org/2000/svg">
<circle cx="17.5" cy="17.5" r="17.5" fill="white"/>
<path d="M22.2688 26.9062C21.28 26.9062 20.2388 26.67 19.1625 26.215C18.1125 25.7687 17.0538 25.1562 16.0213 24.4125C14.9975 23.66 14.0088 22.82 13.0725 21.9013C12.145 20.965 11.305 19.9763 10.5613 18.9613C9.80875 17.9113 9.205 16.8612 8.77625 15.8462C8.32125 14.7612 8.09375 13.7112 8.09375 12.7225C8.09375 12.04 8.21625 11.3925 8.4525 10.7887C8.6975 10.1675 9.09125 9.59 9.625 9.09125C10.2988 8.42625 11.0688 8.09375 11.8913 8.09375C12.2325 8.09375 12.5825 8.1725 12.88 8.3125C13.2213 8.47 13.51 8.70625 13.72 9.02125L15.75 11.8825C15.9338 12.1362 16.0738 12.3812 16.17 12.6262C16.2838 12.8887 16.345 13.1513 16.345 13.405C16.345 13.7375 16.2488 14.0613 16.065 14.3675C15.9338 14.6038 15.7325 14.8575 15.4788 15.1113L14.8838 15.7325C14.8925 15.7587 14.9013 15.7763 14.91 15.7938C15.015 15.9775 15.225 16.2925 15.6275 16.765C16.0563 17.255 16.4588 17.7012 16.8613 18.1125C17.3775 18.62 17.8063 19.0225 18.2088 19.355C18.7075 19.775 19.0313 19.985 19.2238 20.0812L19.2063 20.125L19.845 19.495C20.1163 19.2237 20.3788 19.0225 20.6325 18.8913C21.1138 18.5938 21.7263 18.5412 22.3388 18.795C22.5663 18.8912 22.8113 19.0225 23.0738 19.2062L25.9788 21.2712C26.3025 21.49 26.5388 21.77 26.6788 22.1025C26.81 22.435 26.8713 22.7413 26.8713 23.0475C26.8713 23.4675 26.775 23.8875 26.5913 24.2812C26.4075 24.675 26.18 25.0163 25.8913 25.3313C25.3925 25.8825 24.85 26.2762 24.22 26.53C23.6163 26.775 22.96 26.9062 22.2688 26.9062ZM11.8913 9.40625C11.41 9.40625 10.9638 9.61625 10.535 10.0363C10.1325 10.4125 9.8525 10.8238 9.6775 11.27C9.49375 11.725 9.40625 12.2062 9.40625 12.7225C9.40625 13.5362 9.59875 14.42 9.98375 15.33C10.3775 16.2575 10.9288 17.22 11.6288 18.1825C12.3288 19.145 13.125 20.0813 14 20.965C14.875 21.8313 15.82 22.6363 16.7913 23.345C17.7363 24.0363 18.7075 24.5962 19.67 24.9987C21.1663 25.6375 22.5663 25.7863 23.7213 25.305C24.1675 25.1213 24.5613 24.8413 24.92 24.4388C25.1213 24.22 25.2788 23.9838 25.41 23.7038C25.515 23.485 25.5675 23.2575 25.5675 23.03C25.5675 22.89 25.5413 22.75 25.4713 22.5925C25.445 22.54 25.3925 22.4438 25.2263 22.33L22.3213 20.265C22.1463 20.1425 21.9888 20.055 21.84 19.9938C21.6475 19.915 21.5688 19.8363 21.2713 20.02C21.0963 20.1075 20.9388 20.2387 20.7638 20.4137L20.0988 21.07C19.7575 21.4025 19.2325 21.4812 18.83 21.3325L18.5938 21.2275C18.235 21.035 17.815 20.7375 17.3513 20.3438C16.9313 19.985 16.4763 19.565 15.925 19.0225C15.4963 18.585 15.0675 18.1212 14.6213 17.605C14.21 17.1237 13.9125 16.7125 13.7288 16.3713L13.6238 16.1087C13.5713 15.9075 13.5538 15.7937 13.5538 15.6712C13.5538 15.3562 13.6675 15.0762 13.8863 14.8575L14.5425 14.175C14.7175 14 14.8488 13.8337 14.9363 13.685C15.0063 13.5712 15.0325 13.475 15.0325 13.3875C15.0325 13.3175 15.0063 13.2125 14.9625 13.1075C14.9013 12.9675 14.805 12.81 14.6825 12.6437L12.6525 9.77375C12.565 9.65125 12.46 9.56375 12.3288 9.5025C12.1888 9.44125 12.04 9.40625 11.8913 9.40625ZM19.2063 20.1338L19.0663 20.7287L19.3025 20.1162C19.2588 20.1075 19.2238 20.1163 19.2063 20.1338Z" fill="#2A94E2"/>
</svg>
