<svg width="180" height="100" viewBox="0 0 180 100" fill="none" xmlns="http://www.w3.org/2000/svg">
<g opacity="0.8">
<path d="M41.9365 48.7137C41.5528 49.0925 41.2589 49.5496 41.0759 50.0525C40.8928 50.5554 40.8251 51.0917 40.8774 51.6233L40.8592 51.6054C40.913 52.2311 40.827 52.8607 40.6072 53.4504C40.3874 54.0401 40.0391 54.5757 39.5866 55.0197C39.134 55.4637 38.5882 55.8054 37.9871 56.0211C37.386 56.2367 36.7443 56.3211 36.1065 56.2683L36.1248 56.2861C35.3619 56.2165 34.5957 56.3794 33.9307 56.7525C33.2657 57.1257 32.7341 57.6911 32.4086 58.3715C32.083 59.0519 31.9793 59.8143 32.1116 60.5547C32.2438 61.2951 32.6056 61.9774 33.1476 62.5087C33.6896 63.0399 34.3854 63.3943 35.1401 63.5234C35.8949 63.6524 36.6719 63.55 37.3651 63.23C38.0583 62.91 38.6341 62.388 39.0139 61.7351C39.3936 61.0823 39.559 60.3305 39.4873 59.5821L39.5065 59.6C39.4527 58.9743 39.5387 58.3447 39.7585 57.755C39.9783 57.1653 40.3266 56.6297 40.7791 56.1857C41.2317 55.7418 41.7775 55.4 42.3786 55.1844C42.9797 54.9687 43.6215 54.8843 44.2592 54.9372L44.2399 54.9193C44.8631 54.9743 45.4903 54.874 46.0634 54.6279C46.6366 54.3817 47.1371 53.9976 47.5186 53.5111C47.9002 53.0246 48.1504 52.4515 48.246 51.8449C48.3417 51.2382 48.2797 50.6177 48.0659 50.0409C47.8521 49.464 47.4932 48.9494 47.0227 48.5449C46.5522 48.1403 45.9852 47.8587 45.3743 47.7264C44.7633 47.594 44.1282 47.6151 43.5278 47.7877C42.9274 47.9603 42.3811 48.2788 41.9395 48.7137H41.9365Z" fill="white" fill-opacity="0.6"/>
<path d="M34.4672 53.945L34.448 53.9271C34.99 53.9807 35.5374 53.9154 36.0505 53.736C36.5637 53.5566 37.0298 53.2676 37.4152 52.8898C37.8005 52.512 38.0955 52.0549 38.2787 51.5516C38.4619 51.0483 38.5289 50.5113 38.4747 49.9795L38.4939 49.9973C38.4401 49.3717 38.5261 48.742 38.7459 48.1523C38.9657 47.5626 39.314 47.0271 39.7666 46.5831C40.2191 46.1391 40.7649 45.7973 41.366 45.5817C41.9671 45.366 42.6089 45.2817 43.2466 45.3345L43.2273 45.3166C43.9902 45.3869 44.7567 45.2246 45.4221 44.8518C46.0875 44.479 46.6195 43.9139 46.9456 43.2336C47.2716 42.5533 47.3758 41.7908 47.244 41.0503C47.1121 40.3097 46.7506 39.6271 46.2088 39.0955C45.667 38.5639 44.9712 38.2093 44.2164 38.0799C43.4615 37.9505 42.6844 38.0528 41.991 38.3726C41.2976 38.6925 40.7216 39.2145 40.3416 39.8673C39.9617 40.5202 39.7962 41.2721 39.8679 42.0206L39.8497 42.0017C39.9037 42.6274 39.8178 43.2572 39.5981 43.847C39.3783 44.4367 39.03 44.9724 38.5774 45.4164C38.1248 45.8604 37.5789 46.2022 36.9778 46.4178C36.3766 46.6333 35.7347 46.7176 35.097 46.6646L35.1152 46.6835C34.5732 46.6299 34.0258 46.6952 33.5126 46.8746C32.9995 47.0539 32.5334 47.343 32.148 47.7208C31.7627 48.0986 31.4677 48.5556 31.2845 49.059C31.1012 49.5623 31.0343 50.0993 31.0885 50.6311L31.0703 50.6132C31.1239 51.2389 31.0378 51.8685 30.8179 52.4581C30.5981 53.0477 30.2497 53.5832 29.7972 54.0271C29.3447 54.4711 28.799 54.8128 28.198 55.0285C27.597 55.2443 26.9553 55.3287 26.3176 55.2761L26.3358 55.294C25.5729 55.2237 24.8065 55.386 24.1411 55.7588C23.4757 56.1316 22.9437 56.6966 22.6176 57.377C22.2916 58.0573 22.1874 58.8197 22.3192 59.5603C22.4511 60.3009 22.8126 60.9835 23.3544 61.5151C23.8962 62.0467 24.592 62.4013 25.3468 62.5307C26.1017 62.6601 26.8788 62.5578 27.5722 62.2379C28.2656 61.9181 28.8416 61.3961 29.2216 60.7432C29.6015 60.0904 29.7669 59.3385 29.6953 58.59L29.7145 58.6079C29.6607 57.9822 29.7467 57.3525 29.9665 56.7628C30.1863 56.1731 30.5346 55.6376 30.9872 55.1936C31.4397 54.7496 31.9856 54.4078 32.5866 54.1922C33.1877 53.9765 33.8295 53.8922 34.4672 53.945Z" fill="white" fill-opacity="0.6"/>
<path d="M27.6818 51.9516C28.0655 51.5729 28.3593 51.1158 28.5422 50.6128C28.7251 50.1099 28.7926 49.5735 28.7398 49.042L28.7591 49.0599C28.7052 48.434 28.7912 47.8042 29.0111 47.2143C29.2311 46.6245 29.5796 46.0888 30.0323 45.6448C30.4851 45.2008 31.0312 44.8591 31.6325 44.6436C32.2339 44.428 32.8759 44.3439 33.5138 44.397L33.4945 44.3791C34.2572 44.4492 35.0233 44.2868 35.6884 43.9141C36.3535 43.5413 36.8852 42.9764 37.2111 42.2963C37.5369 41.6162 37.641 40.854 37.5092 40.1137C37.3773 39.3734 37.0159 38.6911 36.4743 38.1597C35.9327 37.6283 35.2372 37.2737 34.4826 37.1444C33.7281 37.015 32.9512 37.1171 32.258 37.4368C31.5648 37.7565 30.989 38.2782 30.6091 38.9307C30.2291 39.5833 30.0636 40.3349 30.135 41.0832L30.1168 41.0653C30.1707 41.6909 30.0847 42.3206 29.8649 42.9103C29.645 43.5 29.2967 44.0355 28.8442 44.4795C28.3916 44.9235 27.8458 45.2653 27.2447 45.4809C26.6437 45.6966 26.0019 45.7809 25.3641 45.7281L25.3824 45.746C24.7593 45.6912 24.1321 45.7916 23.5591 46.0378C22.986 46.2841 22.4856 46.6683 22.1042 47.1549C21.7227 47.6414 21.4727 48.2145 21.3771 48.8211C21.2816 49.4277 21.3436 50.0482 21.5575 50.625C21.7714 51.2018 22.1303 51.7163 22.6008 52.1208C23.0714 52.5253 23.6384 52.8067 24.2493 52.939C24.8602 53.0713 25.4953 53.0502 26.0956 52.8776C26.696 52.705 27.2423 52.3865 27.6838 51.9516H27.6818Z" fill="white" fill-opacity="0.6"/>
<path d="M59.0459 42.043H62.053V56.4001H59.0459V42.043Z" fill="white" fill-opacity="0.6"/>
<path d="M63.756 51.4831C63.7518 50.4513 64.0598 49.4415 64.641 48.5817C65.2222 47.7218 66.0504 47.0505 67.0208 46.6528C67.9911 46.2551 69.06 46.1489 70.0919 46.3476C71.1239 46.5464 72.0725 47.0411 72.8176 47.7692C73.5627 48.4973 74.0708 49.426 74.2775 50.4377C74.4842 51.4493 74.3802 52.4984 73.9788 53.452C73.5773 54.4056 72.8964 55.2209 72.0223 55.7945C71.1482 56.3682 70.1202 56.6744 69.0686 56.6744C68.3705 56.6822 67.6779 56.5534 67.0311 56.2956C66.3843 56.0377 65.7965 55.6559 65.3018 55.1726C64.8072 54.6892 64.4157 54.114 64.1503 53.4805C63.8849 52.847 63.7508 52.168 63.756 51.4831ZM71.374 51.4831C71.3615 51.0383 71.2156 50.6071 70.9546 50.2433C70.6936 49.8794 70.3291 49.5992 69.9067 49.4375C69.4842 49.2758 69.0226 49.2399 68.5794 49.3342C68.1362 49.4285 67.7313 49.6489 67.4151 49.9679C67.0989 50.2868 66.8856 50.6901 66.8017 51.1273C66.7179 51.5645 66.7673 52.0163 66.9437 52.4261C67.1202 52.836 67.4159 53.1857 67.7938 53.4316C68.1717 53.6774 68.6151 53.8086 69.0686 53.8085C69.3791 53.8167 69.688 53.7616 69.9758 53.6468C70.2636 53.5319 70.524 53.3598 70.7406 53.1413C70.9572 52.9229 71.1253 52.6627 71.2344 52.3773C71.3434 52.0919 71.3909 51.7874 71.374 51.4831Z" fill="white" fill-opacity="0.6"/>
<path d="M86.3662 46.5663V55.904C86.3662 59.2079 83.7398 60.6046 81.0739 60.6046C80.1352 60.6735 79.1954 60.4875 78.3574 60.0669C77.5194 59.6464 76.8156 59.0076 76.3232 58.2205L78.8889 56.7652C79.0958 57.1755 79.4256 57.514 79.834 57.7353C80.2424 57.9567 80.7099 58.0504 81.1741 58.004C81.4708 58.0443 81.7729 58.0187 82.0581 57.929C82.3433 57.8393 82.6043 57.6878 82.8217 57.4858C83.0392 57.2838 83.2076 57.0364 83.3145 56.7619C83.4213 56.4874 83.4639 56.1928 83.4391 55.9V55.001C83.0869 55.4237 82.6387 55.7596 82.1304 55.9816C81.622 56.2036 81.0677 56.3056 80.5119 56.2795C79.1894 56.2385 77.935 55.6943 77.0143 54.762C76.0935 53.8297 75.5786 52.5825 75.5786 51.2843C75.5786 49.9861 76.0935 48.7389 77.0143 47.8066C77.935 46.8743 79.1894 46.3301 80.5119 46.2892C81.0677 46.263 81.622 46.365 82.1304 46.5871C82.6387 46.8091 83.0869 47.1449 83.4391 47.5676V46.5643L86.3662 46.5663ZM83.4401 51.2858C83.4603 50.8103 83.335 50.3398 83.0803 49.9348C82.8257 49.5298 82.4533 49.2088 82.0111 49.0132C81.569 48.8175 81.0773 48.7562 80.5993 48.8371C80.1213 48.9179 79.6789 49.1373 79.329 49.4669C78.9792 49.7965 78.7379 50.2213 78.6362 50.6866C78.5345 51.152 78.5771 51.6365 78.7584 52.0778C78.9398 52.5192 79.2516 52.8972 79.6538 53.1633C80.056 53.4293 80.5301 53.5711 81.0151 53.5706C81.3311 53.5922 81.6482 53.5487 81.9459 53.4428C82.2437 53.3369 82.5156 53.171 82.744 52.9557C82.9724 52.7405 83.1524 52.4807 83.2723 52.1931C83.3922 51.9055 83.4493 51.5964 83.4401 51.2858Z" fill="white" fill-opacity="0.6"/>
<path d="M88.069 51.4831C88.0648 50.4513 88.3728 49.4415 88.954 48.5817C89.5352 47.7218 90.3634 47.0505 91.3338 46.6528C92.3041 46.2551 93.373 46.1489 94.4049 46.3476C95.4368 46.5464 96.3854 47.0411 97.1306 47.7692C97.8757 48.4973 98.3837 49.426 98.5905 50.4377C98.7972 51.4493 98.6932 52.4984 98.2918 53.452C97.8903 54.4056 97.2094 55.2209 96.3353 55.7945C95.4612 56.3682 94.4332 56.6744 93.3816 56.6744C92.6835 56.6822 91.9908 56.5534 91.3441 56.2956C90.6973 56.0377 90.1095 55.6559 89.6148 55.1726C89.1202 54.6892 88.7287 54.114 88.4633 53.4805C88.1979 52.847 88.0638 52.168 88.069 51.4831ZM95.687 51.4831C95.6745 51.0383 95.5286 50.6071 95.2676 50.2433C95.0066 49.8794 94.6421 49.5992 94.2197 49.4375C93.7972 49.2758 93.3355 49.2399 92.8924 49.3342C92.4492 49.4285 92.0443 49.6489 91.7281 49.9679C91.4119 50.2868 91.1986 50.6901 91.1147 51.1273C91.0309 51.5645 91.0803 52.0163 91.2567 52.4261C91.4332 52.836 91.7288 53.1857 92.1068 53.4316C92.4847 53.6774 92.9281 53.8086 93.3816 53.8085C93.6921 53.8167 94.001 53.7616 94.2888 53.6468C94.5766 53.5319 94.837 53.3598 95.0536 53.1413C95.2702 52.9229 95.4383 52.6627 95.5473 52.3773C95.6564 52.0919 95.7039 51.7874 95.687 51.4831Z" fill="white" fill-opacity="0.6"/>
<path d="M100.097 43.9303C100.097 43.5802 100.203 43.238 100.401 42.9469C100.599 42.6558 100.881 42.4289 101.21 42.2949C101.54 42.1609 101.903 42.1259 102.253 42.1942C102.603 42.2625 102.924 42.4311 103.177 42.6786C103.429 42.9262 103.601 43.2416 103.671 43.585C103.74 43.9284 103.704 44.2843 103.568 44.6078C103.431 44.9312 103.2 45.2077 102.903 45.4022C102.607 45.5967 102.258 45.7005 101.901 45.7005C101.424 45.6959 100.968 45.5079 100.63 45.1769C100.293 44.8459 100.101 44.3984 100.097 43.9303ZM100.4 46.5657H103.409V56.4001H100.396L100.4 46.5657Z" fill="white" fill-opacity="0.6"/>
<path d="M116.393 51.483C116.428 52.1329 116.331 52.7832 116.109 53.3964C115.887 54.0096 115.543 54.5736 115.098 55.0561C114.652 55.5385 114.114 55.9299 113.514 56.2076C112.914 56.4853 112.265 56.6439 111.602 56.6743C111.045 56.7041 110.488 56.6119 109.971 56.4044C109.455 56.1968 108.992 55.8791 108.616 55.4743V60.3329H105.609V46.5658H108.616V47.4896C108.992 47.0851 109.455 46.7677 109.971 46.5603C110.488 46.3529 111.045 46.2608 111.602 46.2906C112.265 46.3209 112.915 46.4795 113.515 46.7572C114.115 47.0349 114.653 47.4263 115.098 47.9089C115.544 48.3915 115.887 48.9557 116.11 49.5691C116.332 50.1825 116.428 50.8329 116.393 51.483ZM113.386 51.483C113.374 51.0227 113.224 50.5761 112.955 50.199C112.686 49.8219 112.309 49.531 111.872 49.3629C111.436 49.1947 110.958 49.1567 110.499 49.2536C110.04 49.3505 109.621 49.578 109.293 49.9076C108.966 50.2372 108.744 50.6543 108.657 51.1067C108.57 51.5591 108.621 52.0267 108.803 52.4509C108.985 52.8751 109.291 53.2372 109.682 53.4917C110.073 53.7463 110.532 53.882 111.001 53.882C111.324 53.896 111.645 53.8431 111.945 53.7267C112.245 53.6103 112.516 53.433 112.741 53.2065C112.967 52.98 113.14 52.7094 113.251 52.4123C113.363 52.1153 113.408 51.7986 113.386 51.483Z" fill="white" fill-opacity="0.6"/>
<path d="M125.673 53.4494C125.673 55.7113 123.669 56.6749 121.504 56.6749C120.629 56.7526 119.751 56.5711 118.983 56.1539C118.214 55.7367 117.591 55.1029 117.194 54.3345L119.799 52.8792C119.904 53.2344 120.131 53.5434 120.44 53.7545C120.75 53.9657 121.124 54.0663 121.5 54.0395C122.221 54.0395 122.582 53.8229 122.582 53.4305C122.582 52.3478 117.65 52.919 117.65 49.5167C117.65 47.372 119.495 46.2912 121.58 46.2912C122.364 46.2669 123.14 46.4493 123.827 46.8193C124.515 47.1894 125.088 47.7336 125.488 48.3952L122.923 49.7521C122.81 49.4945 122.623 49.2751 122.384 49.1212C122.145 48.9674 121.866 48.8859 121.58 48.8869C121.059 48.8869 120.738 49.0856 120.738 49.4372C120.742 50.5587 125.673 49.8107 125.673 53.4494Z" fill="white" fill-opacity="0.6"/>
<path d="M136.657 46.5664V56.4007H133.65V55.4759C133.303 55.884 132.862 56.2055 132.364 56.4141C131.866 56.6227 131.325 56.7125 130.784 56.6759C128.759 56.6759 127.038 55.2604 127.038 52.6031V46.5664H130.045V52.171C130.02 52.4052 130.047 52.642 130.125 52.8649C130.202 53.0877 130.329 53.2914 130.494 53.4615C130.66 53.6317 130.862 53.7644 131.086 53.8503C131.309 53.9362 131.549 53.9733 131.789 53.959C132.891 53.959 133.653 53.3302 133.653 51.9336V46.5694L136.657 46.5664Z" fill="white" fill-opacity="0.6"/>
<path d="M153.9 50.3628V56.4005H150.893V50.6181C150.893 49.6347 150.412 49.0059 149.45 49.0059C148.448 49.0059 147.886 49.6943 147.886 50.8546V56.4005H144.879V50.6181C144.879 49.6347 144.399 49.0059 143.436 49.0059C142.433 49.0059 141.872 49.6943 141.872 50.8546V56.4005H138.865V46.5662H141.872V47.4702C142.184 47.0691 142.593 46.7511 143.062 46.5451C143.532 46.3391 144.046 46.2518 144.559 46.291C145.073 46.2663 145.585 46.3729 146.045 46.6002C146.506 46.8276 146.898 47.168 147.184 47.5884C147.517 47.1486 147.959 46.799 148.467 46.5721C148.975 46.3452 149.534 46.2485 150.091 46.291C152.392 46.292 153.9 47.9043 153.9 50.3628Z" fill="white" fill-opacity="0.6"/>
<path d="M156.443 46.5057C157.676 46.5057 158.675 45.5255 158.675 44.3163C158.675 43.1072 157.676 42.127 156.443 42.127C155.211 42.127 154.212 43.1072 154.212 44.3163C154.212 45.5255 155.211 46.5057 156.443 46.5057Z" fill="white" fill-opacity="0.6"/>
</g>
</svg>
