<svg width="154" height="184" viewBox="0 0 154 184" fill="none" xmlns="http://www.w3.org/2000/svg">
<line x1="32.7031" y1="42" x2="32.7031" y2="112" stroke="#379BE4" stroke-width="5"/>
<line x1="21.7031" y1="42" x2="21.7031" y2="120" stroke="#379BE4" stroke-width="5"/>
<line x1="11.7031" y1="11" x2="11.7031" y2="130" stroke="#379BE4" stroke-width="5"/>
<line x1="139.703" y1="11" x2="139.703" y2="127" stroke="#379BE4" stroke-width="5"/>
<line x1="129.703" y1="42" x2="129.703" y2="120" stroke="#379BE4" stroke-width="5"/>
<line x1="119.703" y1="42" x2="119.703" y2="112" stroke="#379BE4" stroke-width="5"/>
<line x1="34.2031" y1="110" x2="122.203" y2="110" stroke="#379BE4" stroke-width="4"/>
<line x1="23.2031" y1="118" x2="132.203" y2="118" stroke="#379BE4" stroke-width="4"/>
<line x1="13.2031" y1="128" x2="142.203" y2="128" stroke="#379BE4" stroke-width="4"/>
<line x1="19.2031" y1="41.5" x2="35.2031" y2="41.5" stroke="#379BE4"/>
<line x1="63.2031" y1="102.5" x2="89.2031" y2="102.5" stroke="#379BE4"/>
<line x1="57.2031" y1="98.5" x2="95.2031" y2="98.5" stroke="#379BE4"/>
<line x1="52.2031" y1="93.5" x2="101.203" y2="93.5" stroke="#379BE4"/>
<line x1="49.2031" y1="88.5" x2="104.203" y2="88.5" stroke="#379BE4"/>
<path d="M46.2031 82.5H106.203M45.2031 77.5H107.203" stroke="#379BE4"/>
<line x1="55.2031" y1="97.5" x2="97.2031" y2="97.5" stroke="#379BE4"/>
<line x1="50.2031" y1="92.5" x2="102.203" y2="92.5" stroke="#379BE4"/>
<line x1="47.2031" y1="87.5" x2="105.203" y2="87.5" stroke="#379BE4"/>
<line x1="46.2031" y1="81.5" x2="107.203" y2="81.5" stroke="#379BE4"/>
<line x1="44.2031" y1="72.5" x2="108.203" y2="72.5" stroke="#379BE4"/>
<line x1="46.2031" y1="67.5" x2="108.203" y2="67.5" stroke="#379BE4"/>
<line x1="46.2031" y1="61.5" x2="106.203" y2="61.5" stroke="#379BE4"/>
<line x1="49.2031" y1="56.5" x2="103.203" y2="56.5" stroke="#379BE4"/>
<line x1="45.2031" y1="71.5" x2="107.203" y2="71.5" stroke="#379BE4"/>
<line x1="46.2031" y1="66.5" x2="107.203" y2="66.5" stroke="#379BE4"/>
<line x1="47.2031" y1="60.5" x2="105.203" y2="60.5" stroke="#379BE4"/>
<line x1="50.2031" y1="55.5" x2="102.203" y2="55.5" stroke="#379BE4"/>
<line x1="55.2031" y1="49.5" x2="98.2031" y2="49.5" stroke="#379BE4"/>
<line x1="63.2031" y1="44.5" x2="90.2031" y2="44.5" stroke="#379BE4"/>
<line x1="62.2031" y1="45.5" x2="92.2031" y2="45.5" stroke="#379BE4"/>
<line x1="54.2031" y1="50.5" x2="99.2031" y2="50.5" stroke="#379BE4"/>
<line x1="44.2031" y1="76.5" x2="108.203" y2="76.5" stroke="#379BE4"/>
<line x1="66.2031" y1="103.5" x2="87.2031" y2="103.5" stroke="#379BE4"/>
<path d="M59.1184 128.392L76.4728 145.762L85.2186 137.008L93.9644 128.255" stroke="#379BE4" stroke-width="5"/>
<path d="M76.7031 136L70.2079 129.25H83.1983L76.7031 136Z" fill="#379BE4"/>
<path d="M50.498 150.781V165H48.0664V150.781H50.498ZM54.9609 150.781V152.734H43.6426V150.781H54.9609ZM61.8262 158.701V160.576H56.1621V158.701H61.8262ZM58.1738 154.434V165H55.8203V154.434H58.1738ZM60.0879 159.834V159.609C60.0879 158.848 60.1986 158.141 60.4199 157.49C60.6413 156.833 60.9635 156.263 61.3867 155.781C61.8099 155.293 62.3242 154.915 62.9297 154.648C63.5352 154.375 64.222 154.238 64.9902 154.238C65.7715 154.238 66.4648 154.375 67.0703 154.648C67.6823 154.915 68.1999 155.293 68.623 155.781C69.0462 156.263 69.3685 156.833 69.5898 157.49C69.8112 158.141 69.9219 158.848 69.9219 159.609V159.834C69.9219 160.596 69.8112 161.302 69.5898 161.953C69.3685 162.604 69.0462 163.174 68.623 163.662C68.2064 164.144 67.6921 164.521 67.0801 164.795C66.4746 165.062 65.7845 165.195 65.0098 165.195C64.235 165.195 63.5449 165.062 62.9395 164.795C62.334 164.521 61.8164 164.144 61.3867 163.662C60.9635 163.174 60.6413 162.604 60.4199 161.953C60.1986 161.302 60.0879 160.596 60.0879 159.834ZM62.4512 159.609V159.834C62.4512 160.309 62.5 160.758 62.5977 161.182C62.6953 161.605 62.8483 161.976 63.0566 162.295C63.265 162.614 63.5319 162.865 63.8574 163.047C64.1829 163.229 64.5671 163.32 65.0098 163.32C65.4525 163.32 65.8333 163.229 66.1523 163.047C66.4779 162.865 66.7448 162.614 66.9531 162.295C67.1615 161.976 67.3145 161.605 67.4121 161.182C67.5163 160.758 67.5684 160.309 67.5684 159.834V159.609C67.5684 159.141 67.5163 158.698 67.4121 158.281C67.3145 157.858 67.1615 157.484 66.9531 157.158C66.7448 156.833 66.4779 156.579 66.1523 156.396C65.8268 156.208 65.4395 156.113 64.9902 156.113C64.554 156.113 64.1732 156.208 63.8477 156.396C63.5286 156.579 63.265 156.833 63.0566 157.158C62.8483 157.484 62.6953 157.858 62.5977 158.281C62.5 158.698 62.4512 159.141 62.4512 159.609ZM78.1543 162.148L81.2988 154.434H83.3398L78.9551 165H77.3535L72.9785 154.434H75.0195L78.1543 162.148ZM74.4141 154.434V165H72.0605V154.434H74.4141ZM81.8945 165V154.434H84.2578V165H81.8945ZM91.5527 165.195C90.7715 165.195 90.0651 165.068 89.4336 164.814C88.8086 164.554 88.2747 164.193 87.832 163.73C87.3958 163.268 87.0605 162.725 86.8262 162.1C86.5918 161.475 86.4746 160.801 86.4746 160.078V159.688C86.4746 158.861 86.5951 158.112 86.8359 157.441C87.0768 156.771 87.4121 156.198 87.8418 155.723C88.2715 155.241 88.7793 154.873 89.3652 154.619C89.9512 154.365 90.5859 154.238 91.2695 154.238C92.0247 154.238 92.6855 154.365 93.252 154.619C93.8184 154.873 94.2871 155.231 94.6582 155.693C95.0358 156.149 95.3158 156.693 95.498 157.324C95.6868 157.956 95.7812 158.652 95.7812 159.414V160.42H87.6172V158.73H93.457V158.545C93.444 158.122 93.3594 157.725 93.2031 157.354C93.0534 156.982 92.8223 156.683 92.5098 156.455C92.1973 156.227 91.7806 156.113 91.2598 156.113C90.8691 156.113 90.5208 156.198 90.2148 156.367C89.9154 156.53 89.6647 156.768 89.4629 157.08C89.2611 157.393 89.1048 157.77 88.9941 158.213C88.89 158.649 88.8379 159.141 88.8379 159.688V160.078C88.8379 160.54 88.8997 160.97 89.0234 161.367C89.1536 161.758 89.3424 162.1 89.5898 162.393C89.8372 162.686 90.1367 162.917 90.4883 163.086C90.8398 163.249 91.2402 163.33 91.6895 163.33C92.2559 163.33 92.7604 163.216 93.2031 162.988C93.6458 162.76 94.0299 162.438 94.3555 162.021L95.5957 163.223C95.3678 163.555 95.0716 163.874 94.707 164.18C94.3424 164.479 93.8965 164.723 93.3691 164.912C92.8483 165.101 92.2428 165.195 91.5527 165.195ZM104.834 158.848V160.703H99.3652V158.848H104.834ZM100.049 154.434V165H97.6953V154.434H100.049ZM106.533 154.434V165H104.18V154.434H106.533ZM110.791 157.793H113.906C114.818 157.793 115.592 157.946 116.23 158.252C116.868 158.558 117.354 158.984 117.686 159.531C118.024 160.072 118.193 160.69 118.193 161.387C118.193 161.901 118.099 162.38 117.91 162.822C117.721 163.258 117.441 163.639 117.07 163.965C116.706 164.29 116.257 164.544 115.723 164.727C115.195 164.909 114.59 165 113.906 165H109.229V154.434H111.592V163.135H113.906C114.375 163.135 114.749 163.053 115.029 162.891C115.309 162.728 115.511 162.516 115.635 162.256C115.765 161.995 115.83 161.719 115.83 161.426C115.83 161.126 115.765 160.843 115.635 160.576C115.511 160.309 115.309 160.091 115.029 159.922C114.749 159.753 114.375 159.668 113.906 159.668H110.791V157.793Z" fill="#379BE4"/>
<path d="M27.0703 23.0059L33.3789 12.7812H35.8301V27H33.3789V16.7656L27.0703 27H24.6289V12.7812H27.0703V23.0059ZM45.752 20.8477V22.7031H40.2832V20.8477H45.752ZM40.9668 16.4336V27H38.6133V16.4336H40.9668ZM47.4512 16.4336V27H45.0977V16.4336H47.4512ZM56.9922 16.4336V18.3086H52.3828V27H50.0293V16.4336H56.9922ZM62.8223 27.1953C62.041 27.1953 61.3346 27.0684 60.7031 26.8145C60.0781 26.554 59.5443 26.1927 59.1016 25.7305C58.6654 25.2682 58.3301 24.7246 58.0957 24.0996C57.8613 23.4746 57.7441 22.8008 57.7441 22.0781V21.6875C57.7441 20.8607 57.8646 20.112 58.1055 19.4414C58.3464 18.7708 58.6816 18.1979 59.1113 17.7227C59.541 17.2409 60.0488 16.873 60.6348 16.6191C61.2207 16.3652 61.8555 16.2383 62.5391 16.2383C63.2943 16.2383 63.9551 16.3652 64.5215 16.6191C65.0879 16.873 65.5566 17.2311 65.9277 17.6934C66.3053 18.1491 66.5853 18.6927 66.7676 19.3242C66.9564 19.9557 67.0508 20.6523 67.0508 21.4141V22.4199H58.8867V20.7305H64.7266V20.5449C64.7135 20.1217 64.6289 19.7246 64.4727 19.3535C64.3229 18.9824 64.0918 18.6829 63.7793 18.4551C63.4668 18.2272 63.0501 18.1133 62.5293 18.1133C62.1387 18.1133 61.7904 18.1979 61.4844 18.3672C61.1849 18.5299 60.9342 18.7676 60.7324 19.0801C60.5306 19.3926 60.3743 19.7702 60.2637 20.2129C60.1595 20.6491 60.1074 21.1406 60.1074 21.6875V22.0781C60.1074 22.5404 60.1693 22.9701 60.293 23.3672C60.4232 23.7578 60.612 24.0996 60.8594 24.3926C61.1068 24.6855 61.4062 24.9167 61.7578 25.0859C62.1094 25.2487 62.5098 25.3301 62.959 25.3301C63.5254 25.3301 64.0299 25.2161 64.4727 24.9883C64.9154 24.7604 65.2995 24.4382 65.625 24.0215L66.8652 25.2227C66.6374 25.5547 66.3411 25.8737 65.9766 26.1797C65.612 26.4792 65.166 26.7233 64.6387 26.9121C64.1178 27.1009 63.5124 27.1953 62.8223 27.1953ZM68.4375 21.834V21.6094C68.4375 20.8477 68.5482 20.1413 68.7695 19.4902C68.9909 18.8327 69.3099 18.263 69.7266 17.7812C70.1497 17.293 70.6641 16.9154 71.2695 16.6484C71.8815 16.375 72.5716 16.2383 73.3398 16.2383C74.1146 16.2383 74.8047 16.375 75.4102 16.6484C76.0221 16.9154 76.5397 17.293 76.9629 17.7812C77.3861 18.263 77.7083 18.8327 77.9297 19.4902C78.151 20.1413 78.2617 20.8477 78.2617 21.6094V21.834C78.2617 22.5957 78.151 23.3021 77.9297 23.9531C77.7083 24.6042 77.3861 25.1738 76.9629 25.6621C76.5397 26.1439 76.0254 26.5215 75.4199 26.7949C74.8145 27.0618 74.1276 27.1953 73.3594 27.1953C72.5846 27.1953 71.8913 27.0618 71.2793 26.7949C70.6738 26.5215 70.1595 26.1439 69.7363 25.6621C69.3132 25.1738 68.9909 24.6042 68.7695 23.9531C68.5482 23.3021 68.4375 22.5957 68.4375 21.834ZM70.791 21.6094V21.834C70.791 22.3092 70.8398 22.7585 70.9375 23.1816C71.0352 23.6048 71.1882 23.9759 71.3965 24.2949C71.6048 24.6139 71.8717 24.8646 72.1973 25.0469C72.5228 25.2292 72.9102 25.3203 73.3594 25.3203C73.7956 25.3203 74.1732 25.2292 74.4922 25.0469C74.8177 24.8646 75.0846 24.6139 75.293 24.2949C75.5013 23.9759 75.6543 23.6048 75.752 23.1816C75.8561 22.7585 75.9082 22.3092 75.9082 21.834V21.6094C75.9082 21.1406 75.8561 20.6979 75.752 20.2812C75.6543 19.8581 75.498 19.4837 75.2832 19.1582C75.0749 18.8327 74.8079 18.5788 74.4824 18.3965C74.1634 18.2077 73.7826 18.1133 73.3398 18.1133C72.8971 18.1133 72.513 18.2077 72.1875 18.3965C71.8685 18.5788 71.6048 18.8327 71.3965 19.1582C71.1882 19.4837 71.0352 19.8581 70.9375 20.2812C70.8398 20.6979 70.791 21.1406 70.791 21.6094ZM91.7188 12.7812V27H89.2773V14.7344H82.959V27H80.5176V12.7812H91.7188ZM100.068 21.6973H96.3672V19.7539H100.068C100.713 19.7539 101.234 19.6497 101.631 19.4414C102.028 19.2331 102.318 18.9466 102.5 18.582C102.689 18.2109 102.783 17.7878 102.783 17.3125C102.783 16.8633 102.689 16.4434 102.5 16.0527C102.318 15.6556 102.028 15.3366 101.631 15.0957C101.234 14.8548 100.713 14.7344 100.068 14.7344H97.1191V27H94.668V12.7812H100.068C101.169 12.7812 102.103 12.9766 102.871 13.3672C103.646 13.7513 104.235 14.2852 104.639 14.9688C105.042 15.6458 105.244 16.4206 105.244 17.293C105.244 18.2109 105.042 18.9987 104.639 19.6562C104.235 20.3138 103.646 20.8184 102.871 21.1699C102.103 21.5215 101.169 21.6973 100.068 21.6973ZM109.863 23.0059L116.172 12.7812H118.623V27H116.172V16.7656L109.863 27H107.422V12.7812H109.863V23.0059ZM126.436 20.1836H124.463V18.7871H126.162C126.768 18.7871 127.259 18.6992 127.637 18.5234C128.014 18.3411 128.288 18.0905 128.457 17.7715C128.633 17.446 128.721 17.0684 128.721 16.6387C128.721 16.2546 128.623 15.903 128.428 15.584C128.239 15.265 127.946 15.0111 127.549 14.8223C127.152 14.627 126.641 14.5293 126.016 14.5293C125.547 14.5293 125.12 14.6139 124.736 14.7832C124.352 14.9525 124.046 15.1901 123.818 15.4961C123.597 15.8021 123.486 16.1634 123.486 16.5801H121.035C121.035 15.9616 121.165 15.4082 121.426 14.9199C121.693 14.4251 122.054 14.0052 122.51 13.6602C122.972 13.3151 123.503 13.0514 124.102 12.8691C124.707 12.6803 125.345 12.5859 126.016 12.5859C126.797 12.5859 127.503 12.6738 128.135 12.8496C128.766 13.0189 129.31 13.2728 129.766 13.6113C130.221 13.9499 130.57 14.373 130.811 14.8809C131.051 15.3822 131.172 15.9648 131.172 16.6289C131.172 17.1172 131.058 17.5762 130.83 18.0059C130.609 18.4355 130.29 18.8132 129.873 19.1387C129.456 19.4642 128.955 19.7214 128.369 19.9102C127.79 20.0924 127.145 20.1836 126.436 20.1836ZM124.463 19.334H126.436C127.223 19.334 127.923 19.4154 128.535 19.5781C129.147 19.7409 129.665 19.9785 130.088 20.291C130.511 20.6035 130.833 20.9909 131.055 21.4531C131.276 21.9089 131.387 22.4329 131.387 23.0254C131.387 23.6895 131.253 24.2819 130.986 24.8027C130.726 25.3171 130.355 25.7533 129.873 26.1113C129.391 26.4694 128.822 26.7396 128.164 26.9219C127.513 27.1042 126.797 27.1953 126.016 27.1953C125.384 27.1953 124.759 27.1172 124.141 26.9609C123.529 26.7982 122.972 26.5508 122.471 26.2188C121.976 25.8802 121.579 25.4505 121.279 24.9297C120.98 24.4089 120.83 23.7839 120.83 23.0547H123.291C123.291 23.4583 123.405 23.8294 123.633 24.168C123.867 24.5 124.186 24.7669 124.59 24.9688C125 25.1641 125.475 25.2617 126.016 25.2617C126.634 25.2617 127.158 25.1641 127.588 24.9688C128.024 24.7734 128.356 24.5065 128.584 24.168C128.818 23.8294 128.936 23.4486 128.936 23.0254C128.936 22.6217 128.874 22.2734 128.75 21.9805C128.633 21.681 128.457 21.4401 128.223 21.2578C127.988 21.069 127.699 20.929 127.354 20.8379C127.008 20.7467 126.611 20.7012 126.162 20.7012H124.463V19.334Z" fill="#379BE4"/>
<line x1="1.20312" y1="1" x2="152.203" y2="1" stroke="#379BE4" stroke-width="2"/>
<path d="M2.20605 1C3.24432 3.98334 -2.27055 151.5 4.21093 164C10.6924 176.5 63.2158 168 69.2109 173C75.2061 178 77.2109 183.5 77.2109 183.5" stroke="#379BE4" stroke-width="2"/>
<path d="M151.203 1.5C150.165 4.48334 155.685 151.5 149.203 164C142.722 176.5 90.1982 168 84.2031 173C78.208 178 76.2031 183.5 76.2031 183.5" stroke="#379BE4" stroke-width="2"/>
<line x1="32.7031" y1="42" x2="32.7031" y2="112" stroke="#379BE4" stroke-width="5"/>
<line x1="21.7031" y1="42" x2="21.7031" y2="120" stroke="#379BE4" stroke-width="5"/>
<line x1="11.7031" y1="11" x2="11.7031" y2="130" stroke="#379BE4" stroke-width="5"/>
<line x1="139.703" y1="11" x2="139.703" y2="127" stroke="#379BE4" stroke-width="5"/>
<line x1="129.703" y1="42" x2="129.703" y2="120" stroke="#379BE4" stroke-width="5"/>
<line x1="119.703" y1="42" x2="119.703" y2="112" stroke="#379BE4" stroke-width="5"/>
<line x1="34.2031" y1="110" x2="122.203" y2="110" stroke="#379BE4" stroke-width="4"/>
<line x1="23.2031" y1="118" x2="132.203" y2="118" stroke="#379BE4" stroke-width="4"/>
<line x1="13.2031" y1="128" x2="142.203" y2="128" stroke="#379BE4" stroke-width="4"/>
<line x1="19.2031" y1="41.5" x2="35.2031" y2="41.5" stroke="#379BE4"/>
<line x1="117.203" y1="42.5" x2="132.203" y2="42.5" stroke="#379BE4"/>
<line x1="63.2031" y1="102.5" x2="89.2031" y2="102.5" stroke="#379BE4"/>
<line x1="57.2031" y1="98.5" x2="95.2031" y2="98.5" stroke="#379BE4"/>
<line x1="52.2031" y1="93.5" x2="101.203" y2="93.5" stroke="#379BE4"/>
<line x1="49.2031" y1="88.5" x2="104.203" y2="88.5" stroke="#379BE4"/>
<path d="M46.2031 82.5H106.203M45.2031 77.5H107.203" stroke="#379BE4"/>
<line x1="55.2031" y1="97.5" x2="97.2031" y2="97.5" stroke="#379BE4"/>
<line x1="50.2031" y1="92.5" x2="102.203" y2="92.5" stroke="#379BE4"/>
<line x1="47.2031" y1="87.5" x2="105.203" y2="87.5" stroke="#379BE4"/>
<line x1="46.2031" y1="81.5" x2="107.203" y2="81.5" stroke="#379BE4"/>
<line x1="44.2031" y1="72.5" x2="108.203" y2="72.5" stroke="#379BE4"/>
<line x1="46.2031" y1="67.5" x2="108.203" y2="67.5" stroke="#379BE4"/>
<line x1="46.2031" y1="61.5" x2="106.203" y2="61.5" stroke="#379BE4"/>
<line x1="49.2031" y1="56.5" x2="103.203" y2="56.5" stroke="#379BE4"/>
<line x1="45.2031" y1="71.5" x2="107.203" y2="71.5" stroke="#379BE4"/>
<line x1="46.2031" y1="66.5" x2="107.203" y2="66.5" stroke="#379BE4"/>
<line x1="47.2031" y1="60.5" x2="105.203" y2="60.5" stroke="#379BE4"/>
<line x1="50.2031" y1="55.5" x2="102.203" y2="55.5" stroke="#379BE4"/>
<line x1="55.2031" y1="49.5" x2="98.2031" y2="49.5" stroke="#379BE4"/>
<line x1="63.2031" y1="44.5" x2="90.2031" y2="44.5" stroke="#379BE4"/>
<line x1="62.2031" y1="45.5" x2="92.2031" y2="45.5" stroke="#379BE4"/>
<line x1="54.2031" y1="50.5" x2="99.2031" y2="50.5" stroke="#379BE4"/>
<line x1="44.2031" y1="76.5" x2="108.203" y2="76.5" stroke="#379BE4"/>
<line x1="66.2031" y1="103.5" x2="87.2031" y2="103.5" stroke="#379BE4"/>
<path d="M59.1184 128.392L76.4728 145.762L85.2186 137.008L93.9644 128.255" stroke="#379BE4" stroke-width="5"/>
<path d="M76.7031 136L70.2079 129.25H83.1983L76.7031 136Z" fill="#379BE4"/>
<path d="M50.498 150.781V165H48.0664V150.781H50.498ZM54.9609 150.781V152.734H43.6426V150.781H54.9609ZM61.8262 158.701V160.576H56.1621V158.701H61.8262ZM58.1738 154.434V165H55.8203V154.434H58.1738ZM60.0879 159.834V159.609C60.0879 158.848 60.1986 158.141 60.4199 157.49C60.6413 156.833 60.9635 156.263 61.3867 155.781C61.8099 155.293 62.3242 154.915 62.9297 154.648C63.5352 154.375 64.222 154.238 64.9902 154.238C65.7715 154.238 66.4648 154.375 67.0703 154.648C67.6823 154.915 68.1999 155.293 68.623 155.781C69.0462 156.263 69.3685 156.833 69.5898 157.49C69.8112 158.141 69.9219 158.848 69.9219 159.609V159.834C69.9219 160.596 69.8112 161.302 69.5898 161.953C69.3685 162.604 69.0462 163.174 68.623 163.662C68.2064 164.144 67.6921 164.521 67.0801 164.795C66.4746 165.062 65.7845 165.195 65.0098 165.195C64.235 165.195 63.5449 165.062 62.9395 164.795C62.334 164.521 61.8164 164.144 61.3867 163.662C60.9635 163.174 60.6413 162.604 60.4199 161.953C60.1986 161.302 60.0879 160.596 60.0879 159.834ZM62.4512 159.609V159.834C62.4512 160.309 62.5 160.758 62.5977 161.182C62.6953 161.605 62.8483 161.976 63.0566 162.295C63.265 162.614 63.5319 162.865 63.8574 163.047C64.1829 163.229 64.5671 163.32 65.0098 163.32C65.4525 163.32 65.8333 163.229 66.1523 163.047C66.4779 162.865 66.7448 162.614 66.9531 162.295C67.1615 161.976 67.3145 161.605 67.4121 161.182C67.5163 160.758 67.5684 160.309 67.5684 159.834V159.609C67.5684 159.141 67.5163 158.698 67.4121 158.281C67.3145 157.858 67.1615 157.484 66.9531 157.158C66.7448 156.833 66.4779 156.579 66.1523 156.396C65.8268 156.208 65.4395 156.113 64.9902 156.113C64.554 156.113 64.1732 156.208 63.8477 156.396C63.5286 156.579 63.265 156.833 63.0566 157.158C62.8483 157.484 62.6953 157.858 62.5977 158.281C62.5 158.698 62.4512 159.141 62.4512 159.609ZM78.1543 162.148L81.2988 154.434H83.3398L78.9551 165H77.3535L72.9785 154.434H75.0195L78.1543 162.148ZM74.4141 154.434V165H72.0605V154.434H74.4141ZM81.8945 165V154.434H84.2578V165H81.8945ZM91.5527 165.195C90.7715 165.195 90.0651 165.068 89.4336 164.814C88.8086 164.554 88.2747 164.193 87.832 163.73C87.3958 163.268 87.0605 162.725 86.8262 162.1C86.5918 161.475 86.4746 160.801 86.4746 160.078V159.688C86.4746 158.861 86.5951 158.112 86.8359 157.441C87.0768 156.771 87.4121 156.198 87.8418 155.723C88.2715 155.241 88.7793 154.873 89.3652 154.619C89.9512 154.365 90.5859 154.238 91.2695 154.238C92.0247 154.238 92.6855 154.365 93.252 154.619C93.8184 154.873 94.2871 155.231 94.6582 155.693C95.0358 156.149 95.3158 156.693 95.498 157.324C95.6868 157.956 95.7812 158.652 95.7812 159.414V160.42H87.6172V158.73H93.457V158.545C93.444 158.122 93.3594 157.725 93.2031 157.354C93.0534 156.982 92.8223 156.683 92.5098 156.455C92.1973 156.227 91.7806 156.113 91.2598 156.113C90.8691 156.113 90.5208 156.198 90.2148 156.367C89.9154 156.53 89.6647 156.768 89.4629 157.08C89.2611 157.393 89.1048 157.77 88.9941 158.213C88.89 158.649 88.8379 159.141 88.8379 159.688V160.078C88.8379 160.54 88.8997 160.97 89.0234 161.367C89.1536 161.758 89.3424 162.1 89.5898 162.393C89.8372 162.686 90.1367 162.917 90.4883 163.086C90.8398 163.249 91.2402 163.33 91.6895 163.33C92.2559 163.33 92.7604 163.216 93.2031 162.988C93.6458 162.76 94.0299 162.438 94.3555 162.021L95.5957 163.223C95.3678 163.555 95.0716 163.874 94.707 164.18C94.3424 164.479 93.8965 164.723 93.3691 164.912C92.8483 165.101 92.2428 165.195 91.5527 165.195ZM104.834 158.848V160.703H99.3652V158.848H104.834ZM100.049 154.434V165H97.6953V154.434H100.049ZM106.533 154.434V165H104.18V154.434H106.533ZM110.791 157.793H113.906C114.818 157.793 115.592 157.946 116.23 158.252C116.868 158.558 117.354 158.984 117.686 159.531C118.024 160.072 118.193 160.69 118.193 161.387C118.193 161.901 118.099 162.38 117.91 162.822C117.721 163.258 117.441 163.639 117.07 163.965C116.706 164.29 116.257 164.544 115.723 164.727C115.195 164.909 114.59 165 113.906 165H109.229V154.434H111.592V163.135H113.906C114.375 163.135 114.749 163.053 115.029 162.891C115.309 162.728 115.511 162.516 115.635 162.256C115.765 161.995 115.83 161.719 115.83 161.426C115.83 161.126 115.765 160.843 115.635 160.576C115.511 160.309 115.309 160.091 115.029 159.922C114.749 159.753 114.375 159.668 113.906 159.668H110.791V157.793Z" fill="#379BE4"/>
<path d="M27.0703 23.0059L33.3789 12.7812H35.8301V27H33.3789V16.7656L27.0703 27H24.6289V12.7812H27.0703V23.0059ZM45.752 20.8477V22.7031H40.2832V20.8477H45.752ZM40.9668 16.4336V27H38.6133V16.4336H40.9668ZM47.4512 16.4336V27H45.0977V16.4336H47.4512ZM56.9922 16.4336V18.3086H52.3828V27H50.0293V16.4336H56.9922ZM62.8223 27.1953C62.041 27.1953 61.3346 27.0684 60.7031 26.8145C60.0781 26.554 59.5443 26.1927 59.1016 25.7305C58.6654 25.2682 58.3301 24.7246 58.0957 24.0996C57.8613 23.4746 57.7441 22.8008 57.7441 22.0781V21.6875C57.7441 20.8607 57.8646 20.112 58.1055 19.4414C58.3464 18.7708 58.6816 18.1979 59.1113 17.7227C59.541 17.2409 60.0488 16.873 60.6348 16.6191C61.2207 16.3652 61.8555 16.2383 62.5391 16.2383C63.2943 16.2383 63.9551 16.3652 64.5215 16.6191C65.0879 16.873 65.5566 17.2311 65.9277 17.6934C66.3053 18.1491 66.5853 18.6927 66.7676 19.3242C66.9564 19.9557 67.0508 20.6523 67.0508 21.4141V22.4199H58.8867V20.7305H64.7266V20.5449C64.7135 20.1217 64.6289 19.7246 64.4727 19.3535C64.3229 18.9824 64.0918 18.6829 63.7793 18.4551C63.4668 18.2272 63.0501 18.1133 62.5293 18.1133C62.1387 18.1133 61.7904 18.1979 61.4844 18.3672C61.1849 18.5299 60.9342 18.7676 60.7324 19.0801C60.5306 19.3926 60.3743 19.7702 60.2637 20.2129C60.1595 20.6491 60.1074 21.1406 60.1074 21.6875V22.0781C60.1074 22.5404 60.1693 22.9701 60.293 23.3672C60.4232 23.7578 60.612 24.0996 60.8594 24.3926C61.1068 24.6855 61.4062 24.9167 61.7578 25.0859C62.1094 25.2487 62.5098 25.3301 62.959 25.3301C63.5254 25.3301 64.0299 25.2161 64.4727 24.9883C64.9154 24.7604 65.2995 24.4382 65.625 24.0215L66.8652 25.2227C66.6374 25.5547 66.3411 25.8737 65.9766 26.1797C65.612 26.4792 65.166 26.7233 64.6387 26.9121C64.1178 27.1009 63.5124 27.1953 62.8223 27.1953ZM68.4375 21.834V21.6094C68.4375 20.8477 68.5482 20.1413 68.7695 19.4902C68.9909 18.8327 69.3099 18.263 69.7266 17.7812C70.1497 17.293 70.6641 16.9154 71.2695 16.6484C71.8815 16.375 72.5716 16.2383 73.3398 16.2383C74.1146 16.2383 74.8047 16.375 75.4102 16.6484C76.0221 16.9154 76.5397 17.293 76.9629 17.7812C77.3861 18.263 77.7083 18.8327 77.9297 19.4902C78.151 20.1413 78.2617 20.8477 78.2617 21.6094V21.834C78.2617 22.5957 78.151 23.3021 77.9297 23.9531C77.7083 24.6042 77.3861 25.1738 76.9629 25.6621C76.5397 26.1439 76.0254 26.5215 75.4199 26.7949C74.8145 27.0618 74.1276 27.1953 73.3594 27.1953C72.5846 27.1953 71.8913 27.0618 71.2793 26.7949C70.6738 26.5215 70.1595 26.1439 69.7363 25.6621C69.3132 25.1738 68.9909 24.6042 68.7695 23.9531C68.5482 23.3021 68.4375 22.5957 68.4375 21.834ZM70.791 21.6094V21.834C70.791 22.3092 70.8398 22.7585 70.9375 23.1816C71.0352 23.6048 71.1882 23.9759 71.3965 24.2949C71.6048 24.6139 71.8717 24.8646 72.1973 25.0469C72.5228 25.2292 72.9102 25.3203 73.3594 25.3203C73.7956 25.3203 74.1732 25.2292 74.4922 25.0469C74.8177 24.8646 75.0846 24.6139 75.293 24.2949C75.5013 23.9759 75.6543 23.6048 75.752 23.1816C75.8561 22.7585 75.9082 22.3092 75.9082 21.834V21.6094C75.9082 21.1406 75.8561 20.6979 75.752 20.2812C75.6543 19.8581 75.498 19.4837 75.2832 19.1582C75.0749 18.8327 74.8079 18.5788 74.4824 18.3965C74.1634 18.2077 73.7826 18.1133 73.3398 18.1133C72.8971 18.1133 72.513 18.2077 72.1875 18.3965C71.8685 18.5788 71.6048 18.8327 71.3965 19.1582C71.1882 19.4837 71.0352 19.8581 70.9375 20.2812C70.8398 20.6979 70.791 21.1406 70.791 21.6094ZM91.7188 12.7812V27H89.2773V14.7344H82.959V27H80.5176V12.7812H91.7188ZM100.068 21.6973H96.3672V19.7539H100.068C100.713 19.7539 101.234 19.6497 101.631 19.4414C102.028 19.2331 102.318 18.9466 102.5 18.582C102.689 18.2109 102.783 17.7878 102.783 17.3125C102.783 16.8633 102.689 16.4434 102.5 16.0527C102.318 15.6556 102.028 15.3366 101.631 15.0957C101.234 14.8548 100.713 14.7344 100.068 14.7344H97.1191V27H94.668V12.7812H100.068C101.169 12.7812 102.103 12.9766 102.871 13.3672C103.646 13.7513 104.235 14.2852 104.639 14.9688C105.042 15.6458 105.244 16.4206 105.244 17.293C105.244 18.2109 105.042 18.9987 104.639 19.6562C104.235 20.3138 103.646 20.8184 102.871 21.1699C102.103 21.5215 101.169 21.6973 100.068 21.6973ZM109.863 23.0059L116.172 12.7812H118.623V27H116.172V16.7656L109.863 27H107.422V12.7812H109.863V23.0059ZM126.436 20.1836H124.463V18.7871H126.162C126.768 18.7871 127.259 18.6992 127.637 18.5234C128.014 18.3411 128.288 18.0905 128.457 17.7715C128.633 17.446 128.721 17.0684 128.721 16.6387C128.721 16.2546 128.623 15.903 128.428 15.584C128.239 15.265 127.946 15.0111 127.549 14.8223C127.152 14.627 126.641 14.5293 126.016 14.5293C125.547 14.5293 125.12 14.6139 124.736 14.7832C124.352 14.9525 124.046 15.1901 123.818 15.4961C123.597 15.8021 123.486 16.1634 123.486 16.5801H121.035C121.035 15.9616 121.165 15.4082 121.426 14.9199C121.693 14.4251 122.054 14.0052 122.51 13.6602C122.972 13.3151 123.503 13.0514 124.102 12.8691C124.707 12.6803 125.345 12.5859 126.016 12.5859C126.797 12.5859 127.503 12.6738 128.135 12.8496C128.766 13.0189 129.31 13.2728 129.766 13.6113C130.221 13.9499 130.57 14.373 130.811 14.8809C131.051 15.3822 131.172 15.9648 131.172 16.6289C131.172 17.1172 131.058 17.5762 130.83 18.0059C130.609 18.4355 130.29 18.8132 129.873 19.1387C129.456 19.4642 128.955 19.7214 128.369 19.9102C127.79 20.0924 127.145 20.1836 126.436 20.1836ZM124.463 19.334H126.436C127.223 19.334 127.923 19.4154 128.535 19.5781C129.147 19.7409 129.665 19.9785 130.088 20.291C130.511 20.6035 130.833 20.9909 131.055 21.4531C131.276 21.9089 131.387 22.4329 131.387 23.0254C131.387 23.6895 131.253 24.2819 130.986 24.8027C130.726 25.3171 130.355 25.7533 129.873 26.1113C129.391 26.4694 128.822 26.7396 128.164 26.9219C127.513 27.1042 126.797 27.1953 126.016 27.1953C125.384 27.1953 124.759 27.1172 124.141 26.9609C123.529 26.7982 122.972 26.5508 122.471 26.2188C121.976 25.8802 121.579 25.4505 121.279 24.9297C120.98 24.4089 120.83 23.7839 120.83 23.0547H123.291C123.291 23.4583 123.405 23.8294 123.633 24.168C123.867 24.5 124.186 24.7669 124.59 24.9688C125 25.1641 125.475 25.2617 126.016 25.2617C126.634 25.2617 127.158 25.1641 127.588 24.9688C128.024 24.7734 128.356 24.5065 128.584 24.168C128.818 23.8294 128.936 23.4486 128.936 23.0254C128.936 22.6217 128.874 22.2734 128.75 21.9805C128.633 21.681 128.457 21.4401 128.223 21.2578C127.988 21.069 127.699 20.929 127.354 20.8379C127.008 20.7467 126.611 20.7012 126.162 20.7012H124.463V19.334Z" fill="#379BE4"/>
<line x1="1.20312" y1="1" x2="152.203" y2="1" stroke="#379BE4" stroke-width="2"/>
<path d="M2.20605 1C3.24432 3.98334 -2.27055 151.5 4.21093 164C10.6924 176.5 63.2158 168 69.2109 173C75.2061 178 77.2109 183.5 77.2109 183.5" stroke="#379BE4" stroke-width="2"/>
<path d="M151.203 1.5C150.165 4.48334 155.685 151.5 149.203 164C142.722 176.5 90.1982 168 84.2031 173C78.208 178 76.2031 183.5 76.2031 183.5" stroke="#379BE4" stroke-width="2"/>
<line x1="32.7031" y1="42" x2="32.7031" y2="112" stroke="#379BE4" stroke-width="5"/>
<line x1="21.7031" y1="42" x2="21.7031" y2="120" stroke="#379BE4" stroke-width="5"/>
<line x1="139.703" y1="11" x2="139.703" y2="127" stroke="#379BE4" stroke-width="5"/>
<line x1="129.703" y1="42" x2="129.703" y2="120" stroke="#379BE4" stroke-width="5"/>
<line x1="119.703" y1="42" x2="119.703" y2="112" stroke="#379BE4" stroke-width="5"/>
<line x1="34.2031" y1="110" x2="122.203" y2="110" stroke="#379BE4" stroke-width="4"/>
<line x1="23.2031" y1="118" x2="132.203" y2="118" stroke="#379BE4" stroke-width="4"/>
<line x1="13.2031" y1="128" x2="142.203" y2="128" stroke="#379BE4" stroke-width="4"/>
<line x1="19.2031" y1="41.5" x2="35.2031" y2="41.5" stroke="#379BE4"/>
<line x1="63.2031" y1="102.5" x2="89.2031" y2="102.5" stroke="#379BE4"/>
<line x1="57.2031" y1="98.5" x2="95.2031" y2="98.5" stroke="#379BE4"/>
<line x1="52.2031" y1="93.5" x2="101.203" y2="93.5" stroke="#379BE4"/>
<line x1="49.2031" y1="88.5" x2="104.203" y2="88.5" stroke="#379BE4"/>
<path d="M46.2031 82.5H106.203M45.2031 77.5H107.203" stroke="#379BE4"/>
<line x1="55.2031" y1="97.5" x2="97.2031" y2="97.5" stroke="#379BE4"/>
<line x1="50.2031" y1="92.5" x2="102.203" y2="92.5" stroke="#379BE4"/>
<line x1="47.2031" y1="87.5" x2="105.203" y2="87.5" stroke="#379BE4"/>
<line x1="46.2031" y1="81.5" x2="107.203" y2="81.5" stroke="#379BE4"/>
<line x1="44.2031" y1="72.5" x2="108.203" y2="72.5" stroke="#379BE4"/>
<line x1="46.2031" y1="67.5" x2="108.203" y2="67.5" stroke="#379BE4"/>
<line x1="46.2031" y1="61.5" x2="106.203" y2="61.5" stroke="#379BE4"/>
<line x1="49.2031" y1="56.5" x2="103.203" y2="56.5" stroke="#379BE4"/>
<line x1="45.2031" y1="71.5" x2="107.203" y2="71.5" stroke="#379BE4"/>
<line x1="46.2031" y1="66.5" x2="107.203" y2="66.5" stroke="#379BE4"/>
<line x1="47.2031" y1="60.5" x2="105.203" y2="60.5" stroke="#379BE4"/>
<line x1="50.2031" y1="55.5" x2="102.203" y2="55.5" stroke="#379BE4"/>
<line x1="55.2031" y1="49.5" x2="98.2031" y2="49.5" stroke="#379BE4"/>
<line x1="63.2031" y1="44.5" x2="90.2031" y2="44.5" stroke="#379BE4"/>
<line x1="62.2031" y1="45.5" x2="92.2031" y2="45.5" stroke="#379BE4"/>
<line x1="54.2031" y1="50.5" x2="99.2031" y2="50.5" stroke="#379BE4"/>
<line x1="44.2031" y1="76.5" x2="108.203" y2="76.5" stroke="#379BE4"/>
<line x1="66.2031" y1="103.5" x2="87.2031" y2="103.5" stroke="#379BE4"/>
<path d="M59.1184 128.392L76.4728 145.762L85.2186 137.008L93.9644 128.255" stroke="#379BE4" stroke-width="5"/>
<path d="M76.7031 136L70.2079 129.25H83.1983L76.7031 136Z" fill="#379BE4"/>
<path d="M50.498 150.781V165H48.0664V150.781H50.498ZM54.9609 150.781V152.734H43.6426V150.781H54.9609ZM61.8262 158.701V160.576H56.1621V158.701H61.8262ZM58.1738 154.434V165H55.8203V154.434H58.1738ZM60.0879 159.834V159.609C60.0879 158.848 60.1986 158.141 60.4199 157.49C60.6413 156.833 60.9635 156.263 61.3867 155.781C61.8099 155.293 62.3242 154.915 62.9297 154.648C63.5352 154.375 64.222 154.238 64.9902 154.238C65.7715 154.238 66.4648 154.375 67.0703 154.648C67.6823 154.915 68.1999 155.293 68.623 155.781C69.0462 156.263 69.3685 156.833 69.5898 157.49C69.8112 158.141 69.9219 158.848 69.9219 159.609V159.834C69.9219 160.596 69.8112 161.302 69.5898 161.953C69.3685 162.604 69.0462 163.174 68.623 163.662C68.2064 164.144 67.6921 164.521 67.0801 164.795C66.4746 165.062 65.7845 165.195 65.0098 165.195C64.235 165.195 63.5449 165.062 62.9395 164.795C62.334 164.521 61.8164 164.144 61.3867 163.662C60.9635 163.174 60.6413 162.604 60.4199 161.953C60.1986 161.302 60.0879 160.596 60.0879 159.834ZM62.4512 159.609V159.834C62.4512 160.309 62.5 160.758 62.5977 161.182C62.6953 161.605 62.8483 161.976 63.0566 162.295C63.265 162.614 63.5319 162.865 63.8574 163.047C64.1829 163.229 64.5671 163.32 65.0098 163.32C65.4525 163.32 65.8333 163.229 66.1523 163.047C66.4779 162.865 66.7448 162.614 66.9531 162.295C67.1615 161.976 67.3145 161.605 67.4121 161.182C67.5163 160.758 67.5684 160.309 67.5684 159.834V159.609C67.5684 159.141 67.5163 158.698 67.4121 158.281C67.3145 157.858 67.1615 157.484 66.9531 157.158C66.7448 156.833 66.4779 156.579 66.1523 156.396C65.8268 156.208 65.4395 156.113 64.9902 156.113C64.554 156.113 64.1732 156.208 63.8477 156.396C63.5286 156.579 63.265 156.833 63.0566 157.158C62.8483 157.484 62.6953 157.858 62.5977 158.281C62.5 158.698 62.4512 159.141 62.4512 159.609ZM78.1543 162.148L81.2988 154.434H83.3398L78.9551 165H77.3535L72.9785 154.434H75.0195L78.1543 162.148ZM74.4141 154.434V165H72.0605V154.434H74.4141ZM81.8945 165V154.434H84.2578V165H81.8945ZM91.5527 165.195C90.7715 165.195 90.0651 165.068 89.4336 164.814C88.8086 164.554 88.2747 164.193 87.832 163.73C87.3958 163.268 87.0605 162.725 86.8262 162.1C86.5918 161.475 86.4746 160.801 86.4746 160.078V159.688C86.4746 158.861 86.5951 158.112 86.8359 157.441C87.0768 156.771 87.4121 156.198 87.8418 155.723C88.2715 155.241 88.7793 154.873 89.3652 154.619C89.9512 154.365 90.5859 154.238 91.2695 154.238C92.0247 154.238 92.6855 154.365 93.252 154.619C93.8184 154.873 94.2871 155.231 94.6582 155.693C95.0358 156.149 95.3158 156.693 95.498 157.324C95.6868 157.956 95.7812 158.652 95.7812 159.414V160.42H87.6172V158.73H93.457V158.545C93.444 158.122 93.3594 157.725 93.2031 157.354C93.0534 156.982 92.8223 156.683 92.5098 156.455C92.1973 156.227 91.7806 156.113 91.2598 156.113C90.8691 156.113 90.5208 156.198 90.2148 156.367C89.9154 156.53 89.6647 156.768 89.4629 157.08C89.2611 157.393 89.1048 157.77 88.9941 158.213C88.89 158.649 88.8379 159.141 88.8379 159.688V160.078C88.8379 160.54 88.8997 160.97 89.0234 161.367C89.1536 161.758 89.3424 162.1 89.5898 162.393C89.8372 162.686 90.1367 162.917 90.4883 163.086C90.8398 163.249 91.2402 163.33 91.6895 163.33C92.2559 163.33 92.7604 163.216 93.2031 162.988C93.6458 162.76 94.0299 162.438 94.3555 162.021L95.5957 163.223C95.3678 163.555 95.0716 163.874 94.707 164.18C94.3424 164.479 93.8965 164.723 93.3691 164.912C92.8483 165.101 92.2428 165.195 91.5527 165.195ZM104.834 158.848V160.703H99.3652V158.848H104.834ZM100.049 154.434V165H97.6953V154.434H100.049ZM106.533 154.434V165H104.18V154.434H106.533ZM110.791 157.793H113.906C114.818 157.793 115.592 157.946 116.23 158.252C116.868 158.558 117.354 158.984 117.686 159.531C118.024 160.072 118.193 160.69 118.193 161.387C118.193 161.901 118.099 162.38 117.91 162.822C117.721 163.258 117.441 163.639 117.07 163.965C116.706 164.29 116.257 164.544 115.723 164.727C115.195 164.909 114.59 165 113.906 165H109.229V154.434H111.592V163.135H113.906C114.375 163.135 114.749 163.053 115.029 162.891C115.309 162.728 115.511 162.516 115.635 162.256C115.765 161.995 115.83 161.719 115.83 161.426C115.83 161.126 115.765 160.843 115.635 160.576C115.511 160.309 115.309 160.091 115.029 159.922C114.749 159.753 114.375 159.668 113.906 159.668H110.791V157.793Z" fill="#379BE4"/>
<path d="M27.0703 23.0059L33.3789 12.7812H35.8301V27H33.3789V16.7656L27.0703 27H24.6289V12.7812H27.0703V23.0059ZM45.752 20.8477V22.7031H40.2832V20.8477H45.752ZM40.9668 16.4336V27H38.6133V16.4336H40.9668ZM47.4512 16.4336V27H45.0977V16.4336H47.4512ZM56.9922 16.4336V18.3086H52.3828V27H50.0293V16.4336H56.9922ZM62.8223 27.1953C62.041 27.1953 61.3346 27.0684 60.7031 26.8145C60.0781 26.554 59.5443 26.1927 59.1016 25.7305C58.6654 25.2682 58.3301 24.7246 58.0957 24.0996C57.8613 23.4746 57.7441 22.8008 57.7441 22.0781V21.6875C57.7441 20.8607 57.8646 20.112 58.1055 19.4414C58.3464 18.7708 58.6816 18.1979 59.1113 17.7227C59.541 17.2409 60.0488 16.873 60.6348 16.6191C61.2207 16.3652 61.8555 16.2383 62.5391 16.2383C63.2943 16.2383 63.9551 16.3652 64.5215 16.6191C65.0879 16.873 65.5566 17.2311 65.9277 17.6934C66.3053 18.1491 66.5853 18.6927 66.7676 19.3242C66.9564 19.9557 67.0508 20.6523 67.0508 21.4141V22.4199H58.8867V20.7305H64.7266V20.5449C64.7135 20.1217 64.6289 19.7246 64.4727 19.3535C64.3229 18.9824 64.0918 18.6829 63.7793 18.4551C63.4668 18.2272 63.0501 18.1133 62.5293 18.1133C62.1387 18.1133 61.7904 18.1979 61.4844 18.3672C61.1849 18.5299 60.9342 18.7676 60.7324 19.0801C60.5306 19.3926 60.3743 19.7702 60.2637 20.2129C60.1595 20.6491 60.1074 21.1406 60.1074 21.6875V22.0781C60.1074 22.5404 60.1693 22.9701 60.293 23.3672C60.4232 23.7578 60.612 24.0996 60.8594 24.3926C61.1068 24.6855 61.4062 24.9167 61.7578 25.0859C62.1094 25.2487 62.5098 25.3301 62.959 25.3301C63.5254 25.3301 64.0299 25.2161 64.4727 24.9883C64.9154 24.7604 65.2995 24.4382 65.625 24.0215L66.8652 25.2227C66.6374 25.5547 66.3411 25.8737 65.9766 26.1797C65.612 26.4792 65.166 26.7233 64.6387 26.9121C64.1178 27.1009 63.5124 27.1953 62.8223 27.1953ZM68.4375 21.834V21.6094C68.4375 20.8477 68.5482 20.1413 68.7695 19.4902C68.9909 18.8327 69.3099 18.263 69.7266 17.7812C70.1497 17.293 70.6641 16.9154 71.2695 16.6484C71.8815 16.375 72.5716 16.2383 73.3398 16.2383C74.1146 16.2383 74.8047 16.375 75.4102 16.6484C76.0221 16.9154 76.5397 17.293 76.9629 17.7812C77.3861 18.263 77.7083 18.8327 77.9297 19.4902C78.151 20.1413 78.2617 20.8477 78.2617 21.6094V21.834C78.2617 22.5957 78.151 23.3021 77.9297 23.9531C77.7083 24.6042 77.3861 25.1738 76.9629 25.6621C76.5397 26.1439 76.0254 26.5215 75.4199 26.7949C74.8145 27.0618 74.1276 27.1953 73.3594 27.1953C72.5846 27.1953 71.8913 27.0618 71.2793 26.7949C70.6738 26.5215 70.1595 26.1439 69.7363 25.6621C69.3132 25.1738 68.9909 24.6042 68.7695 23.9531C68.5482 23.3021 68.4375 22.5957 68.4375 21.834ZM70.791 21.6094V21.834C70.791 22.3092 70.8398 22.7585 70.9375 23.1816C71.0352 23.6048 71.1882 23.9759 71.3965 24.2949C71.6048 24.6139 71.8717 24.8646 72.1973 25.0469C72.5228 25.2292 72.9102 25.3203 73.3594 25.3203C73.7956 25.3203 74.1732 25.2292 74.4922 25.0469C74.8177 24.8646 75.0846 24.6139 75.293 24.2949C75.5013 23.9759 75.6543 23.6048 75.752 23.1816C75.8561 22.7585 75.9082 22.3092 75.9082 21.834V21.6094C75.9082 21.1406 75.8561 20.6979 75.752 20.2812C75.6543 19.8581 75.498 19.4837 75.2832 19.1582C75.0749 18.8327 74.8079 18.5788 74.4824 18.3965C74.1634 18.2077 73.7826 18.1133 73.3398 18.1133C72.8971 18.1133 72.513 18.2077 72.1875 18.3965C71.8685 18.5788 71.6048 18.8327 71.3965 19.1582C71.1882 19.4837 71.0352 19.8581 70.9375 20.2812C70.8398 20.6979 70.791 21.1406 70.791 21.6094ZM91.7188 12.7812V27H89.2773V14.7344H82.959V27H80.5176V12.7812H91.7188ZM100.068 21.6973H96.3672V19.7539H100.068C100.713 19.7539 101.234 19.6497 101.631 19.4414C102.028 19.2331 102.318 18.9466 102.5 18.582C102.689 18.2109 102.783 17.7878 102.783 17.3125C102.783 16.8633 102.689 16.4434 102.5 16.0527C102.318 15.6556 102.028 15.3366 101.631 15.0957C101.234 14.8548 100.713 14.7344 100.068 14.7344H97.1191V27H94.668V12.7812H100.068C101.169 12.7812 102.103 12.9766 102.871 13.3672C103.646 13.7513 104.235 14.2852 104.639 14.9688C105.042 15.6458 105.244 16.4206 105.244 17.293C105.244 18.2109 105.042 18.9987 104.639 19.6562C104.235 20.3138 103.646 20.8184 102.871 21.1699C102.103 21.5215 101.169 21.6973 100.068 21.6973ZM109.863 23.0059L116.172 12.7812H118.623V27H116.172V16.7656L109.863 27H107.422V12.7812H109.863V23.0059ZM126.436 20.1836H124.463V18.7871H126.162C126.768 18.7871 127.259 18.6992 127.637 18.5234C128.014 18.3411 128.288 18.0905 128.457 17.7715C128.633 17.446 128.721 17.0684 128.721 16.6387C128.721 16.2546 128.623 15.903 128.428 15.584C128.239 15.265 127.946 15.0111 127.549 14.8223C127.152 14.627 126.641 14.5293 126.016 14.5293C125.547 14.5293 125.12 14.6139 124.736 14.7832C124.352 14.9525 124.046 15.1901 123.818 15.4961C123.597 15.8021 123.486 16.1634 123.486 16.5801H121.035C121.035 15.9616 121.165 15.4082 121.426 14.9199C121.693 14.4251 122.054 14.0052 122.51 13.6602C122.972 13.3151 123.503 13.0514 124.102 12.8691C124.707 12.6803 125.345 12.5859 126.016 12.5859C126.797 12.5859 127.503 12.6738 128.135 12.8496C128.766 13.0189 129.31 13.2728 129.766 13.6113C130.221 13.9499 130.57 14.373 130.811 14.8809C131.051 15.3822 131.172 15.9648 131.172 16.6289C131.172 17.1172 131.058 17.5762 130.83 18.0059C130.609 18.4355 130.29 18.8132 129.873 19.1387C129.456 19.4642 128.955 19.7214 128.369 19.9102C127.79 20.0924 127.145 20.1836 126.436 20.1836ZM124.463 19.334H126.436C127.223 19.334 127.923 19.4154 128.535 19.5781C129.147 19.7409 129.665 19.9785 130.088 20.291C130.511 20.6035 130.833 20.9909 131.055 21.4531C131.276 21.9089 131.387 22.4329 131.387 23.0254C131.387 23.6895 131.253 24.2819 130.986 24.8027C130.726 25.3171 130.355 25.7533 129.873 26.1113C129.391 26.4694 128.822 26.7396 128.164 26.9219C127.513 27.1042 126.797 27.1953 126.016 27.1953C125.384 27.1953 124.759 27.1172 124.141 26.9609C123.529 26.7982 122.972 26.5508 122.471 26.2188C121.976 25.8802 121.579 25.4505 121.279 24.9297C120.98 24.4089 120.83 23.7839 120.83 23.0547H123.291C123.291 23.4583 123.405 23.8294 123.633 24.168C123.867 24.5 124.186 24.7669 124.59 24.9688C125 25.1641 125.475 25.2617 126.016 25.2617C126.634 25.2617 127.158 25.1641 127.588 24.9688C128.024 24.7734 128.356 24.5065 128.584 24.168C128.818 23.8294 128.936 23.4486 128.936 23.0254C128.936 22.6217 128.874 22.2734 128.75 21.9805C128.633 21.681 128.457 21.4401 128.223 21.2578C127.988 21.069 127.699 20.929 127.354 20.8379C127.008 20.7467 126.611 20.7012 126.162 20.7012H124.463V19.334Z" fill="#379BE4"/>
<line x1="1.20312" y1="1" x2="152.203" y2="1" stroke="#379BE4" stroke-width="2"/>
<path d="M2.20605 1C3.24432 3.98334 -2.27055 151.5 4.21093 164C10.6924 176.5 63.2158 168 69.2109 173C75.2061 178 77.2109 183.5 77.2109 183.5" stroke="#379BE4" stroke-width="2"/>
<path d="M151.203 1.5C150.165 4.48334 155.685 151.5 149.203 164C142.722 176.5 90.1982 168 84.2031 173C78.208 178 76.2031 183.5 76.2031 183.5" stroke="#379BE4" stroke-width="2"/>
<line x1="32.7031" y1="42" x2="32.7031" y2="112" stroke="#379BE4" stroke-width="5"/>
<line x1="21.7031" y1="42" x2="21.7031" y2="120" stroke="#379BE4" stroke-width="5"/>
<line x1="139.703" y1="11" x2="139.703" y2="127" stroke="#379BE4" stroke-width="5"/>
<line x1="129.703" y1="42" x2="129.703" y2="120" stroke="#379BE4" stroke-width="5"/>
<line x1="119.703" y1="42" x2="119.703" y2="112" stroke="#379BE4" stroke-width="5"/>
<line x1="34.2031" y1="110" x2="122.203" y2="110" stroke="#379BE4" stroke-width="4"/>
<line x1="23.2031" y1="118" x2="132.203" y2="118" stroke="#379BE4" stroke-width="4"/>
<line x1="13.2031" y1="128" x2="142.203" y2="128" stroke="#379BE4" stroke-width="4"/>
<line x1="19.2031" y1="41.5" x2="35.2031" y2="41.5" stroke="#379BE4"/>
<line x1="117.203" y1="42.5" x2="132.203" y2="42.5" stroke="#379BE4"/>
<line x1="63.2031" y1="102.5" x2="89.2031" y2="102.5" stroke="#379BE4"/>
<line x1="57.2031" y1="98.5" x2="95.2031" y2="98.5" stroke="#379BE4"/>
<line x1="52.2031" y1="93.5" x2="101.203" y2="93.5" stroke="#379BE4"/>
<line x1="49.2031" y1="88.5" x2="104.203" y2="88.5" stroke="#379BE4"/>
<path d="M46.2031 82.5H106.203M45.2031 77.5H107.203" stroke="#379BE4"/>
<line x1="55.2031" y1="97.5" x2="97.2031" y2="97.5" stroke="#379BE4"/>
<line x1="50.2031" y1="92.5" x2="102.203" y2="92.5" stroke="#379BE4"/>
<line x1="47.2031" y1="87.5" x2="105.203" y2="87.5" stroke="#379BE4"/>
<line x1="46.2031" y1="81.5" x2="107.203" y2="81.5" stroke="#379BE4"/>
<line x1="44.2031" y1="72.5" x2="108.203" y2="72.5" stroke="#379BE4"/>
<line x1="46.2031" y1="67.5" x2="108.203" y2="67.5" stroke="#379BE4"/>
<line x1="46.2031" y1="61.5" x2="106.203" y2="61.5" stroke="#379BE4"/>
<line x1="49.2031" y1="56.5" x2="103.203" y2="56.5" stroke="#379BE4"/>
<line x1="45.2031" y1="71.5" x2="107.203" y2="71.5" stroke="#379BE4"/>
<line x1="46.2031" y1="66.5" x2="107.203" y2="66.5" stroke="#379BE4"/>
<line x1="47.2031" y1="60.5" x2="105.203" y2="60.5" stroke="#379BE4"/>
<line x1="50.2031" y1="55.5" x2="102.203" y2="55.5" stroke="#379BE4"/>
<line x1="55.2031" y1="49.5" x2="98.2031" y2="49.5" stroke="#379BE4"/>
<line x1="63.2031" y1="44.5" x2="90.2031" y2="44.5" stroke="#379BE4"/>
<line x1="62.2031" y1="45.5" x2="92.2031" y2="45.5" stroke="#379BE4"/>
<line x1="54.2031" y1="50.5" x2="99.2031" y2="50.5" stroke="#379BE4"/>
<line x1="44.2031" y1="76.5" x2="108.203" y2="76.5" stroke="#379BE4"/>
<line x1="66.2031" y1="103.5" x2="87.2031" y2="103.5" stroke="#379BE4"/>
<path d="M59.1184 128.392L76.4728 145.762L85.2186 137.008L93.9644 128.255" stroke="#379BE4" stroke-width="5"/>
<path d="M76.7031 136L70.2079 129.25H83.1983L76.7031 136Z" fill="#379BE4"/>
<path d="M50.498 150.781V165H48.0664V150.781H50.498ZM54.9609 150.781V152.734H43.6426V150.781H54.9609ZM61.8262 158.701V160.576H56.1621V158.701H61.8262ZM58.1738 154.434V165H55.8203V154.434H58.1738ZM60.0879 159.834V159.609C60.0879 158.848 60.1986 158.141 60.4199 157.49C60.6413 156.833 60.9635 156.263 61.3867 155.781C61.8099 155.293 62.3242 154.915 62.9297 154.648C63.5352 154.375 64.222 154.238 64.9902 154.238C65.7715 154.238 66.4648 154.375 67.0703 154.648C67.6823 154.915 68.1999 155.293 68.623 155.781C69.0462 156.263 69.3685 156.833 69.5898 157.49C69.8112 158.141 69.9219 158.848 69.9219 159.609V159.834C69.9219 160.596 69.8112 161.302 69.5898 161.953C69.3685 162.604 69.0462 163.174 68.623 163.662C68.2064 164.144 67.6921 164.521 67.0801 164.795C66.4746 165.062 65.7845 165.195 65.0098 165.195C64.235 165.195 63.5449 165.062 62.9395 164.795C62.334 164.521 61.8164 164.144 61.3867 163.662C60.9635 163.174 60.6413 162.604 60.4199 161.953C60.1986 161.302 60.0879 160.596 60.0879 159.834ZM62.4512 159.609V159.834C62.4512 160.309 62.5 160.758 62.5977 161.182C62.6953 161.605 62.8483 161.976 63.0566 162.295C63.265 162.614 63.5319 162.865 63.8574 163.047C64.1829 163.229 64.5671 163.32 65.0098 163.32C65.4525 163.32 65.8333 163.229 66.1523 163.047C66.4779 162.865 66.7448 162.614 66.9531 162.295C67.1615 161.976 67.3145 161.605 67.4121 161.182C67.5163 160.758 67.5684 160.309 67.5684 159.834V159.609C67.5684 159.141 67.5163 158.698 67.4121 158.281C67.3145 157.858 67.1615 157.484 66.9531 157.158C66.7448 156.833 66.4779 156.579 66.1523 156.396C65.8268 156.208 65.4395 156.113 64.9902 156.113C64.554 156.113 64.1732 156.208 63.8477 156.396C63.5286 156.579 63.265 156.833 63.0566 157.158C62.8483 157.484 62.6953 157.858 62.5977 158.281C62.5 158.698 62.4512 159.141 62.4512 159.609ZM78.1543 162.148L81.2988 154.434H83.3398L78.9551 165H77.3535L72.9785 154.434H75.0195L78.1543 162.148ZM74.4141 154.434V165H72.0605V154.434H74.4141ZM81.8945 165V154.434H84.2578V165H81.8945ZM91.5527 165.195C90.7715 165.195 90.0651 165.068 89.4336 164.814C88.8086 164.554 88.2747 164.193 87.832 163.73C87.3958 163.268 87.0605 162.725 86.8262 162.1C86.5918 161.475 86.4746 160.801 86.4746 160.078V159.688C86.4746 158.861 86.5951 158.112 86.8359 157.441C87.0768 156.771 87.4121 156.198 87.8418 155.723C88.2715 155.241 88.7793 154.873 89.3652 154.619C89.9512 154.365 90.5859 154.238 91.2695 154.238C92.0247 154.238 92.6855 154.365 93.252 154.619C93.8184 154.873 94.2871 155.231 94.6582 155.693C95.0358 156.149 95.3158 156.693 95.498 157.324C95.6868 157.956 95.7812 158.652 95.7812 159.414V160.42H87.6172V158.73H93.457V158.545C93.444 158.122 93.3594 157.725 93.2031 157.354C93.0534 156.982 92.8223 156.683 92.5098 156.455C92.1973 156.227 91.7806 156.113 91.2598 156.113C90.8691 156.113 90.5208 156.198 90.2148 156.367C89.9154 156.53 89.6647 156.768 89.4629 157.08C89.2611 157.393 89.1048 157.77 88.9941 158.213C88.89 158.649 88.8379 159.141 88.8379 159.688V160.078C88.8379 160.54 88.8997 160.97 89.0234 161.367C89.1536 161.758 89.3424 162.1 89.5898 162.393C89.8372 162.686 90.1367 162.917 90.4883 163.086C90.8398 163.249 91.2402 163.33 91.6895 163.33C92.2559 163.33 92.7604 163.216 93.2031 162.988C93.6458 162.76 94.0299 162.438 94.3555 162.021L95.5957 163.223C95.3678 163.555 95.0716 163.874 94.707 164.18C94.3424 164.479 93.8965 164.723 93.3691 164.912C92.8483 165.101 92.2428 165.195 91.5527 165.195ZM104.834 158.848V160.703H99.3652V158.848H104.834ZM100.049 154.434V165H97.6953V154.434H100.049ZM106.533 154.434V165H104.18V154.434H106.533ZM110.791 157.793H113.906C114.818 157.793 115.592 157.946 116.23 158.252C116.868 158.558 117.354 158.984 117.686 159.531C118.024 160.072 118.193 160.69 118.193 161.387C118.193 161.901 118.099 162.38 117.91 162.822C117.721 163.258 117.441 163.639 117.07 163.965C116.706 164.29 116.257 164.544 115.723 164.727C115.195 164.909 114.59 165 113.906 165H109.229V154.434H111.592V163.135H113.906C114.375 163.135 114.749 163.053 115.029 162.891C115.309 162.728 115.511 162.516 115.635 162.256C115.765 161.995 115.83 161.719 115.83 161.426C115.83 161.126 115.765 160.843 115.635 160.576C115.511 160.309 115.309 160.091 115.029 159.922C114.749 159.753 114.375 159.668 113.906 159.668H110.791V157.793Z" fill="#379BE4"/>
<path d="M27.0703 23.0059L33.3789 12.7812H35.8301V27H33.3789V16.7656L27.0703 27H24.6289V12.7812H27.0703V23.0059ZM45.752 20.8477V22.7031H40.2832V20.8477H45.752ZM40.9668 16.4336V27H38.6133V16.4336H40.9668ZM47.4512 16.4336V27H45.0977V16.4336H47.4512ZM56.9922 16.4336V18.3086H52.3828V27H50.0293V16.4336H56.9922ZM62.8223 27.1953C62.041 27.1953 61.3346 27.0684 60.7031 26.8145C60.0781 26.554 59.5443 26.1927 59.1016 25.7305C58.6654 25.2682 58.3301 24.7246 58.0957 24.0996C57.8613 23.4746 57.7441 22.8008 57.7441 22.0781V21.6875C57.7441 20.8607 57.8646 20.112 58.1055 19.4414C58.3464 18.7708 58.6816 18.1979 59.1113 17.7227C59.541 17.2409 60.0488 16.873 60.6348 16.6191C61.2207 16.3652 61.8555 16.2383 62.5391 16.2383C63.2943 16.2383 63.9551 16.3652 64.5215 16.6191C65.0879 16.873 65.5566 17.2311 65.9277 17.6934C66.3053 18.1491 66.5853 18.6927 66.7676 19.3242C66.9564 19.9557 67.0508 20.6523 67.0508 21.4141V22.4199H58.8867V20.7305H64.7266V20.5449C64.7135 20.1217 64.6289 19.7246 64.4727 19.3535C64.3229 18.9824 64.0918 18.6829 63.7793 18.4551C63.4668 18.2272 63.0501 18.1133 62.5293 18.1133C62.1387 18.1133 61.7904 18.1979 61.4844 18.3672C61.1849 18.5299 60.9342 18.7676 60.7324 19.0801C60.5306 19.3926 60.3743 19.7702 60.2637 20.2129C60.1595 20.6491 60.1074 21.1406 60.1074 21.6875V22.0781C60.1074 22.5404 60.1693 22.9701 60.293 23.3672C60.4232 23.7578 60.612 24.0996 60.8594 24.3926C61.1068 24.6855 61.4062 24.9167 61.7578 25.0859C62.1094 25.2487 62.5098 25.3301 62.959 25.3301C63.5254 25.3301 64.0299 25.2161 64.4727 24.9883C64.9154 24.7604 65.2995 24.4382 65.625 24.0215L66.8652 25.2227C66.6374 25.5547 66.3411 25.8737 65.9766 26.1797C65.612 26.4792 65.166 26.7233 64.6387 26.9121C64.1178 27.1009 63.5124 27.1953 62.8223 27.1953ZM68.4375 21.834V21.6094C68.4375 20.8477 68.5482 20.1413 68.7695 19.4902C68.9909 18.8327 69.3099 18.263 69.7266 17.7812C70.1497 17.293 70.6641 16.9154 71.2695 16.6484C71.8815 16.375 72.5716 16.2383 73.3398 16.2383C74.1146 16.2383 74.8047 16.375 75.4102 16.6484C76.0221 16.9154 76.5397 17.293 76.9629 17.7812C77.3861 18.263 77.7083 18.8327 77.9297 19.4902C78.151 20.1413 78.2617 20.8477 78.2617 21.6094V21.834C78.2617 22.5957 78.151 23.3021 77.9297 23.9531C77.7083 24.6042 77.3861 25.1738 76.9629 25.6621C76.5397 26.1439 76.0254 26.5215 75.4199 26.7949C74.8145 27.0618 74.1276 27.1953 73.3594 27.1953C72.5846 27.1953 71.8913 27.0618 71.2793 26.7949C70.6738 26.5215 70.1595 26.1439 69.7363 25.6621C69.3132 25.1738 68.9909 24.6042 68.7695 23.9531C68.5482 23.3021 68.4375 22.5957 68.4375 21.834ZM70.791 21.6094V21.834C70.791 22.3092 70.8398 22.7585 70.9375 23.1816C71.0352 23.6048 71.1882 23.9759 71.3965 24.2949C71.6048 24.6139 71.8717 24.8646 72.1973 25.0469C72.5228 25.2292 72.9102 25.3203 73.3594 25.3203C73.7956 25.3203 74.1732 25.2292 74.4922 25.0469C74.8177 24.8646 75.0846 24.6139 75.293 24.2949C75.5013 23.9759 75.6543 23.6048 75.752 23.1816C75.8561 22.7585 75.9082 22.3092 75.9082 21.834V21.6094C75.9082 21.1406 75.8561 20.6979 75.752 20.2812C75.6543 19.8581 75.498 19.4837 75.2832 19.1582C75.0749 18.8327 74.8079 18.5788 74.4824 18.3965C74.1634 18.2077 73.7826 18.1133 73.3398 18.1133C72.8971 18.1133 72.513 18.2077 72.1875 18.3965C71.8685 18.5788 71.6048 18.8327 71.3965 19.1582C71.1882 19.4837 71.0352 19.8581 70.9375 20.2812C70.8398 20.6979 70.791 21.1406 70.791 21.6094ZM91.7188 12.7812V27H89.2773V14.7344H82.959V27H80.5176V12.7812H91.7188ZM100.068 21.6973H96.3672V19.7539H100.068C100.713 19.7539 101.234 19.6497 101.631 19.4414C102.028 19.2331 102.318 18.9466 102.5 18.582C102.689 18.2109 102.783 17.7878 102.783 17.3125C102.783 16.8633 102.689 16.4434 102.5 16.0527C102.318 15.6556 102.028 15.3366 101.631 15.0957C101.234 14.8548 100.713 14.7344 100.068 14.7344H97.1191V27H94.668V12.7812H100.068C101.169 12.7812 102.103 12.9766 102.871 13.3672C103.646 13.7513 104.235 14.2852 104.639 14.9688C105.042 15.6458 105.244 16.4206 105.244 17.293C105.244 18.2109 105.042 18.9987 104.639 19.6562C104.235 20.3138 103.646 20.8184 102.871 21.1699C102.103 21.5215 101.169 21.6973 100.068 21.6973ZM109.863 23.0059L116.172 12.7812H118.623V27H116.172V16.7656L109.863 27H107.422V12.7812H109.863V23.0059ZM126.436 20.1836H124.463V18.7871H126.162C126.768 18.7871 127.259 18.6992 127.637 18.5234C128.014 18.3411 128.288 18.0905 128.457 17.7715C128.633 17.446 128.721 17.0684 128.721 16.6387C128.721 16.2546 128.623 15.903 128.428 15.584C128.239 15.265 127.946 15.0111 127.549 14.8223C127.152 14.627 126.641 14.5293 126.016 14.5293C125.547 14.5293 125.12 14.6139 124.736 14.7832C124.352 14.9525 124.046 15.1901 123.818 15.4961C123.597 15.8021 123.486 16.1634 123.486 16.5801H121.035C121.035 15.9616 121.165 15.4082 121.426 14.9199C121.693 14.4251 122.054 14.0052 122.51 13.6602C122.972 13.3151 123.503 13.0514 124.102 12.8691C124.707 12.6803 125.345 12.5859 126.016 12.5859C126.797 12.5859 127.503 12.6738 128.135 12.8496C128.766 13.0189 129.31 13.2728 129.766 13.6113C130.221 13.9499 130.57 14.373 130.811 14.8809C131.051 15.3822 131.172 15.9648 131.172 16.6289C131.172 17.1172 131.058 17.5762 130.83 18.0059C130.609 18.4355 130.29 18.8132 129.873 19.1387C129.456 19.4642 128.955 19.7214 128.369 19.9102C127.79 20.0924 127.145 20.1836 126.436 20.1836ZM124.463 19.334H126.436C127.223 19.334 127.923 19.4154 128.535 19.5781C129.147 19.7409 129.665 19.9785 130.088 20.291C130.511 20.6035 130.833 20.9909 131.055 21.4531C131.276 21.9089 131.387 22.4329 131.387 23.0254C131.387 23.6895 131.253 24.2819 130.986 24.8027C130.726 25.3171 130.355 25.7533 129.873 26.1113C129.391 26.4694 128.822 26.7396 128.164 26.9219C127.513 27.1042 126.797 27.1953 126.016 27.1953C125.384 27.1953 124.759 27.1172 124.141 26.9609C123.529 26.7982 122.972 26.5508 122.471 26.2188C121.976 25.8802 121.579 25.4505 121.279 24.9297C120.98 24.4089 120.83 23.7839 120.83 23.0547H123.291C123.291 23.4583 123.405 23.8294 123.633 24.168C123.867 24.5 124.186 24.7669 124.59 24.9688C125 25.1641 125.475 25.2617 126.016 25.2617C126.634 25.2617 127.158 25.1641 127.588 24.9688C128.024 24.7734 128.356 24.5065 128.584 24.168C128.818 23.8294 128.936 23.4486 128.936 23.0254C128.936 22.6217 128.874 22.2734 128.75 21.9805C128.633 21.681 128.457 21.4401 128.223 21.2578C127.988 21.069 127.699 20.929 127.354 20.8379C127.008 20.7467 126.611 20.7012 126.162 20.7012H124.463V19.334Z" fill="#379BE4"/>
<line x1="1.20312" y1="1" x2="152.203" y2="1" stroke="#379BE4" stroke-width="2"/>
<path d="M151.203 1.5C150.165 4.48334 155.685 151.5 149.203 164C142.722 176.5 90.1982 168 84.2031 173C78.208 178 76.2031 183.5 76.2031 183.5" stroke="#379BE4" stroke-width="2"/>
<line x1="32.7031" y1="42" x2="32.7031" y2="112" stroke="#379BE4" stroke-width="5"/>
<line x1="21.7031" y1="42" x2="21.7031" y2="120" stroke="#379BE4" stroke-width="5"/>
<line x1="139.703" y1="11" x2="139.703" y2="127" stroke="#379BE4" stroke-width="5"/>
<line x1="129.703" y1="42" x2="129.703" y2="120" stroke="#379BE4" stroke-width="5"/>
<line x1="119.703" y1="42" x2="119.703" y2="112" stroke="#379BE4" stroke-width="5"/>
<line x1="34.2031" y1="110" x2="122.203" y2="110" stroke="#379BE4" stroke-width="4"/>
<line x1="23.2031" y1="118" x2="132.203" y2="118" stroke="#379BE4" stroke-width="4"/>
<line x1="13.2031" y1="128" x2="142.203" y2="128" stroke="#379BE4" stroke-width="4"/>
<line x1="19.2031" y1="41.5" x2="35.2031" y2="41.5" stroke="#379BE4"/>
<line x1="63.2031" y1="102.5" x2="89.2031" y2="102.5" stroke="#379BE4"/>
<line x1="57.2031" y1="98.5" x2="95.2031" y2="98.5" stroke="#379BE4"/>
<line x1="52.2031" y1="93.5" x2="101.203" y2="93.5" stroke="#379BE4"/>
<line x1="49.2031" y1="88.5" x2="104.203" y2="88.5" stroke="#379BE4"/>
<path d="M46.2031 82.5H106.203M45.2031 77.5H107.203" stroke="#379BE4"/>
<line x1="55.2031" y1="97.5" x2="97.2031" y2="97.5" stroke="#379BE4"/>
<line x1="50.2031" y1="92.5" x2="102.203" y2="92.5" stroke="#379BE4"/>
<line x1="47.2031" y1="87.5" x2="105.203" y2="87.5" stroke="#379BE4"/>
<line x1="46.2031" y1="81.5" x2="107.203" y2="81.5" stroke="#379BE4"/>
<line x1="44.2031" y1="72.5" x2="108.203" y2="72.5" stroke="#379BE4"/>
<line x1="46.2031" y1="67.5" x2="108.203" y2="67.5" stroke="#379BE4"/>
<line x1="46.2031" y1="61.5" x2="106.203" y2="61.5" stroke="#379BE4"/>
<line x1="49.2031" y1="56.5" x2="103.203" y2="56.5" stroke="#379BE4"/>
<line x1="45.2031" y1="71.5" x2="107.203" y2="71.5" stroke="#379BE4"/>
<line x1="46.2031" y1="66.5" x2="107.203" y2="66.5" stroke="#379BE4"/>
<line x1="47.2031" y1="60.5" x2="105.203" y2="60.5" stroke="#379BE4"/>
<line x1="50.2031" y1="55.5" x2="102.203" y2="55.5" stroke="#379BE4"/>
<line x1="55.2031" y1="49.5" x2="98.2031" y2="49.5" stroke="#379BE4"/>
<line x1="63.2031" y1="44.5" x2="90.2031" y2="44.5" stroke="#379BE4"/>
<line x1="62.2031" y1="45.5" x2="92.2031" y2="45.5" stroke="#379BE4"/>
<line x1="54.2031" y1="50.5" x2="99.2031" y2="50.5" stroke="#379BE4"/>
<line x1="44.2031" y1="76.5" x2="108.203" y2="76.5" stroke="#379BE4"/>
<line x1="66.2031" y1="103.5" x2="87.2031" y2="103.5" stroke="#379BE4"/>
<path d="M59.1184 128.392L76.4728 145.762L85.2186 137.008L93.9644 128.255" stroke="#379BE4" stroke-width="5"/>
<path d="M76.7031 136L70.2079 129.25H83.1983L76.7031 136Z" fill="#379BE4"/>
<path d="M50.498 150.781V165H48.0664V150.781H50.498ZM54.9609 150.781V152.734H43.6426V150.781H54.9609ZM61.8262 158.701V160.576H56.1621V158.701H61.8262ZM58.1738 154.434V165H55.8203V154.434H58.1738ZM60.0879 159.834V159.609C60.0879 158.848 60.1986 158.141 60.4199 157.49C60.6413 156.833 60.9635 156.263 61.3867 155.781C61.8099 155.293 62.3242 154.915 62.9297 154.648C63.5352 154.375 64.222 154.238 64.9902 154.238C65.7715 154.238 66.4648 154.375 67.0703 154.648C67.6823 154.915 68.1999 155.293 68.623 155.781C69.0462 156.263 69.3685 156.833 69.5898 157.49C69.8112 158.141 69.9219 158.848 69.9219 159.609V159.834C69.9219 160.596 69.8112 161.302 69.5898 161.953C69.3685 162.604 69.0462 163.174 68.623 163.662C68.2064 164.144 67.6921 164.521 67.0801 164.795C66.4746 165.062 65.7845 165.195 65.0098 165.195C64.235 165.195 63.5449 165.062 62.9395 164.795C62.334 164.521 61.8164 164.144 61.3867 163.662C60.9635 163.174 60.6413 162.604 60.4199 161.953C60.1986 161.302 60.0879 160.596 60.0879 159.834ZM62.4512 159.609V159.834C62.4512 160.309 62.5 160.758 62.5977 161.182C62.6953 161.605 62.8483 161.976 63.0566 162.295C63.265 162.614 63.5319 162.865 63.8574 163.047C64.1829 163.229 64.5671 163.32 65.0098 163.32C65.4525 163.32 65.8333 163.229 66.1523 163.047C66.4779 162.865 66.7448 162.614 66.9531 162.295C67.1615 161.976 67.3145 161.605 67.4121 161.182C67.5163 160.758 67.5684 160.309 67.5684 159.834V159.609C67.5684 159.141 67.5163 158.698 67.4121 158.281C67.3145 157.858 67.1615 157.484 66.9531 157.158C66.7448 156.833 66.4779 156.579 66.1523 156.396C65.8268 156.208 65.4395 156.113 64.9902 156.113C64.554 156.113 64.1732 156.208 63.8477 156.396C63.5286 156.579 63.265 156.833 63.0566 157.158C62.8483 157.484 62.6953 157.858 62.5977 158.281C62.5 158.698 62.4512 159.141 62.4512 159.609ZM78.1543 162.148L81.2988 154.434H83.3398L78.9551 165H77.3535L72.9785 154.434H75.0195L78.1543 162.148ZM74.4141 154.434V165H72.0605V154.434H74.4141ZM81.8945 165V154.434H84.2578V165H81.8945ZM91.5527 165.195C90.7715 165.195 90.0651 165.068 89.4336 164.814C88.8086 164.554 88.2747 164.193 87.832 163.73C87.3958 163.268 87.0605 162.725 86.8262 162.1C86.5918 161.475 86.4746 160.801 86.4746 160.078V159.688C86.4746 158.861 86.5951 158.112 86.8359 157.441C87.0768 156.771 87.4121 156.198 87.8418 155.723C88.2715 155.241 88.7793 154.873 89.3652 154.619C89.9512 154.365 90.5859 154.238 91.2695 154.238C92.0247 154.238 92.6855 154.365 93.252 154.619C93.8184 154.873 94.2871 155.231 94.6582 155.693C95.0358 156.149 95.3158 156.693 95.498 157.324C95.6868 157.956 95.7812 158.652 95.7812 159.414V160.42H87.6172V158.73H93.457V158.545C93.444 158.122 93.3594 157.725 93.2031 157.354C93.0534 156.982 92.8223 156.683 92.5098 156.455C92.1973 156.227 91.7806 156.113 91.2598 156.113C90.8691 156.113 90.5208 156.198 90.2148 156.367C89.9154 156.53 89.6647 156.768 89.4629 157.08C89.2611 157.393 89.1048 157.77 88.9941 158.213C88.89 158.649 88.8379 159.141 88.8379 159.688V160.078C88.8379 160.54 88.8997 160.97 89.0234 161.367C89.1536 161.758 89.3424 162.1 89.5898 162.393C89.8372 162.686 90.1367 162.917 90.4883 163.086C90.8398 163.249 91.2402 163.33 91.6895 163.33C92.2559 163.33 92.7604 163.216 93.2031 162.988C93.6458 162.76 94.0299 162.438 94.3555 162.021L95.5957 163.223C95.3678 163.555 95.0716 163.874 94.707 164.18C94.3424 164.479 93.8965 164.723 93.3691 164.912C92.8483 165.101 92.2428 165.195 91.5527 165.195ZM104.834 158.848V160.703H99.3652V158.848H104.834ZM100.049 154.434V165H97.6953V154.434H100.049ZM106.533 154.434V165H104.18V154.434H106.533ZM110.791 157.793H113.906C114.818 157.793 115.592 157.946 116.23 158.252C116.868 158.558 117.354 158.984 117.686 159.531C118.024 160.072 118.193 160.69 118.193 161.387C118.193 161.901 118.099 162.38 117.91 162.822C117.721 163.258 117.441 163.639 117.07 163.965C116.706 164.29 116.257 164.544 115.723 164.727C115.195 164.909 114.59 165 113.906 165H109.229V154.434H111.592V163.135H113.906C114.375 163.135 114.749 163.053 115.029 162.891C115.309 162.728 115.511 162.516 115.635 162.256C115.765 161.995 115.83 161.719 115.83 161.426C115.83 161.126 115.765 160.843 115.635 160.576C115.511 160.309 115.309 160.091 115.029 159.922C114.749 159.753 114.375 159.668 113.906 159.668H110.791V157.793Z" fill="#379BE4"/>
<path d="M27.0703 23.0059L33.3789 12.7812H35.8301V27H33.3789V16.7656L27.0703 27H24.6289V12.7812H27.0703V23.0059ZM45.752 20.8477V22.7031H40.2832V20.8477H45.752ZM40.9668 16.4336V27H38.6133V16.4336H40.9668ZM47.4512 16.4336V27H45.0977V16.4336H47.4512ZM56.9922 16.4336V18.3086H52.3828V27H50.0293V16.4336H56.9922ZM62.8223 27.1953C62.041 27.1953 61.3346 27.0684 60.7031 26.8145C60.0781 26.554 59.5443 26.1927 59.1016 25.7305C58.6654 25.2682 58.3301 24.7246 58.0957 24.0996C57.8613 23.4746 57.7441 22.8008 57.7441 22.0781V21.6875C57.7441 20.8607 57.8646 20.112 58.1055 19.4414C58.3464 18.7708 58.6816 18.1979 59.1113 17.7227C59.541 17.2409 60.0488 16.873 60.6348 16.6191C61.2207 16.3652 61.8555 16.2383 62.5391 16.2383C63.2943 16.2383 63.9551 16.3652 64.5215 16.6191C65.0879 16.873 65.5566 17.2311 65.9277 17.6934C66.3053 18.1491 66.5853 18.6927 66.7676 19.3242C66.9564 19.9557 67.0508 20.6523 67.0508 21.4141V22.4199H58.8867V20.7305H64.7266V20.5449C64.7135 20.1217 64.6289 19.7246 64.4727 19.3535C64.3229 18.9824 64.0918 18.6829 63.7793 18.4551C63.4668 18.2272 63.0501 18.1133 62.5293 18.1133C62.1387 18.1133 61.7904 18.1979 61.4844 18.3672C61.1849 18.5299 60.9342 18.7676 60.7324 19.0801C60.5306 19.3926 60.3743 19.7702 60.2637 20.2129C60.1595 20.6491 60.1074 21.1406 60.1074 21.6875V22.0781C60.1074 22.5404 60.1693 22.9701 60.293 23.3672C60.4232 23.7578 60.612 24.0996 60.8594 24.3926C61.1068 24.6855 61.4062 24.9167 61.7578 25.0859C62.1094 25.2487 62.5098 25.3301 62.959 25.3301C63.5254 25.3301 64.0299 25.2161 64.4727 24.9883C64.9154 24.7604 65.2995 24.4382 65.625 24.0215L66.8652 25.2227C66.6374 25.5547 66.3411 25.8737 65.9766 26.1797C65.612 26.4792 65.166 26.7233 64.6387 26.9121C64.1178 27.1009 63.5124 27.1953 62.8223 27.1953ZM68.4375 21.834V21.6094C68.4375 20.8477 68.5482 20.1413 68.7695 19.4902C68.9909 18.8327 69.3099 18.263 69.7266 17.7812C70.1497 17.293 70.6641 16.9154 71.2695 16.6484C71.8815 16.375 72.5716 16.2383 73.3398 16.2383C74.1146 16.2383 74.8047 16.375 75.4102 16.6484C76.0221 16.9154 76.5397 17.293 76.9629 17.7812C77.3861 18.263 77.7083 18.8327 77.9297 19.4902C78.151 20.1413 78.2617 20.8477 78.2617 21.6094V21.834C78.2617 22.5957 78.151 23.3021 77.9297 23.9531C77.7083 24.6042 77.3861 25.1738 76.9629 25.6621C76.5397 26.1439 76.0254 26.5215 75.4199 26.7949C74.8145 27.0618 74.1276 27.1953 73.3594 27.1953C72.5846 27.1953 71.8913 27.0618 71.2793 26.7949C70.6738 26.5215 70.1595 26.1439 69.7363 25.6621C69.3132 25.1738 68.9909 24.6042 68.7695 23.9531C68.5482 23.3021 68.4375 22.5957 68.4375 21.834ZM70.791 21.6094V21.834C70.791 22.3092 70.8398 22.7585 70.9375 23.1816C71.0352 23.6048 71.1882 23.9759 71.3965 24.2949C71.6048 24.6139 71.8717 24.8646 72.1973 25.0469C72.5228 25.2292 72.9102 25.3203 73.3594 25.3203C73.7956 25.3203 74.1732 25.2292 74.4922 25.0469C74.8177 24.8646 75.0846 24.6139 75.293 24.2949C75.5013 23.9759 75.6543 23.6048 75.752 23.1816C75.8561 22.7585 75.9082 22.3092 75.9082 21.834V21.6094C75.9082 21.1406 75.8561 20.6979 75.752 20.2812C75.6543 19.8581 75.498 19.4837 75.2832 19.1582C75.0749 18.8327 74.8079 18.5788 74.4824 18.3965C74.1634 18.2077 73.7826 18.1133 73.3398 18.1133C72.8971 18.1133 72.513 18.2077 72.1875 18.3965C71.8685 18.5788 71.6048 18.8327 71.3965 19.1582C71.1882 19.4837 71.0352 19.8581 70.9375 20.2812C70.8398 20.6979 70.791 21.1406 70.791 21.6094ZM91.7188 12.7812V27H89.2773V14.7344H82.959V27H80.5176V12.7812H91.7188ZM100.068 21.6973H96.3672V19.7539H100.068C100.713 19.7539 101.234 19.6497 101.631 19.4414C102.028 19.2331 102.318 18.9466 102.5 18.582C102.689 18.2109 102.783 17.7878 102.783 17.3125C102.783 16.8633 102.689 16.4434 102.5 16.0527C102.318 15.6556 102.028 15.3366 101.631 15.0957C101.234 14.8548 100.713 14.7344 100.068 14.7344H97.1191V27H94.668V12.7812H100.068C101.169 12.7812 102.103 12.9766 102.871 13.3672C103.646 13.7513 104.235 14.2852 104.639 14.9688C105.042 15.6458 105.244 16.4206 105.244 17.293C105.244 18.2109 105.042 18.9987 104.639 19.6562C104.235 20.3138 103.646 20.8184 102.871 21.1699C102.103 21.5215 101.169 21.6973 100.068 21.6973ZM109.863 23.0059L116.172 12.7812H118.623V27H116.172V16.7656L109.863 27H107.422V12.7812H109.863V23.0059ZM126.436 20.1836H124.463V18.7871H126.162C126.768 18.7871 127.259 18.6992 127.637 18.5234C128.014 18.3411 128.288 18.0905 128.457 17.7715C128.633 17.446 128.721 17.0684 128.721 16.6387C128.721 16.2546 128.623 15.903 128.428 15.584C128.239 15.265 127.946 15.0111 127.549 14.8223C127.152 14.627 126.641 14.5293 126.016 14.5293C125.547 14.5293 125.12 14.6139 124.736 14.7832C124.352 14.9525 124.046 15.1901 123.818 15.4961C123.597 15.8021 123.486 16.1634 123.486 16.5801H121.035C121.035 15.9616 121.165 15.4082 121.426 14.9199C121.693 14.4251 122.054 14.0052 122.51 13.6602C122.972 13.3151 123.503 13.0514 124.102 12.8691C124.707 12.6803 125.345 12.5859 126.016 12.5859C126.797 12.5859 127.503 12.6738 128.135 12.8496C128.766 13.0189 129.31 13.2728 129.766 13.6113C130.221 13.9499 130.57 14.373 130.811 14.8809C131.051 15.3822 131.172 15.9648 131.172 16.6289C131.172 17.1172 131.058 17.5762 130.83 18.0059C130.609 18.4355 130.29 18.8132 129.873 19.1387C129.456 19.4642 128.955 19.7214 128.369 19.9102C127.79 20.0924 127.145 20.1836 126.436 20.1836ZM124.463 19.334H126.436C127.223 19.334 127.923 19.4154 128.535 19.5781C129.147 19.7409 129.665 19.9785 130.088 20.291C130.511 20.6035 130.833 20.9909 131.055 21.4531C131.276 21.9089 131.387 22.4329 131.387 23.0254C131.387 23.6895 131.253 24.2819 130.986 24.8027C130.726 25.3171 130.355 25.7533 129.873 26.1113C129.391 26.4694 128.822 26.7396 128.164 26.9219C127.513 27.1042 126.797 27.1953 126.016 27.1953C125.384 27.1953 124.759 27.1172 124.141 26.9609C123.529 26.7982 122.972 26.5508 122.471 26.2188C121.976 25.8802 121.579 25.4505 121.279 24.9297C120.98 24.4089 120.83 23.7839 120.83 23.0547H123.291C123.291 23.4583 123.405 23.8294 123.633 24.168C123.867 24.5 124.186 24.7669 124.59 24.9688C125 25.1641 125.475 25.2617 126.016 25.2617C126.634 25.2617 127.158 25.1641 127.588 24.9688C128.024 24.7734 128.356 24.5065 128.584 24.168C128.818 23.8294 128.936 23.4486 128.936 23.0254C128.936 22.6217 128.874 22.2734 128.75 21.9805C128.633 21.681 128.457 21.4401 128.223 21.2578C127.988 21.069 127.699 20.929 127.354 20.8379C127.008 20.7467 126.611 20.7012 126.162 20.7012H124.463V19.334Z" fill="#379BE4"/>
<line x1="3" y1="1" x2="152" y2="1" stroke="#379BE4" stroke-width="2"/>
<path d="M77.2109 183.5C77.2109 183.5 75.2061 178 69.2109 173C63.2158 168 10.6924 176.5 4.21093 164" stroke="#379BE4" stroke-width="2"/>
<path d="M151.203 1.5C150.165 4.48334 155.685 151.5 149.203 164C142.722 176.5 90.1982 168 84.2031 173C78.208 178 76.2031 183.5 76.2031 183.5" stroke="#379BE4" stroke-width="2"/>
<line x1="21.7031" y1="42" x2="21.7031" y2="120" stroke="#379BE4" stroke-width="5"/>
<line x1="139.703" y1="11" x2="139.703" y2="127" stroke="#379BE4" stroke-width="5"/>
<line x1="129.703" y1="42" x2="129.703" y2="120" stroke="#379BE4" stroke-width="5"/>
<line x1="119.703" y1="42" x2="119.703" y2="112" stroke="#379BE4" stroke-width="5"/>
<line x1="34.2031" y1="110" x2="122.203" y2="110" stroke="#379BE4" stroke-width="4"/>
<line x1="23.2031" y1="118" x2="132.203" y2="118" stroke="#379BE4" stroke-width="4"/>
<line x1="13.2031" y1="128" x2="142.203" y2="128" stroke="#379BE4" stroke-width="4"/>
<line x1="19.2031" y1="41.5" x2="35.2031" y2="41.5" stroke="#379BE4"/>
<line x1="117.203" y1="42.5" x2="132.203" y2="42.5" stroke="#379BE4"/>
<line x1="63.2031" y1="102.5" x2="89.2031" y2="102.5" stroke="#379BE4"/>
<line x1="57.2031" y1="98.5" x2="95.2031" y2="98.5" stroke="#379BE4"/>
<line x1="52.2031" y1="93.5" x2="101.203" y2="93.5" stroke="#379BE4"/>
<line x1="49.2031" y1="88.5" x2="104.203" y2="88.5" stroke="#379BE4"/>
<path d="M46.2031 82.5H106.203M45.2031 77.5H107.203" stroke="#379BE4"/>
<line x1="55.2031" y1="97.5" x2="97.2031" y2="97.5" stroke="#379BE4"/>
<line x1="50.2031" y1="92.5" x2="102.203" y2="92.5" stroke="#379BE4"/>
<line x1="47.2031" y1="87.5" x2="105.203" y2="87.5" stroke="#379BE4"/>
<line x1="46.2031" y1="81.5" x2="107.203" y2="81.5" stroke="#379BE4"/>
<line x1="44.2031" y1="72.5" x2="108.203" y2="72.5" stroke="#379BE4"/>
<line x1="46.2031" y1="67.5" x2="108.203" y2="67.5" stroke="#379BE4"/>
<line x1="46.2031" y1="61.5" x2="106.203" y2="61.5" stroke="#379BE4"/>
<line x1="49.2031" y1="56.5" x2="103.203" y2="56.5" stroke="#379BE4"/>
<line x1="45.2031" y1="71.5" x2="107.203" y2="71.5" stroke="#379BE4"/>
<line x1="46.2031" y1="66.5" x2="107.203" y2="66.5" stroke="#379BE4"/>
<line x1="47.2031" y1="60.5" x2="105.203" y2="60.5" stroke="#379BE4"/>
<line x1="50.2031" y1="55.5" x2="102.203" y2="55.5" stroke="#379BE4"/>
<line x1="55.2031" y1="49.5" x2="98.2031" y2="49.5" stroke="#379BE4"/>
<line x1="63.2031" y1="44.5" x2="90.2031" y2="44.5" stroke="#379BE4"/>
<line x1="62.2031" y1="45.5" x2="92.2031" y2="45.5" stroke="#379BE4"/>
<line x1="54.2031" y1="50.5" x2="99.2031" y2="50.5" stroke="#379BE4"/>
<line x1="44.2031" y1="76.5" x2="108.203" y2="76.5" stroke="#379BE4"/>
<line x1="66.2031" y1="103.5" x2="87.2031" y2="103.5" stroke="#379BE4"/>
<path d="M59.1184 128.392L76.4728 145.762L85.2186 137.008L93.9644 128.255" stroke="#379BE4" stroke-width="5"/>
<path d="M76.7031 136L70.2079 129.25H83.1983L76.7031 136Z" fill="#379BE4"/>
<path d="M50.498 150.781V165H48.0664V150.781H50.498ZM54.9609 150.781V152.734H43.6426V150.781H54.9609ZM61.8262 158.701V160.576H56.1621V158.701H61.8262ZM58.1738 154.434V165H55.8203V154.434H58.1738ZM60.0879 159.834V159.609C60.0879 158.848 60.1986 158.141 60.4199 157.49C60.6413 156.833 60.9635 156.263 61.3867 155.781C61.8099 155.293 62.3242 154.915 62.9297 154.648C63.5352 154.375 64.222 154.238 64.9902 154.238C65.7715 154.238 66.4648 154.375 67.0703 154.648C67.6823 154.915 68.1999 155.293 68.623 155.781C69.0462 156.263 69.3685 156.833 69.5898 157.49C69.8112 158.141 69.9219 158.848 69.9219 159.609V159.834C69.9219 160.596 69.8112 161.302 69.5898 161.953C69.3685 162.604 69.0462 163.174 68.623 163.662C68.2064 164.144 67.6921 164.521 67.0801 164.795C66.4746 165.062 65.7845 165.195 65.0098 165.195C64.235 165.195 63.5449 165.062 62.9395 164.795C62.334 164.521 61.8164 164.144 61.3867 163.662C60.9635 163.174 60.6413 162.604 60.4199 161.953C60.1986 161.302 60.0879 160.596 60.0879 159.834ZM62.4512 159.609V159.834C62.4512 160.309 62.5 160.758 62.5977 161.182C62.6953 161.605 62.8483 161.976 63.0566 162.295C63.265 162.614 63.5319 162.865 63.8574 163.047C64.1829 163.229 64.5671 163.32 65.0098 163.32C65.4525 163.32 65.8333 163.229 66.1523 163.047C66.4779 162.865 66.7448 162.614 66.9531 162.295C67.1615 161.976 67.3145 161.605 67.4121 161.182C67.5163 160.758 67.5684 160.309 67.5684 159.834V159.609C67.5684 159.141 67.5163 158.698 67.4121 158.281C67.3145 157.858 67.1615 157.484 66.9531 157.158C66.7448 156.833 66.4779 156.579 66.1523 156.396C65.8268 156.208 65.4395 156.113 64.9902 156.113C64.554 156.113 64.1732 156.208 63.8477 156.396C63.5286 156.579 63.265 156.833 63.0566 157.158C62.8483 157.484 62.6953 157.858 62.5977 158.281C62.5 158.698 62.4512 159.141 62.4512 159.609ZM78.1543 162.148L81.2988 154.434H83.3398L78.9551 165H77.3535L72.9785 154.434H75.0195L78.1543 162.148ZM74.4141 154.434V165H72.0605V154.434H74.4141ZM81.8945 165V154.434H84.2578V165H81.8945ZM91.5527 165.195C90.7715 165.195 90.0651 165.068 89.4336 164.814C88.8086 164.554 88.2747 164.193 87.832 163.73C87.3958 163.268 87.0605 162.725 86.8262 162.1C86.5918 161.475 86.4746 160.801 86.4746 160.078V159.688C86.4746 158.861 86.5951 158.112 86.8359 157.441C87.0768 156.771 87.4121 156.198 87.8418 155.723C88.2715 155.241 88.7793 154.873 89.3652 154.619C89.9512 154.365 90.5859 154.238 91.2695 154.238C92.0247 154.238 92.6855 154.365 93.252 154.619C93.8184 154.873 94.2871 155.231 94.6582 155.693C95.0358 156.149 95.3158 156.693 95.498 157.324C95.6868 157.956 95.7812 158.652 95.7812 159.414V160.42H87.6172V158.73H93.457V158.545C93.444 158.122 93.3594 157.725 93.2031 157.354C93.0534 156.982 92.8223 156.683 92.5098 156.455C92.1973 156.227 91.7806 156.113 91.2598 156.113C90.8691 156.113 90.5208 156.198 90.2148 156.367C89.9154 156.53 89.6647 156.768 89.4629 157.08C89.2611 157.393 89.1048 157.77 88.9941 158.213C88.89 158.649 88.8379 159.141 88.8379 159.688V160.078C88.8379 160.54 88.8997 160.97 89.0234 161.367C89.1536 161.758 89.3424 162.1 89.5898 162.393C89.8372 162.686 90.1367 162.917 90.4883 163.086C90.8398 163.249 91.2402 163.33 91.6895 163.33C92.2559 163.33 92.7604 163.216 93.2031 162.988C93.6458 162.76 94.0299 162.438 94.3555 162.021L95.5957 163.223C95.3678 163.555 95.0716 163.874 94.707 164.18C94.3424 164.479 93.8965 164.723 93.3691 164.912C92.8483 165.101 92.2428 165.195 91.5527 165.195ZM104.834 158.848V160.703H99.3652V158.848H104.834ZM100.049 154.434V165H97.6953V154.434H100.049ZM106.533 154.434V165H104.18V154.434H106.533ZM110.791 157.793H113.906C114.818 157.793 115.592 157.946 116.23 158.252C116.868 158.558 117.354 158.984 117.686 159.531C118.024 160.072 118.193 160.69 118.193 161.387C118.193 161.901 118.099 162.38 117.91 162.822C117.721 163.258 117.441 163.639 117.07 163.965C116.706 164.29 116.257 164.544 115.723 164.727C115.195 164.909 114.59 165 113.906 165H109.229V154.434H111.592V163.135H113.906C114.375 163.135 114.749 163.053 115.029 162.891C115.309 162.728 115.511 162.516 115.635 162.256C115.765 161.995 115.83 161.719 115.83 161.426C115.83 161.126 115.765 160.843 115.635 160.576C115.511 160.309 115.309 160.091 115.029 159.922C114.749 159.753 114.375 159.668 113.906 159.668H110.791V157.793Z" fill="#379BE4"/>
<path d="M27.0703 23.0059L33.3789 12.7812H35.8301V27H33.3789V16.7656L27.0703 27H24.6289V12.7812H27.0703V23.0059ZM45.752 20.8477V22.7031H40.2832V20.8477H45.752ZM40.9668 16.4336V27H38.6133V16.4336H40.9668ZM47.4512 16.4336V27H45.0977V16.4336H47.4512ZM56.9922 16.4336V18.3086H52.3828V27H50.0293V16.4336H56.9922ZM62.8223 27.1953C62.041 27.1953 61.3346 27.0684 60.7031 26.8145C60.0781 26.554 59.5443 26.1927 59.1016 25.7305C58.6654 25.2682 58.3301 24.7246 58.0957 24.0996C57.8613 23.4746 57.7441 22.8008 57.7441 22.0781V21.6875C57.7441 20.8607 57.8646 20.112 58.1055 19.4414C58.3464 18.7708 58.6816 18.1979 59.1113 17.7227C59.541 17.2409 60.0488 16.873 60.6348 16.6191C61.2207 16.3652 61.8555 16.2383 62.5391 16.2383C63.2943 16.2383 63.9551 16.3652 64.5215 16.6191C65.0879 16.873 65.5566 17.2311 65.9277 17.6934C66.3053 18.1491 66.5853 18.6927 66.7676 19.3242C66.9564 19.9557 67.0508 20.6523 67.0508 21.4141V22.4199H58.8867V20.7305H64.7266V20.5449C64.7135 20.1217 64.6289 19.7246 64.4727 19.3535C64.3229 18.9824 64.0918 18.6829 63.7793 18.4551C63.4668 18.2272 63.0501 18.1133 62.5293 18.1133C62.1387 18.1133 61.7904 18.1979 61.4844 18.3672C61.1849 18.5299 60.9342 18.7676 60.7324 19.0801C60.5306 19.3926 60.3743 19.7702 60.2637 20.2129C60.1595 20.6491 60.1074 21.1406 60.1074 21.6875V22.0781C60.1074 22.5404 60.1693 22.9701 60.293 23.3672C60.4232 23.7578 60.612 24.0996 60.8594 24.3926C61.1068 24.6855 61.4062 24.9167 61.7578 25.0859C62.1094 25.2487 62.5098 25.3301 62.959 25.3301C63.5254 25.3301 64.0299 25.2161 64.4727 24.9883C64.9154 24.7604 65.2995 24.4382 65.625 24.0215L66.8652 25.2227C66.6374 25.5547 66.3411 25.8737 65.9766 26.1797C65.612 26.4792 65.166 26.7233 64.6387 26.9121C64.1178 27.1009 63.5124 27.1953 62.8223 27.1953ZM68.4375 21.834V21.6094C68.4375 20.8477 68.5482 20.1413 68.7695 19.4902C68.9909 18.8327 69.3099 18.263 69.7266 17.7812C70.1497 17.293 70.6641 16.9154 71.2695 16.6484C71.8815 16.375 72.5716 16.2383 73.3398 16.2383C74.1146 16.2383 74.8047 16.375 75.4102 16.6484C76.0221 16.9154 76.5397 17.293 76.9629 17.7812C77.3861 18.263 77.7083 18.8327 77.9297 19.4902C78.151 20.1413 78.2617 20.8477 78.2617 21.6094V21.834C78.2617 22.5957 78.151 23.3021 77.9297 23.9531C77.7083 24.6042 77.3861 25.1738 76.9629 25.6621C76.5397 26.1439 76.0254 26.5215 75.4199 26.7949C74.8145 27.0618 74.1276 27.1953 73.3594 27.1953C72.5846 27.1953 71.8913 27.0618 71.2793 26.7949C70.6738 26.5215 70.1595 26.1439 69.7363 25.6621C69.3132 25.1738 68.9909 24.6042 68.7695 23.9531C68.5482 23.3021 68.4375 22.5957 68.4375 21.834ZM70.791 21.6094V21.834C70.791 22.3092 70.8398 22.7585 70.9375 23.1816C71.0352 23.6048 71.1882 23.9759 71.3965 24.2949C71.6048 24.6139 71.8717 24.8646 72.1973 25.0469C72.5228 25.2292 72.9102 25.3203 73.3594 25.3203C73.7956 25.3203 74.1732 25.2292 74.4922 25.0469C74.8177 24.8646 75.0846 24.6139 75.293 24.2949C75.5013 23.9759 75.6543 23.6048 75.752 23.1816C75.8561 22.7585 75.9082 22.3092 75.9082 21.834V21.6094C75.9082 21.1406 75.8561 20.6979 75.752 20.2812C75.6543 19.8581 75.498 19.4837 75.2832 19.1582C75.0749 18.8327 74.8079 18.5788 74.4824 18.3965C74.1634 18.2077 73.7826 18.1133 73.3398 18.1133C72.8971 18.1133 72.513 18.2077 72.1875 18.3965C71.8685 18.5788 71.6048 18.8327 71.3965 19.1582C71.1882 19.4837 71.0352 19.8581 70.9375 20.2812C70.8398 20.6979 70.791 21.1406 70.791 21.6094ZM91.7188 12.7812V27H89.2773V14.7344H82.959V27H80.5176V12.7812H91.7188ZM100.068 21.6973H96.3672V19.7539H100.068C100.713 19.7539 101.234 19.6497 101.631 19.4414C102.028 19.2331 102.318 18.9466 102.5 18.582C102.689 18.2109 102.783 17.7878 102.783 17.3125C102.783 16.8633 102.689 16.4434 102.5 16.0527C102.318 15.6556 102.028 15.3366 101.631 15.0957C101.234 14.8548 100.713 14.7344 100.068 14.7344H97.1191V27H94.668V12.7812H100.068C101.169 12.7812 102.103 12.9766 102.871 13.3672C103.646 13.7513 104.235 14.2852 104.639 14.9688C105.042 15.6458 105.244 16.4206 105.244 17.293C105.244 18.2109 105.042 18.9987 104.639 19.6562C104.235 20.3138 103.646 20.8184 102.871 21.1699C102.103 21.5215 101.169 21.6973 100.068 21.6973ZM109.863 23.0059L116.172 12.7812H118.623V27H116.172V16.7656L109.863 27H107.422V12.7812H109.863V23.0059ZM126.436 20.1836H124.463V18.7871H126.162C126.768 18.7871 127.259 18.6992 127.637 18.5234C128.014 18.3411 128.288 18.0905 128.457 17.7715C128.633 17.446 128.721 17.0684 128.721 16.6387C128.721 16.2546 128.623 15.903 128.428 15.584C128.239 15.265 127.946 15.0111 127.549 14.8223C127.152 14.627 126.641 14.5293 126.016 14.5293C125.547 14.5293 125.12 14.6139 124.736 14.7832C124.352 14.9525 124.046 15.1901 123.818 15.4961C123.597 15.8021 123.486 16.1634 123.486 16.5801H121.035C121.035 15.9616 121.165 15.4082 121.426 14.9199C121.693 14.4251 122.054 14.0052 122.51 13.6602C122.972 13.3151 123.503 13.0514 124.102 12.8691C124.707 12.6803 125.345 12.5859 126.016 12.5859C126.797 12.5859 127.503 12.6738 128.135 12.8496C128.766 13.0189 129.31 13.2728 129.766 13.6113C130.221 13.9499 130.57 14.373 130.811 14.8809C131.051 15.3822 131.172 15.9648 131.172 16.6289C131.172 17.1172 131.058 17.5762 130.83 18.0059C130.609 18.4355 130.29 18.8132 129.873 19.1387C129.456 19.4642 128.955 19.7214 128.369 19.9102C127.79 20.0924 127.145 20.1836 126.436 20.1836ZM124.463 19.334H126.436C127.223 19.334 127.923 19.4154 128.535 19.5781C129.147 19.7409 129.665 19.9785 130.088 20.291C130.511 20.6035 130.833 20.9909 131.055 21.4531C131.276 21.9089 131.387 22.4329 131.387 23.0254C131.387 23.6895 131.253 24.2819 130.986 24.8027C130.726 25.3171 130.355 25.7533 129.873 26.1113C129.391 26.4694 128.822 26.7396 128.164 26.9219C127.513 27.1042 126.797 27.1953 126.016 27.1953C125.384 27.1953 124.759 27.1172 124.141 26.9609C123.529 26.7982 122.972 26.5508 122.471 26.2188C121.976 25.8802 121.579 25.4505 121.279 24.9297C120.98 24.4089 120.83 23.7839 120.83 23.0547H123.291C123.291 23.4583 123.405 23.8294 123.633 24.168C123.867 24.5 124.186 24.7669 124.59 24.9688C125 25.1641 125.475 25.2617 126.016 25.2617C126.634 25.2617 127.158 25.1641 127.588 24.9688C128.024 24.7734 128.356 24.5065 128.584 24.168C128.818 23.8294 128.936 23.4486 128.936 23.0254C128.936 22.6217 128.874 22.2734 128.75 21.9805C128.633 21.681 128.457 21.4401 128.223 21.2578C127.988 21.069 127.699 20.929 127.354 20.8379C127.008 20.7467 126.611 20.7012 126.162 20.7012H124.463V19.334Z" fill="#379BE4"/>
<path d="M77.2109 183.5C77.2109 183.5 75.2061 178 69.2109 173C63.2158 168 10.6924 176.5 4.21093 164" stroke="#379BE4" stroke-width="2"/>
<path d="M151.203 1.5C150.165 4.48334 155.685 151.5 149.203 164C142.722 176.5 90.1982 168 84.2031 173C78.208 178 76.2031 183.5 76.2031 183.5" stroke="#379BE4" stroke-width="2"/>
</svg>
