<svg width="154" height="184" viewBox="0 0 154 184" fill="none" xmlns="http://www.w3.org/2000/svg">
<line x1="32.7051" y1="42" x2="32.7051" y2="112" stroke="#379BE4" stroke-width="5"/>
<line x1="21.7051" y1="42" x2="21.7051" y2="120" stroke="#379BE4" stroke-width="5"/>
<line x1="11.7051" y1="11" x2="11.7051" y2="130" stroke="#379BE4" stroke-width="5"/>
<line x1="139.705" y1="11" x2="139.705" y2="127" stroke="#379BE4" stroke-width="5"/>
<line x1="129.705" y1="42" x2="129.705" y2="120" stroke="#379BE4" stroke-width="5"/>
<line x1="119.705" y1="42" x2="119.705" y2="112" stroke="#379BE4" stroke-width="5"/>
<line x1="34.2051" y1="110" x2="122.205" y2="110" stroke="#379BE4" stroke-width="4"/>
<line x1="23.2051" y1="118" x2="132.205" y2="118" stroke="#379BE4" stroke-width="4"/>
<line x1="13.2051" y1="128" x2="142.205" y2="128" stroke="#379BE4" stroke-width="4"/>
<line x1="19.2051" y1="41.5" x2="35.2051" y2="41.5" stroke="#379BE4"/>
<line x1="63.2051" y1="102.5" x2="89.2051" y2="102.5" stroke="#379BE4"/>
<line x1="57.2051" y1="98.5" x2="95.2051" y2="98.5" stroke="#379BE4"/>
<line x1="52.2051" y1="93.5" x2="101.205" y2="93.5" stroke="#379BE4"/>
<line x1="49.2051" y1="88.5" x2="104.205" y2="88.5" stroke="#379BE4"/>
<path d="M46.2051 82.5H106.205M45.2051 77.5H107.205" stroke="#379BE4"/>
<line x1="55.2051" y1="97.5" x2="97.2051" y2="97.5" stroke="#379BE4"/>
<line x1="50.2051" y1="92.5" x2="102.205" y2="92.5" stroke="#379BE4"/>
<line x1="47.2051" y1="87.5" x2="105.205" y2="87.5" stroke="#379BE4"/>
<line x1="46.2051" y1="81.5" x2="107.205" y2="81.5" stroke="#379BE4"/>
<line x1="44.2051" y1="72.5" x2="108.205" y2="72.5" stroke="#379BE4"/>
<line x1="46.2051" y1="67.5" x2="108.205" y2="67.5" stroke="#379BE4"/>
<line x1="46.2051" y1="61.5" x2="106.205" y2="61.5" stroke="#379BE4"/>
<line x1="49.2051" y1="56.5" x2="103.205" y2="56.5" stroke="#379BE4"/>
<line x1="45.2051" y1="71.5" x2="107.205" y2="71.5" stroke="#379BE4"/>
<line x1="46.2051" y1="66.5" x2="107.205" y2="66.5" stroke="#379BE4"/>
<line x1="47.2051" y1="60.5" x2="105.205" y2="60.5" stroke="#379BE4"/>
<line x1="50.2051" y1="55.5" x2="102.205" y2="55.5" stroke="#379BE4"/>
<line x1="55.2051" y1="49.5" x2="98.2051" y2="49.5" stroke="#379BE4"/>
<line x1="63.2051" y1="44.5" x2="90.2051" y2="44.5" stroke="#379BE4"/>
<line x1="62.2051" y1="45.5" x2="92.2051" y2="45.5" stroke="#379BE4"/>
<line x1="54.2051" y1="50.5" x2="99.2051" y2="50.5" stroke="#379BE4"/>
<line x1="44.2051" y1="76.5" x2="108.205" y2="76.5" stroke="#379BE4"/>
<line x1="66.2051" y1="103.5" x2="87.2051" y2="103.5" stroke="#379BE4"/>
<path d="M59.1204 128.392L76.4748 145.762L85.2205 137.008L93.9663 128.255" stroke="#379BE4" stroke-width="5"/>
<path d="M76.7051 136L70.2099 129.25H83.2003L76.7051 136Z" fill="#379BE4"/>
<path d="M50.5 150.781V165H48.0684V150.781H50.5ZM54.9629 150.781V152.734H43.6445V150.781H54.9629ZM61.8281 158.701V160.576H56.1641V158.701H61.8281ZM58.1758 154.434V165H55.8223V154.434H58.1758ZM60.0898 159.834V159.609C60.0898 158.848 60.2005 158.141 60.4219 157.49C60.6432 156.833 60.9655 156.263 61.3887 155.781C61.8118 155.293 62.3262 154.915 62.9316 154.648C63.5371 154.375 64.224 154.238 64.9922 154.238C65.7734 154.238 66.4668 154.375 67.0723 154.648C67.6842 154.915 68.2018 155.293 68.625 155.781C69.0482 156.263 69.3704 156.833 69.5918 157.49C69.8132 158.141 69.9238 158.848 69.9238 159.609V159.834C69.9238 160.596 69.8132 161.302 69.5918 161.953C69.3704 162.604 69.0482 163.174 68.625 163.662C68.2083 164.144 67.694 164.521 67.082 164.795C66.4766 165.062 65.7865 165.195 65.0117 165.195C64.237 165.195 63.5469 165.062 62.9414 164.795C62.3359 164.521 61.8184 164.144 61.3887 163.662C60.9655 163.174 60.6432 162.604 60.4219 161.953C60.2005 161.302 60.0898 160.596 60.0898 159.834ZM62.4531 159.609V159.834C62.4531 160.309 62.502 160.758 62.5996 161.182C62.6973 161.605 62.8503 161.976 63.0586 162.295C63.2669 162.614 63.5339 162.865 63.8594 163.047C64.1849 163.229 64.569 163.32 65.0117 163.32C65.4544 163.32 65.8353 163.229 66.1543 163.047C66.4798 162.865 66.7467 162.614 66.9551 162.295C67.1634 161.976 67.3164 161.605 67.4141 161.182C67.5182 160.758 67.5703 160.309 67.5703 159.834V159.609C67.5703 159.141 67.5182 158.698 67.4141 158.281C67.3164 157.858 67.1634 157.484 66.9551 157.158C66.7467 156.833 66.4798 156.579 66.1543 156.396C65.8288 156.208 65.4414 156.113 64.9922 156.113C64.556 156.113 64.1751 156.208 63.8496 156.396C63.5306 156.579 63.2669 156.833 63.0586 157.158C62.8503 157.484 62.6973 157.858 62.5996 158.281C62.502 158.698 62.4531 159.141 62.4531 159.609ZM78.1562 162.148L81.3008 154.434H83.3418L78.957 165H77.3555L72.9805 154.434H75.0215L78.1562 162.148ZM74.416 154.434V165H72.0625V154.434H74.416ZM81.8965 165V154.434H84.2598V165H81.8965ZM91.5547 165.195C90.7734 165.195 90.0671 165.068 89.4355 164.814C88.8105 164.554 88.2767 164.193 87.834 163.73C87.3978 163.268 87.0625 162.725 86.8281 162.1C86.5938 161.475 86.4766 160.801 86.4766 160.078V159.688C86.4766 158.861 86.597 158.112 86.8379 157.441C87.0788 156.771 87.4141 156.198 87.8438 155.723C88.2734 155.241 88.7812 154.873 89.3672 154.619C89.9531 154.365 90.5879 154.238 91.2715 154.238C92.0267 154.238 92.6875 154.365 93.2539 154.619C93.8203 154.873 94.2891 155.231 94.6602 155.693C95.0378 156.149 95.3177 156.693 95.5 157.324C95.6888 157.956 95.7832 158.652 95.7832 159.414V160.42H87.6191V158.73H93.459V158.545C93.446 158.122 93.3613 157.725 93.2051 157.354C93.0553 156.982 92.8242 156.683 92.5117 156.455C92.1992 156.227 91.7826 156.113 91.2617 156.113C90.8711 156.113 90.5228 156.198 90.2168 156.367C89.9173 156.53 89.6667 156.768 89.4648 157.08C89.263 157.393 89.1068 157.77 88.9961 158.213C88.8919 158.649 88.8398 159.141 88.8398 159.688V160.078C88.8398 160.54 88.9017 160.97 89.0254 161.367C89.1556 161.758 89.3444 162.1 89.5918 162.393C89.8392 162.686 90.1387 162.917 90.4902 163.086C90.8418 163.249 91.2422 163.33 91.6914 163.33C92.2578 163.33 92.7624 163.216 93.2051 162.988C93.6478 162.76 94.0319 162.438 94.3574 162.021L95.5977 163.223C95.3698 163.555 95.0736 163.874 94.709 164.18C94.3444 164.479 93.8984 164.723 93.3711 164.912C92.8503 165.101 92.2448 165.195 91.5547 165.195ZM104.836 158.848V160.703H99.3672V158.848H104.836ZM100.051 154.434V165H97.6973V154.434H100.051ZM106.535 154.434V165H104.182V154.434H106.535ZM110.793 157.793H113.908C114.82 157.793 115.594 157.946 116.232 158.252C116.87 158.558 117.355 158.984 117.688 159.531C118.026 160.072 118.195 160.69 118.195 161.387C118.195 161.901 118.101 162.38 117.912 162.822C117.723 163.258 117.443 163.639 117.072 163.965C116.708 164.29 116.258 164.544 115.725 164.727C115.197 164.909 114.592 165 113.908 165H109.23V154.434H111.594V163.135H113.908C114.377 163.135 114.751 163.053 115.031 162.891C115.311 162.728 115.513 162.516 115.637 162.256C115.767 161.995 115.832 161.719 115.832 161.426C115.832 161.126 115.767 160.843 115.637 160.576C115.513 160.309 115.311 160.091 115.031 159.922C114.751 159.753 114.377 159.668 113.908 159.668H110.793V157.793Z" fill="#379BE4"/>
<path d="M27.0723 23.0059L33.3809 12.7812H35.832V27H33.3809V16.7656L27.0723 27H24.6309V12.7812H27.0723V23.0059ZM45.7539 20.8477V22.7031H40.2852V20.8477H45.7539ZM40.9688 16.4336V27H38.6152V16.4336H40.9688ZM47.4531 16.4336V27H45.0996V16.4336H47.4531ZM56.9941 16.4336V18.3086H52.3848V27H50.0312V16.4336H56.9941ZM62.8242 27.1953C62.043 27.1953 61.3366 27.0684 60.7051 26.8145C60.0801 26.554 59.5462 26.1927 59.1035 25.7305C58.6673 25.2682 58.332 24.7246 58.0977 24.0996C57.8633 23.4746 57.7461 22.8008 57.7461 22.0781V21.6875C57.7461 20.8607 57.8665 20.112 58.1074 19.4414C58.3483 18.7708 58.6836 18.1979 59.1133 17.7227C59.543 17.2409 60.0508 16.873 60.6367 16.6191C61.2227 16.3652 61.8574 16.2383 62.541 16.2383C63.2962 16.2383 63.957 16.3652 64.5234 16.6191C65.0898 16.873 65.5586 17.2311 65.9297 17.6934C66.3073 18.1491 66.5872 18.6927 66.7695 19.3242C66.9583 19.9557 67.0527 20.6523 67.0527 21.4141V22.4199H58.8887V20.7305H64.7285V20.5449C64.7155 20.1217 64.6309 19.7246 64.4746 19.3535C64.3249 18.9824 64.0938 18.6829 63.7812 18.4551C63.4688 18.2272 63.0521 18.1133 62.5312 18.1133C62.1406 18.1133 61.7923 18.1979 61.4863 18.3672C61.1868 18.5299 60.9362 18.7676 60.7344 19.0801C60.5326 19.3926 60.3763 19.7702 60.2656 20.2129C60.1615 20.6491 60.1094 21.1406 60.1094 21.6875V22.0781C60.1094 22.5404 60.1712 22.9701 60.2949 23.3672C60.4251 23.7578 60.6139 24.0996 60.8613 24.3926C61.1087 24.6855 61.4082 24.9167 61.7598 25.0859C62.1113 25.2487 62.5117 25.3301 62.9609 25.3301C63.5273 25.3301 64.0319 25.2161 64.4746 24.9883C64.9173 24.7604 65.3014 24.4382 65.627 24.0215L66.8672 25.2227C66.6393 25.5547 66.3431 25.8737 65.9785 26.1797C65.6139 26.4792 65.168 26.7233 64.6406 26.9121C64.1198 27.1009 63.5143 27.1953 62.8242 27.1953ZM68.4395 21.834V21.6094C68.4395 20.8477 68.5501 20.1413 68.7715 19.4902C68.9928 18.8327 69.3118 18.263 69.7285 17.7812C70.1517 17.293 70.666 16.9154 71.2715 16.6484C71.8835 16.375 72.5736 16.2383 73.3418 16.2383C74.1165 16.2383 74.8066 16.375 75.4121 16.6484C76.0241 16.9154 76.5417 17.293 76.9648 17.7812C77.388 18.263 77.7103 18.8327 77.9316 19.4902C78.153 20.1413 78.2637 20.8477 78.2637 21.6094V21.834C78.2637 22.5957 78.153 23.3021 77.9316 23.9531C77.7103 24.6042 77.388 25.1738 76.9648 25.6621C76.5417 26.1439 76.0273 26.5215 75.4219 26.7949C74.8164 27.0618 74.1296 27.1953 73.3613 27.1953C72.5866 27.1953 71.8932 27.0618 71.2812 26.7949C70.6758 26.5215 70.1615 26.1439 69.7383 25.6621C69.3151 25.1738 68.9928 24.6042 68.7715 23.9531C68.5501 23.3021 68.4395 22.5957 68.4395 21.834ZM70.793 21.6094V21.834C70.793 22.3092 70.8418 22.7585 70.9395 23.1816C71.0371 23.6048 71.1901 23.9759 71.3984 24.2949C71.6068 24.6139 71.8737 24.8646 72.1992 25.0469C72.5247 25.2292 72.9121 25.3203 73.3613 25.3203C73.7975 25.3203 74.1751 25.2292 74.4941 25.0469C74.8197 24.8646 75.0866 24.6139 75.2949 24.2949C75.5033 23.9759 75.6562 23.6048 75.7539 23.1816C75.8581 22.7585 75.9102 22.3092 75.9102 21.834V21.6094C75.9102 21.1406 75.8581 20.6979 75.7539 20.2812C75.6562 19.8581 75.5 19.4837 75.2852 19.1582C75.0768 18.8327 74.8099 18.5788 74.4844 18.3965C74.1654 18.2077 73.7845 18.1133 73.3418 18.1133C72.8991 18.1133 72.515 18.2077 72.1895 18.3965C71.8704 18.5788 71.6068 18.8327 71.3984 19.1582C71.1901 19.4837 71.0371 19.8581 70.9395 20.2812C70.8418 20.6979 70.793 21.1406 70.793 21.6094ZM91.7207 12.7812V27H89.2793V14.7344H82.9609V27H80.5195V12.7812H91.7207ZM100.07 21.6973H96.3691V19.7539H100.07C100.715 19.7539 101.236 19.6497 101.633 19.4414C102.03 19.2331 102.32 18.9466 102.502 18.582C102.691 18.2109 102.785 17.7878 102.785 17.3125C102.785 16.8633 102.691 16.4434 102.502 16.0527C102.32 15.6556 102.03 15.3366 101.633 15.0957C101.236 14.8548 100.715 14.7344 100.07 14.7344H97.1211V27H94.6699V12.7812H100.07C101.171 12.7812 102.105 12.9766 102.873 13.3672C103.648 13.7513 104.237 14.2852 104.641 14.9688C105.044 15.6458 105.246 16.4206 105.246 17.293C105.246 18.2109 105.044 18.9987 104.641 19.6562C104.237 20.3138 103.648 20.8184 102.873 21.1699C102.105 21.5215 101.171 21.6973 100.07 21.6973ZM109.865 23.0059L116.174 12.7812H118.625V27H116.174V16.7656L109.865 27H107.424V12.7812H109.865V23.0059ZM126.438 20.1836H124.465V18.7871H126.164C126.77 18.7871 127.261 18.6992 127.639 18.5234C128.016 18.3411 128.29 18.0905 128.459 17.7715C128.635 17.446 128.723 17.0684 128.723 16.6387C128.723 16.2546 128.625 15.903 128.43 15.584C128.241 15.265 127.948 15.0111 127.551 14.8223C127.154 14.627 126.643 14.5293 126.018 14.5293C125.549 14.5293 125.122 14.6139 124.738 14.7832C124.354 14.9525 124.048 15.1901 123.82 15.4961C123.599 15.8021 123.488 16.1634 123.488 16.5801H121.037C121.037 15.9616 121.167 15.4082 121.428 14.9199C121.695 14.4251 122.056 14.0052 122.512 13.6602C122.974 13.3151 123.505 13.0514 124.104 12.8691C124.709 12.6803 125.347 12.5859 126.018 12.5859C126.799 12.5859 127.505 12.6738 128.137 12.8496C128.768 13.0189 129.312 13.2728 129.768 13.6113C130.223 13.9499 130.572 14.373 130.812 14.8809C131.053 15.3822 131.174 15.9648 131.174 16.6289C131.174 17.1172 131.06 17.5762 130.832 18.0059C130.611 18.4355 130.292 18.8132 129.875 19.1387C129.458 19.4642 128.957 19.7214 128.371 19.9102C127.792 20.0924 127.147 20.1836 126.438 20.1836ZM124.465 19.334H126.438C127.225 19.334 127.925 19.4154 128.537 19.5781C129.149 19.7409 129.667 19.9785 130.09 20.291C130.513 20.6035 130.835 20.9909 131.057 21.4531C131.278 21.9089 131.389 22.4329 131.389 23.0254C131.389 23.6895 131.255 24.2819 130.988 24.8027C130.728 25.3171 130.357 25.7533 129.875 26.1113C129.393 26.4694 128.824 26.7396 128.166 26.9219C127.515 27.1042 126.799 27.1953 126.018 27.1953C125.386 27.1953 124.761 27.1172 124.143 26.9609C123.531 26.7982 122.974 26.5508 122.473 26.2188C121.978 25.8802 121.581 25.4505 121.281 24.9297C120.982 24.4089 120.832 23.7839 120.832 23.0547H123.293C123.293 23.4583 123.407 23.8294 123.635 24.168C123.869 24.5 124.188 24.7669 124.592 24.9688C125.002 25.1641 125.477 25.2617 126.018 25.2617C126.636 25.2617 127.16 25.1641 127.59 24.9688C128.026 24.7734 128.358 24.5065 128.586 24.168C128.82 23.8294 128.938 23.4486 128.938 23.0254C128.938 22.6217 128.876 22.2734 128.752 21.9805C128.635 21.681 128.459 21.4401 128.225 21.2578C127.99 21.069 127.701 20.929 127.355 20.8379C127.01 20.7467 126.613 20.7012 126.164 20.7012H124.465V19.334Z" fill="#379BE4"/>
<line x1="1.20508" y1="1" x2="152.205" y2="1" stroke="#379BE4" stroke-width="2"/>
<path d="M2.20508 1C3.24335 3.98334 -2.27153 151.5 4.20995 164C10.6914 176.5 63.2148 168 69.21 173C75.2051 178 77.21 183.5 77.21 183.5" stroke="#379BE4" stroke-width="2"/>
<path d="M151.205 1.5C150.167 4.48334 155.687 151.5 149.205 164C142.724 176.5 90.2002 168 84.2051 173C78.21 178 76.2051 183.5 76.2051 183.5" stroke="#379BE4" stroke-width="2"/>
<line x1="32.7051" y1="42" x2="32.7051" y2="112" stroke="#379BE4" stroke-width="5"/>
<line x1="21.7051" y1="42" x2="21.7051" y2="120" stroke="#379BE4" stroke-width="5"/>
<line x1="11.7051" y1="11" x2="11.7051" y2="130" stroke="#379BE4" stroke-width="5"/>
<line x1="139.705" y1="11" x2="139.705" y2="127" stroke="#379BE4" stroke-width="5"/>
<line x1="129.705" y1="42" x2="129.705" y2="120" stroke="#379BE4" stroke-width="5"/>
<line x1="119.705" y1="42" x2="119.705" y2="112" stroke="#379BE4" stroke-width="5"/>
<line x1="34.2051" y1="110" x2="122.205" y2="110" stroke="#379BE4" stroke-width="4"/>
<line x1="23.2051" y1="118" x2="132.205" y2="118" stroke="#379BE4" stroke-width="4"/>
<line x1="13.2051" y1="128" x2="142.205" y2="128" stroke="#379BE4" stroke-width="4"/>
<line x1="19.2051" y1="41.5" x2="35.2051" y2="41.5" stroke="#379BE4"/>
<line x1="117.205" y1="42.5" x2="132.205" y2="42.5" stroke="#379BE4"/>
<line x1="63.2051" y1="102.5" x2="89.2051" y2="102.5" stroke="#379BE4"/>
<line x1="57.2051" y1="98.5" x2="95.2051" y2="98.5" stroke="#379BE4"/>
<line x1="52.2051" y1="93.5" x2="101.205" y2="93.5" stroke="#379BE4"/>
<line x1="49.2051" y1="88.5" x2="104.205" y2="88.5" stroke="#379BE4"/>
<path d="M46.2051 82.5H106.205M45.2051 77.5H107.205" stroke="#379BE4"/>
<line x1="55.2051" y1="97.5" x2="97.2051" y2="97.5" stroke="#379BE4"/>
<line x1="50.2051" y1="92.5" x2="102.205" y2="92.5" stroke="#379BE4"/>
<line x1="47.2051" y1="87.5" x2="105.205" y2="87.5" stroke="#379BE4"/>
<line x1="46.2051" y1="81.5" x2="107.205" y2="81.5" stroke="#379BE4"/>
<line x1="44.2051" y1="72.5" x2="108.205" y2="72.5" stroke="#379BE4"/>
<line x1="46.2051" y1="67.5" x2="108.205" y2="67.5" stroke="#379BE4"/>
<line x1="46.2051" y1="61.5" x2="106.205" y2="61.5" stroke="#379BE4"/>
<line x1="49.2051" y1="56.5" x2="103.205" y2="56.5" stroke="#379BE4"/>
<line x1="45.2051" y1="71.5" x2="107.205" y2="71.5" stroke="#379BE4"/>
<line x1="46.2051" y1="66.5" x2="107.205" y2="66.5" stroke="#379BE4"/>
<line x1="47.2051" y1="60.5" x2="105.205" y2="60.5" stroke="#379BE4"/>
<line x1="50.2051" y1="55.5" x2="102.205" y2="55.5" stroke="#379BE4"/>
<line x1="55.2051" y1="49.5" x2="98.2051" y2="49.5" stroke="#379BE4"/>
<line x1="63.2051" y1="44.5" x2="90.2051" y2="44.5" stroke="#379BE4"/>
<line x1="62.2051" y1="45.5" x2="92.2051" y2="45.5" stroke="#379BE4"/>
<line x1="54.2051" y1="50.5" x2="99.2051" y2="50.5" stroke="#379BE4"/>
<line x1="44.2051" y1="76.5" x2="108.205" y2="76.5" stroke="#379BE4"/>
<line x1="66.2051" y1="103.5" x2="87.2051" y2="103.5" stroke="#379BE4"/>
<path d="M59.1204 128.392L76.4748 145.762L85.2205 137.008L93.9663 128.255" stroke="#379BE4" stroke-width="5"/>
<path d="M76.7051 136L70.2099 129.25H83.2003L76.7051 136Z" fill="#379BE4"/>
<path d="M50.5 150.781V165H48.0684V150.781H50.5ZM54.9629 150.781V152.734H43.6445V150.781H54.9629ZM61.8281 158.701V160.576H56.1641V158.701H61.8281ZM58.1758 154.434V165H55.8223V154.434H58.1758ZM60.0898 159.834V159.609C60.0898 158.848 60.2005 158.141 60.4219 157.49C60.6432 156.833 60.9655 156.263 61.3887 155.781C61.8118 155.293 62.3262 154.915 62.9316 154.648C63.5371 154.375 64.224 154.238 64.9922 154.238C65.7734 154.238 66.4668 154.375 67.0723 154.648C67.6842 154.915 68.2018 155.293 68.625 155.781C69.0482 156.263 69.3704 156.833 69.5918 157.49C69.8132 158.141 69.9238 158.848 69.9238 159.609V159.834C69.9238 160.596 69.8132 161.302 69.5918 161.953C69.3704 162.604 69.0482 163.174 68.625 163.662C68.2083 164.144 67.694 164.521 67.082 164.795C66.4766 165.062 65.7865 165.195 65.0117 165.195C64.237 165.195 63.5469 165.062 62.9414 164.795C62.3359 164.521 61.8184 164.144 61.3887 163.662C60.9655 163.174 60.6432 162.604 60.4219 161.953C60.2005 161.302 60.0898 160.596 60.0898 159.834ZM62.4531 159.609V159.834C62.4531 160.309 62.502 160.758 62.5996 161.182C62.6973 161.605 62.8503 161.976 63.0586 162.295C63.2669 162.614 63.5339 162.865 63.8594 163.047C64.1849 163.229 64.569 163.32 65.0117 163.32C65.4544 163.32 65.8353 163.229 66.1543 163.047C66.4798 162.865 66.7467 162.614 66.9551 162.295C67.1634 161.976 67.3164 161.605 67.4141 161.182C67.5182 160.758 67.5703 160.309 67.5703 159.834V159.609C67.5703 159.141 67.5182 158.698 67.4141 158.281C67.3164 157.858 67.1634 157.484 66.9551 157.158C66.7467 156.833 66.4798 156.579 66.1543 156.396C65.8288 156.208 65.4414 156.113 64.9922 156.113C64.556 156.113 64.1751 156.208 63.8496 156.396C63.5306 156.579 63.2669 156.833 63.0586 157.158C62.8503 157.484 62.6973 157.858 62.5996 158.281C62.502 158.698 62.4531 159.141 62.4531 159.609ZM78.1562 162.148L81.3008 154.434H83.3418L78.957 165H77.3555L72.9805 154.434H75.0215L78.1562 162.148ZM74.416 154.434V165H72.0625V154.434H74.416ZM81.8965 165V154.434H84.2598V165H81.8965ZM91.5547 165.195C90.7734 165.195 90.0671 165.068 89.4355 164.814C88.8105 164.554 88.2767 164.193 87.834 163.73C87.3978 163.268 87.0625 162.725 86.8281 162.1C86.5938 161.475 86.4766 160.801 86.4766 160.078V159.688C86.4766 158.861 86.597 158.112 86.8379 157.441C87.0788 156.771 87.4141 156.198 87.8438 155.723C88.2734 155.241 88.7812 154.873 89.3672 154.619C89.9531 154.365 90.5879 154.238 91.2715 154.238C92.0267 154.238 92.6875 154.365 93.2539 154.619C93.8203 154.873 94.2891 155.231 94.6602 155.693C95.0378 156.149 95.3177 156.693 95.5 157.324C95.6888 157.956 95.7832 158.652 95.7832 159.414V160.42H87.6191V158.73H93.459V158.545C93.446 158.122 93.3613 157.725 93.2051 157.354C93.0553 156.982 92.8242 156.683 92.5117 156.455C92.1992 156.227 91.7826 156.113 91.2617 156.113C90.8711 156.113 90.5228 156.198 90.2168 156.367C89.9173 156.53 89.6667 156.768 89.4648 157.08C89.263 157.393 89.1068 157.77 88.9961 158.213C88.8919 158.649 88.8398 159.141 88.8398 159.688V160.078C88.8398 160.54 88.9017 160.97 89.0254 161.367C89.1556 161.758 89.3444 162.1 89.5918 162.393C89.8392 162.686 90.1387 162.917 90.4902 163.086C90.8418 163.249 91.2422 163.33 91.6914 163.33C92.2578 163.33 92.7624 163.216 93.2051 162.988C93.6478 162.76 94.0319 162.438 94.3574 162.021L95.5977 163.223C95.3698 163.555 95.0736 163.874 94.709 164.18C94.3444 164.479 93.8984 164.723 93.3711 164.912C92.8503 165.101 92.2448 165.195 91.5547 165.195ZM104.836 158.848V160.703H99.3672V158.848H104.836ZM100.051 154.434V165H97.6973V154.434H100.051ZM106.535 154.434V165H104.182V154.434H106.535ZM110.793 157.793H113.908C114.82 157.793 115.594 157.946 116.232 158.252C116.87 158.558 117.355 158.984 117.688 159.531C118.026 160.072 118.195 160.69 118.195 161.387C118.195 161.901 118.101 162.38 117.912 162.822C117.723 163.258 117.443 163.639 117.072 163.965C116.708 164.29 116.258 164.544 115.725 164.727C115.197 164.909 114.592 165 113.908 165H109.23V154.434H111.594V163.135H113.908C114.377 163.135 114.751 163.053 115.031 162.891C115.311 162.728 115.513 162.516 115.637 162.256C115.767 161.995 115.832 161.719 115.832 161.426C115.832 161.126 115.767 160.843 115.637 160.576C115.513 160.309 115.311 160.091 115.031 159.922C114.751 159.753 114.377 159.668 113.908 159.668H110.793V157.793Z" fill="#379BE4"/>
<path d="M27.0723 23.0059L33.3809 12.7812H35.832V27H33.3809V16.7656L27.0723 27H24.6309V12.7812H27.0723V23.0059ZM45.7539 20.8477V22.7031H40.2852V20.8477H45.7539ZM40.9688 16.4336V27H38.6152V16.4336H40.9688ZM47.4531 16.4336V27H45.0996V16.4336H47.4531ZM56.9941 16.4336V18.3086H52.3848V27H50.0312V16.4336H56.9941ZM62.8242 27.1953C62.043 27.1953 61.3366 27.0684 60.7051 26.8145C60.0801 26.554 59.5462 26.1927 59.1035 25.7305C58.6673 25.2682 58.332 24.7246 58.0977 24.0996C57.8633 23.4746 57.7461 22.8008 57.7461 22.0781V21.6875C57.7461 20.8607 57.8665 20.112 58.1074 19.4414C58.3483 18.7708 58.6836 18.1979 59.1133 17.7227C59.543 17.2409 60.0508 16.873 60.6367 16.6191C61.2227 16.3652 61.8574 16.2383 62.541 16.2383C63.2962 16.2383 63.957 16.3652 64.5234 16.6191C65.0898 16.873 65.5586 17.2311 65.9297 17.6934C66.3073 18.1491 66.5872 18.6927 66.7695 19.3242C66.9583 19.9557 67.0527 20.6523 67.0527 21.4141V22.4199H58.8887V20.7305H64.7285V20.5449C64.7155 20.1217 64.6309 19.7246 64.4746 19.3535C64.3249 18.9824 64.0938 18.6829 63.7812 18.4551C63.4688 18.2272 63.0521 18.1133 62.5312 18.1133C62.1406 18.1133 61.7923 18.1979 61.4863 18.3672C61.1868 18.5299 60.9362 18.7676 60.7344 19.0801C60.5326 19.3926 60.3763 19.7702 60.2656 20.2129C60.1615 20.6491 60.1094 21.1406 60.1094 21.6875V22.0781C60.1094 22.5404 60.1712 22.9701 60.2949 23.3672C60.4251 23.7578 60.6139 24.0996 60.8613 24.3926C61.1087 24.6855 61.4082 24.9167 61.7598 25.0859C62.1113 25.2487 62.5117 25.3301 62.9609 25.3301C63.5273 25.3301 64.0319 25.2161 64.4746 24.9883C64.9173 24.7604 65.3014 24.4382 65.627 24.0215L66.8672 25.2227C66.6393 25.5547 66.3431 25.8737 65.9785 26.1797C65.6139 26.4792 65.168 26.7233 64.6406 26.9121C64.1198 27.1009 63.5143 27.1953 62.8242 27.1953ZM68.4395 21.834V21.6094C68.4395 20.8477 68.5501 20.1413 68.7715 19.4902C68.9928 18.8327 69.3118 18.263 69.7285 17.7812C70.1517 17.293 70.666 16.9154 71.2715 16.6484C71.8835 16.375 72.5736 16.2383 73.3418 16.2383C74.1165 16.2383 74.8066 16.375 75.4121 16.6484C76.0241 16.9154 76.5417 17.293 76.9648 17.7812C77.388 18.263 77.7103 18.8327 77.9316 19.4902C78.153 20.1413 78.2637 20.8477 78.2637 21.6094V21.834C78.2637 22.5957 78.153 23.3021 77.9316 23.9531C77.7103 24.6042 77.388 25.1738 76.9648 25.6621C76.5417 26.1439 76.0273 26.5215 75.4219 26.7949C74.8164 27.0618 74.1296 27.1953 73.3613 27.1953C72.5866 27.1953 71.8932 27.0618 71.2812 26.7949C70.6758 26.5215 70.1615 26.1439 69.7383 25.6621C69.3151 25.1738 68.9928 24.6042 68.7715 23.9531C68.5501 23.3021 68.4395 22.5957 68.4395 21.834ZM70.793 21.6094V21.834C70.793 22.3092 70.8418 22.7585 70.9395 23.1816C71.0371 23.6048 71.1901 23.9759 71.3984 24.2949C71.6068 24.6139 71.8737 24.8646 72.1992 25.0469C72.5247 25.2292 72.9121 25.3203 73.3613 25.3203C73.7975 25.3203 74.1751 25.2292 74.4941 25.0469C74.8197 24.8646 75.0866 24.6139 75.2949 24.2949C75.5033 23.9759 75.6562 23.6048 75.7539 23.1816C75.8581 22.7585 75.9102 22.3092 75.9102 21.834V21.6094C75.9102 21.1406 75.8581 20.6979 75.7539 20.2812C75.6562 19.8581 75.5 19.4837 75.2852 19.1582C75.0768 18.8327 74.8099 18.5788 74.4844 18.3965C74.1654 18.2077 73.7845 18.1133 73.3418 18.1133C72.8991 18.1133 72.515 18.2077 72.1895 18.3965C71.8704 18.5788 71.6068 18.8327 71.3984 19.1582C71.1901 19.4837 71.0371 19.8581 70.9395 20.2812C70.8418 20.6979 70.793 21.1406 70.793 21.6094ZM91.7207 12.7812V27H89.2793V14.7344H82.9609V27H80.5195V12.7812H91.7207ZM100.07 21.6973H96.3691V19.7539H100.07C100.715 19.7539 101.236 19.6497 101.633 19.4414C102.03 19.2331 102.32 18.9466 102.502 18.582C102.691 18.2109 102.785 17.7878 102.785 17.3125C102.785 16.8633 102.691 16.4434 102.502 16.0527C102.32 15.6556 102.03 15.3366 101.633 15.0957C101.236 14.8548 100.715 14.7344 100.07 14.7344H97.1211V27H94.6699V12.7812H100.07C101.171 12.7812 102.105 12.9766 102.873 13.3672C103.648 13.7513 104.237 14.2852 104.641 14.9688C105.044 15.6458 105.246 16.4206 105.246 17.293C105.246 18.2109 105.044 18.9987 104.641 19.6562C104.237 20.3138 103.648 20.8184 102.873 21.1699C102.105 21.5215 101.171 21.6973 100.07 21.6973ZM109.865 23.0059L116.174 12.7812H118.625V27H116.174V16.7656L109.865 27H107.424V12.7812H109.865V23.0059ZM126.438 20.1836H124.465V18.7871H126.164C126.77 18.7871 127.261 18.6992 127.639 18.5234C128.016 18.3411 128.29 18.0905 128.459 17.7715C128.635 17.446 128.723 17.0684 128.723 16.6387C128.723 16.2546 128.625 15.903 128.43 15.584C128.241 15.265 127.948 15.0111 127.551 14.8223C127.154 14.627 126.643 14.5293 126.018 14.5293C125.549 14.5293 125.122 14.6139 124.738 14.7832C124.354 14.9525 124.048 15.1901 123.82 15.4961C123.599 15.8021 123.488 16.1634 123.488 16.5801H121.037C121.037 15.9616 121.167 15.4082 121.428 14.9199C121.695 14.4251 122.056 14.0052 122.512 13.6602C122.974 13.3151 123.505 13.0514 124.104 12.8691C124.709 12.6803 125.347 12.5859 126.018 12.5859C126.799 12.5859 127.505 12.6738 128.137 12.8496C128.768 13.0189 129.312 13.2728 129.768 13.6113C130.223 13.9499 130.572 14.373 130.812 14.8809C131.053 15.3822 131.174 15.9648 131.174 16.6289C131.174 17.1172 131.06 17.5762 130.832 18.0059C130.611 18.4355 130.292 18.8132 129.875 19.1387C129.458 19.4642 128.957 19.7214 128.371 19.9102C127.792 20.0924 127.147 20.1836 126.438 20.1836ZM124.465 19.334H126.438C127.225 19.334 127.925 19.4154 128.537 19.5781C129.149 19.7409 129.667 19.9785 130.09 20.291C130.513 20.6035 130.835 20.9909 131.057 21.4531C131.278 21.9089 131.389 22.4329 131.389 23.0254C131.389 23.6895 131.255 24.2819 130.988 24.8027C130.728 25.3171 130.357 25.7533 129.875 26.1113C129.393 26.4694 128.824 26.7396 128.166 26.9219C127.515 27.1042 126.799 27.1953 126.018 27.1953C125.386 27.1953 124.761 27.1172 124.143 26.9609C123.531 26.7982 122.974 26.5508 122.473 26.2188C121.978 25.8802 121.581 25.4505 121.281 24.9297C120.982 24.4089 120.832 23.7839 120.832 23.0547H123.293C123.293 23.4583 123.407 23.8294 123.635 24.168C123.869 24.5 124.188 24.7669 124.592 24.9688C125.002 25.1641 125.477 25.2617 126.018 25.2617C126.636 25.2617 127.16 25.1641 127.59 24.9688C128.026 24.7734 128.358 24.5065 128.586 24.168C128.82 23.8294 128.938 23.4486 128.938 23.0254C128.938 22.6217 128.876 22.2734 128.752 21.9805C128.635 21.681 128.459 21.4401 128.225 21.2578C127.99 21.069 127.701 20.929 127.355 20.8379C127.01 20.7467 126.613 20.7012 126.164 20.7012H124.465V19.334Z" fill="#379BE4"/>
<line x1="1.20508" y1="1" x2="152.205" y2="1" stroke="#379BE4" stroke-width="2"/>
<path d="M2.20508 1C3.24335 3.98334 -2.27153 151.5 4.20995 164C10.6914 176.5 63.2148 168 69.21 173C75.2051 178 77.21 183.5 77.21 183.5" stroke="#379BE4" stroke-width="2"/>
<path d="M151.205 1.5C150.167 4.48334 155.687 151.5 149.205 164C142.724 176.5 90.2002 168 84.2051 173C78.21 178 76.2051 183.5 76.2051 183.5" stroke="#379BE4" stroke-width="2"/>
<line x1="32.7051" y1="42" x2="32.7051" y2="112" stroke="#379BE4" stroke-width="5"/>
<line x1="21.7051" y1="42" x2="21.7051" y2="120" stroke="#379BE4" stroke-width="5"/>
<line x1="139.705" y1="11" x2="139.705" y2="127" stroke="#379BE4" stroke-width="5"/>
<line x1="129.705" y1="42" x2="129.705" y2="120" stroke="#379BE4" stroke-width="5"/>
<line x1="119.705" y1="42" x2="119.705" y2="112" stroke="#379BE4" stroke-width="5"/>
<line x1="34.2051" y1="110" x2="122.205" y2="110" stroke="#379BE4" stroke-width="4"/>
<line x1="23.2051" y1="118" x2="132.205" y2="118" stroke="#379BE4" stroke-width="4"/>
<line x1="13.2051" y1="128" x2="142.205" y2="128" stroke="#379BE4" stroke-width="4"/>
<line x1="19.2051" y1="41.5" x2="35.2051" y2="41.5" stroke="#379BE4"/>
<line x1="63.2051" y1="102.5" x2="89.2051" y2="102.5" stroke="#379BE4"/>
<line x1="57.2051" y1="98.5" x2="95.2051" y2="98.5" stroke="#379BE4"/>
<line x1="52.2051" y1="93.5" x2="101.205" y2="93.5" stroke="#379BE4"/>
<line x1="49.2051" y1="88.5" x2="104.205" y2="88.5" stroke="#379BE4"/>
<path d="M46.2051 82.5H106.205M45.2051 77.5H107.205" stroke="#379BE4"/>
<line x1="55.2051" y1="97.5" x2="97.2051" y2="97.5" stroke="#379BE4"/>
<line x1="50.2051" y1="92.5" x2="102.205" y2="92.5" stroke="#379BE4"/>
<line x1="47.2051" y1="87.5" x2="105.205" y2="87.5" stroke="#379BE4"/>
<line x1="46.2051" y1="81.5" x2="107.205" y2="81.5" stroke="#379BE4"/>
<line x1="44.2051" y1="72.5" x2="108.205" y2="72.5" stroke="#379BE4"/>
<line x1="46.2051" y1="67.5" x2="108.205" y2="67.5" stroke="#379BE4"/>
<line x1="46.2051" y1="61.5" x2="106.205" y2="61.5" stroke="#379BE4"/>
<line x1="49.2051" y1="56.5" x2="103.205" y2="56.5" stroke="#379BE4"/>
<line x1="45.2051" y1="71.5" x2="107.205" y2="71.5" stroke="#379BE4"/>
<line x1="46.2051" y1="66.5" x2="107.205" y2="66.5" stroke="#379BE4"/>
<line x1="47.2051" y1="60.5" x2="105.205" y2="60.5" stroke="#379BE4"/>
<line x1="50.2051" y1="55.5" x2="102.205" y2="55.5" stroke="#379BE4"/>
<line x1="55.2051" y1="49.5" x2="98.2051" y2="49.5" stroke="#379BE4"/>
<line x1="63.2051" y1="44.5" x2="90.2051" y2="44.5" stroke="#379BE4"/>
<line x1="62.2051" y1="45.5" x2="92.2051" y2="45.5" stroke="#379BE4"/>
<line x1="54.2051" y1="50.5" x2="99.2051" y2="50.5" stroke="#379BE4"/>
<line x1="44.2051" y1="76.5" x2="108.205" y2="76.5" stroke="#379BE4"/>
<line x1="66.2051" y1="103.5" x2="87.2051" y2="103.5" stroke="#379BE4"/>
<path d="M59.1204 128.392L76.4748 145.762L85.2205 137.008L93.9663 128.255" stroke="#379BE4" stroke-width="5"/>
<path d="M76.7051 136L70.2099 129.25H83.2003L76.7051 136Z" fill="#379BE4"/>
<path d="M50.5 150.781V165H48.0684V150.781H50.5ZM54.9629 150.781V152.734H43.6445V150.781H54.9629ZM61.8281 158.701V160.576H56.1641V158.701H61.8281ZM58.1758 154.434V165H55.8223V154.434H58.1758ZM60.0898 159.834V159.609C60.0898 158.848 60.2005 158.141 60.4219 157.49C60.6432 156.833 60.9655 156.263 61.3887 155.781C61.8118 155.293 62.3262 154.915 62.9316 154.648C63.5371 154.375 64.224 154.238 64.9922 154.238C65.7734 154.238 66.4668 154.375 67.0723 154.648C67.6842 154.915 68.2018 155.293 68.625 155.781C69.0482 156.263 69.3704 156.833 69.5918 157.49C69.8132 158.141 69.9238 158.848 69.9238 159.609V159.834C69.9238 160.596 69.8132 161.302 69.5918 161.953C69.3704 162.604 69.0482 163.174 68.625 163.662C68.2083 164.144 67.694 164.521 67.082 164.795C66.4766 165.062 65.7865 165.195 65.0117 165.195C64.237 165.195 63.5469 165.062 62.9414 164.795C62.3359 164.521 61.8184 164.144 61.3887 163.662C60.9655 163.174 60.6432 162.604 60.4219 161.953C60.2005 161.302 60.0898 160.596 60.0898 159.834ZM62.4531 159.609V159.834C62.4531 160.309 62.502 160.758 62.5996 161.182C62.6973 161.605 62.8503 161.976 63.0586 162.295C63.2669 162.614 63.5339 162.865 63.8594 163.047C64.1849 163.229 64.569 163.32 65.0117 163.32C65.4544 163.32 65.8353 163.229 66.1543 163.047C66.4798 162.865 66.7467 162.614 66.9551 162.295C67.1634 161.976 67.3164 161.605 67.4141 161.182C67.5182 160.758 67.5703 160.309 67.5703 159.834V159.609C67.5703 159.141 67.5182 158.698 67.4141 158.281C67.3164 157.858 67.1634 157.484 66.9551 157.158C66.7467 156.833 66.4798 156.579 66.1543 156.396C65.8288 156.208 65.4414 156.113 64.9922 156.113C64.556 156.113 64.1751 156.208 63.8496 156.396C63.5306 156.579 63.2669 156.833 63.0586 157.158C62.8503 157.484 62.6973 157.858 62.5996 158.281C62.502 158.698 62.4531 159.141 62.4531 159.609ZM78.1562 162.148L81.3008 154.434H83.3418L78.957 165H77.3555L72.9805 154.434H75.0215L78.1562 162.148ZM74.416 154.434V165H72.0625V154.434H74.416ZM81.8965 165V154.434H84.2598V165H81.8965ZM91.5547 165.195C90.7734 165.195 90.0671 165.068 89.4355 164.814C88.8105 164.554 88.2767 164.193 87.834 163.73C87.3978 163.268 87.0625 162.725 86.8281 162.1C86.5938 161.475 86.4766 160.801 86.4766 160.078V159.688C86.4766 158.861 86.597 158.112 86.8379 157.441C87.0788 156.771 87.4141 156.198 87.8438 155.723C88.2734 155.241 88.7812 154.873 89.3672 154.619C89.9531 154.365 90.5879 154.238 91.2715 154.238C92.0267 154.238 92.6875 154.365 93.2539 154.619C93.8203 154.873 94.2891 155.231 94.6602 155.693C95.0378 156.149 95.3177 156.693 95.5 157.324C95.6888 157.956 95.7832 158.652 95.7832 159.414V160.42H87.6191V158.73H93.459V158.545C93.446 158.122 93.3613 157.725 93.2051 157.354C93.0553 156.982 92.8242 156.683 92.5117 156.455C92.1992 156.227 91.7826 156.113 91.2617 156.113C90.8711 156.113 90.5228 156.198 90.2168 156.367C89.9173 156.53 89.6667 156.768 89.4648 157.08C89.263 157.393 89.1068 157.77 88.9961 158.213C88.8919 158.649 88.8398 159.141 88.8398 159.688V160.078C88.8398 160.54 88.9017 160.97 89.0254 161.367C89.1556 161.758 89.3444 162.1 89.5918 162.393C89.8392 162.686 90.1387 162.917 90.4902 163.086C90.8418 163.249 91.2422 163.33 91.6914 163.33C92.2578 163.33 92.7624 163.216 93.2051 162.988C93.6478 162.76 94.0319 162.438 94.3574 162.021L95.5977 163.223C95.3698 163.555 95.0736 163.874 94.709 164.18C94.3444 164.479 93.8984 164.723 93.3711 164.912C92.8503 165.101 92.2448 165.195 91.5547 165.195ZM104.836 158.848V160.703H99.3672V158.848H104.836ZM100.051 154.434V165H97.6973V154.434H100.051ZM106.535 154.434V165H104.182V154.434H106.535ZM110.793 157.793H113.908C114.82 157.793 115.594 157.946 116.232 158.252C116.87 158.558 117.355 158.984 117.688 159.531C118.026 160.072 118.195 160.69 118.195 161.387C118.195 161.901 118.101 162.38 117.912 162.822C117.723 163.258 117.443 163.639 117.072 163.965C116.708 164.29 116.258 164.544 115.725 164.727C115.197 164.909 114.592 165 113.908 165H109.23V154.434H111.594V163.135H113.908C114.377 163.135 114.751 163.053 115.031 162.891C115.311 162.728 115.513 162.516 115.637 162.256C115.767 161.995 115.832 161.719 115.832 161.426C115.832 161.126 115.767 160.843 115.637 160.576C115.513 160.309 115.311 160.091 115.031 159.922C114.751 159.753 114.377 159.668 113.908 159.668H110.793V157.793Z" fill="#379BE4"/>
<path d="M27.0723 23.0059L33.3809 12.7812H35.832V27H33.3809V16.7656L27.0723 27H24.6309V12.7812H27.0723V23.0059ZM45.7539 20.8477V22.7031H40.2852V20.8477H45.7539ZM40.9688 16.4336V27H38.6152V16.4336H40.9688ZM47.4531 16.4336V27H45.0996V16.4336H47.4531ZM56.9941 16.4336V18.3086H52.3848V27H50.0312V16.4336H56.9941ZM62.8242 27.1953C62.043 27.1953 61.3366 27.0684 60.7051 26.8145C60.0801 26.554 59.5462 26.1927 59.1035 25.7305C58.6673 25.2682 58.332 24.7246 58.0977 24.0996C57.8633 23.4746 57.7461 22.8008 57.7461 22.0781V21.6875C57.7461 20.8607 57.8665 20.112 58.1074 19.4414C58.3483 18.7708 58.6836 18.1979 59.1133 17.7227C59.543 17.2409 60.0508 16.873 60.6367 16.6191C61.2227 16.3652 61.8574 16.2383 62.541 16.2383C63.2962 16.2383 63.957 16.3652 64.5234 16.6191C65.0898 16.873 65.5586 17.2311 65.9297 17.6934C66.3073 18.1491 66.5872 18.6927 66.7695 19.3242C66.9583 19.9557 67.0527 20.6523 67.0527 21.4141V22.4199H58.8887V20.7305H64.7285V20.5449C64.7155 20.1217 64.6309 19.7246 64.4746 19.3535C64.3249 18.9824 64.0938 18.6829 63.7812 18.4551C63.4688 18.2272 63.0521 18.1133 62.5312 18.1133C62.1406 18.1133 61.7923 18.1979 61.4863 18.3672C61.1868 18.5299 60.9362 18.7676 60.7344 19.0801C60.5326 19.3926 60.3763 19.7702 60.2656 20.2129C60.1615 20.6491 60.1094 21.1406 60.1094 21.6875V22.0781C60.1094 22.5404 60.1712 22.9701 60.2949 23.3672C60.4251 23.7578 60.6139 24.0996 60.8613 24.3926C61.1087 24.6855 61.4082 24.9167 61.7598 25.0859C62.1113 25.2487 62.5117 25.3301 62.9609 25.3301C63.5273 25.3301 64.0319 25.2161 64.4746 24.9883C64.9173 24.7604 65.3014 24.4382 65.627 24.0215L66.8672 25.2227C66.6393 25.5547 66.3431 25.8737 65.9785 26.1797C65.6139 26.4792 65.168 26.7233 64.6406 26.9121C64.1198 27.1009 63.5143 27.1953 62.8242 27.1953ZM68.4395 21.834V21.6094C68.4395 20.8477 68.5501 20.1413 68.7715 19.4902C68.9928 18.8327 69.3118 18.263 69.7285 17.7812C70.1517 17.293 70.666 16.9154 71.2715 16.6484C71.8835 16.375 72.5736 16.2383 73.3418 16.2383C74.1165 16.2383 74.8066 16.375 75.4121 16.6484C76.0241 16.9154 76.5417 17.293 76.9648 17.7812C77.388 18.263 77.7103 18.8327 77.9316 19.4902C78.153 20.1413 78.2637 20.8477 78.2637 21.6094V21.834C78.2637 22.5957 78.153 23.3021 77.9316 23.9531C77.7103 24.6042 77.388 25.1738 76.9648 25.6621C76.5417 26.1439 76.0273 26.5215 75.4219 26.7949C74.8164 27.0618 74.1296 27.1953 73.3613 27.1953C72.5866 27.1953 71.8932 27.0618 71.2812 26.7949C70.6758 26.5215 70.1615 26.1439 69.7383 25.6621C69.3151 25.1738 68.9928 24.6042 68.7715 23.9531C68.5501 23.3021 68.4395 22.5957 68.4395 21.834ZM70.793 21.6094V21.834C70.793 22.3092 70.8418 22.7585 70.9395 23.1816C71.0371 23.6048 71.1901 23.9759 71.3984 24.2949C71.6068 24.6139 71.8737 24.8646 72.1992 25.0469C72.5247 25.2292 72.9121 25.3203 73.3613 25.3203C73.7975 25.3203 74.1751 25.2292 74.4941 25.0469C74.8197 24.8646 75.0866 24.6139 75.2949 24.2949C75.5033 23.9759 75.6562 23.6048 75.7539 23.1816C75.8581 22.7585 75.9102 22.3092 75.9102 21.834V21.6094C75.9102 21.1406 75.8581 20.6979 75.7539 20.2812C75.6562 19.8581 75.5 19.4837 75.2852 19.1582C75.0768 18.8327 74.8099 18.5788 74.4844 18.3965C74.1654 18.2077 73.7845 18.1133 73.3418 18.1133C72.8991 18.1133 72.515 18.2077 72.1895 18.3965C71.8704 18.5788 71.6068 18.8327 71.3984 19.1582C71.1901 19.4837 71.0371 19.8581 70.9395 20.2812C70.8418 20.6979 70.793 21.1406 70.793 21.6094ZM91.7207 12.7812V27H89.2793V14.7344H82.9609V27H80.5195V12.7812H91.7207ZM100.07 21.6973H96.3691V19.7539H100.07C100.715 19.7539 101.236 19.6497 101.633 19.4414C102.03 19.2331 102.32 18.9466 102.502 18.582C102.691 18.2109 102.785 17.7878 102.785 17.3125C102.785 16.8633 102.691 16.4434 102.502 16.0527C102.32 15.6556 102.03 15.3366 101.633 15.0957C101.236 14.8548 100.715 14.7344 100.07 14.7344H97.1211V27H94.6699V12.7812H100.07C101.171 12.7812 102.105 12.9766 102.873 13.3672C103.648 13.7513 104.237 14.2852 104.641 14.9688C105.044 15.6458 105.246 16.4206 105.246 17.293C105.246 18.2109 105.044 18.9987 104.641 19.6562C104.237 20.3138 103.648 20.8184 102.873 21.1699C102.105 21.5215 101.171 21.6973 100.07 21.6973ZM109.865 23.0059L116.174 12.7812H118.625V27H116.174V16.7656L109.865 27H107.424V12.7812H109.865V23.0059ZM126.438 20.1836H124.465V18.7871H126.164C126.77 18.7871 127.261 18.6992 127.639 18.5234C128.016 18.3411 128.29 18.0905 128.459 17.7715C128.635 17.446 128.723 17.0684 128.723 16.6387C128.723 16.2546 128.625 15.903 128.43 15.584C128.241 15.265 127.948 15.0111 127.551 14.8223C127.154 14.627 126.643 14.5293 126.018 14.5293C125.549 14.5293 125.122 14.6139 124.738 14.7832C124.354 14.9525 124.048 15.1901 123.82 15.4961C123.599 15.8021 123.488 16.1634 123.488 16.5801H121.037C121.037 15.9616 121.167 15.4082 121.428 14.9199C121.695 14.4251 122.056 14.0052 122.512 13.6602C122.974 13.3151 123.505 13.0514 124.104 12.8691C124.709 12.6803 125.347 12.5859 126.018 12.5859C126.799 12.5859 127.505 12.6738 128.137 12.8496C128.768 13.0189 129.312 13.2728 129.768 13.6113C130.223 13.9499 130.572 14.373 130.812 14.8809C131.053 15.3822 131.174 15.9648 131.174 16.6289C131.174 17.1172 131.06 17.5762 130.832 18.0059C130.611 18.4355 130.292 18.8132 129.875 19.1387C129.458 19.4642 128.957 19.7214 128.371 19.9102C127.792 20.0924 127.147 20.1836 126.438 20.1836ZM124.465 19.334H126.438C127.225 19.334 127.925 19.4154 128.537 19.5781C129.149 19.7409 129.667 19.9785 130.09 20.291C130.513 20.6035 130.835 20.9909 131.057 21.4531C131.278 21.9089 131.389 22.4329 131.389 23.0254C131.389 23.6895 131.255 24.2819 130.988 24.8027C130.728 25.3171 130.357 25.7533 129.875 26.1113C129.393 26.4694 128.824 26.7396 128.166 26.9219C127.515 27.1042 126.799 27.1953 126.018 27.1953C125.386 27.1953 124.761 27.1172 124.143 26.9609C123.531 26.7982 122.974 26.5508 122.473 26.2188C121.978 25.8802 121.581 25.4505 121.281 24.9297C120.982 24.4089 120.832 23.7839 120.832 23.0547H123.293C123.293 23.4583 123.407 23.8294 123.635 24.168C123.869 24.5 124.188 24.7669 124.592 24.9688C125.002 25.1641 125.477 25.2617 126.018 25.2617C126.636 25.2617 127.16 25.1641 127.59 24.9688C128.026 24.7734 128.358 24.5065 128.586 24.168C128.82 23.8294 128.938 23.4486 128.938 23.0254C128.938 22.6217 128.876 22.2734 128.752 21.9805C128.635 21.681 128.459 21.4401 128.225 21.2578C127.99 21.069 127.701 20.929 127.355 20.8379C127.01 20.7467 126.613 20.7012 126.164 20.7012H124.465V19.334Z" fill="#379BE4"/>
<line x1="1.20508" y1="1" x2="152.205" y2="1" stroke="#379BE4" stroke-width="2"/>
<path d="M2.20508 1C3.24335 3.98334 -2.27153 151.5 4.20995 164C10.6914 176.5 63.2148 168 69.21 173C75.2051 178 77.21 183.5 77.21 183.5" stroke="#379BE4" stroke-width="2"/>
<path d="M151.205 1.5C150.167 4.48334 155.687 151.5 149.205 164C142.724 176.5 90.2002 168 84.2051 173C78.21 178 76.2051 183.5 76.2051 183.5" stroke="#379BE4" stroke-width="2"/>
<line x1="32.7051" y1="42" x2="32.7051" y2="112" stroke="#379BE4" stroke-width="5"/>
<line x1="21.7051" y1="42" x2="21.7051" y2="120" stroke="#379BE4" stroke-width="5"/>
<line x1="139.705" y1="11" x2="139.705" y2="127" stroke="#379BE4" stroke-width="5"/>
<line x1="129.705" y1="42" x2="129.705" y2="120" stroke="#379BE4" stroke-width="5"/>
<line x1="119.705" y1="42" x2="119.705" y2="112" stroke="#379BE4" stroke-width="5"/>
<line x1="34.2051" y1="110" x2="122.205" y2="110" stroke="#379BE4" stroke-width="4"/>
<line x1="23.2051" y1="118" x2="132.205" y2="118" stroke="#379BE4" stroke-width="4"/>
<line x1="13.2051" y1="128" x2="142.205" y2="128" stroke="#379BE4" stroke-width="4"/>
<line x1="19.2051" y1="41.5" x2="35.2051" y2="41.5" stroke="#379BE4"/>
<line x1="117.205" y1="42.5" x2="132.205" y2="42.5" stroke="#379BE4"/>
<line x1="63.2051" y1="102.5" x2="89.2051" y2="102.5" stroke="#379BE4"/>
<line x1="57.2051" y1="98.5" x2="95.2051" y2="98.5" stroke="#379BE4"/>
<line x1="52.2051" y1="93.5" x2="101.205" y2="93.5" stroke="#379BE4"/>
<line x1="49.2051" y1="88.5" x2="104.205" y2="88.5" stroke="#379BE4"/>
<path d="M46.2051 82.5H106.205M45.2051 77.5H107.205" stroke="#379BE4"/>
<line x1="55.2051" y1="97.5" x2="97.2051" y2="97.5" stroke="#379BE4"/>
<line x1="50.2051" y1="92.5" x2="102.205" y2="92.5" stroke="#379BE4"/>
<line x1="47.2051" y1="87.5" x2="105.205" y2="87.5" stroke="#379BE4"/>
<line x1="46.2051" y1="81.5" x2="107.205" y2="81.5" stroke="#379BE4"/>
<line x1="44.2051" y1="72.5" x2="108.205" y2="72.5" stroke="#379BE4"/>
<line x1="46.2051" y1="67.5" x2="108.205" y2="67.5" stroke="#379BE4"/>
<line x1="46.2051" y1="61.5" x2="106.205" y2="61.5" stroke="#379BE4"/>
<line x1="49.2051" y1="56.5" x2="103.205" y2="56.5" stroke="#379BE4"/>
<line x1="45.2051" y1="71.5" x2="107.205" y2="71.5" stroke="#379BE4"/>
<line x1="46.2051" y1="66.5" x2="107.205" y2="66.5" stroke="#379BE4"/>
<line x1="47.2051" y1="60.5" x2="105.205" y2="60.5" stroke="#379BE4"/>
<line x1="50.2051" y1="55.5" x2="102.205" y2="55.5" stroke="#379BE4"/>
<line x1="55.2051" y1="49.5" x2="98.2051" y2="49.5" stroke="#379BE4"/>
<line x1="63.2051" y1="44.5" x2="90.2051" y2="44.5" stroke="#379BE4"/>
<line x1="62.2051" y1="45.5" x2="92.2051" y2="45.5" stroke="#379BE4"/>
<line x1="54.2051" y1="50.5" x2="99.2051" y2="50.5" stroke="#379BE4"/>
<line x1="44.2051" y1="76.5" x2="108.205" y2="76.5" stroke="#379BE4"/>
<line x1="66.2051" y1="103.5" x2="87.2051" y2="103.5" stroke="#379BE4"/>
<path d="M59.1204 128.392L76.4748 145.762L85.2205 137.008L93.9663 128.255" stroke="#379BE4" stroke-width="5"/>
<path d="M76.7051 136L70.2099 129.25H83.2003L76.7051 136Z" fill="#379BE4"/>
<path d="M50.5 150.781V165H48.0684V150.781H50.5ZM54.9629 150.781V152.734H43.6445V150.781H54.9629ZM61.8281 158.701V160.576H56.1641V158.701H61.8281ZM58.1758 154.434V165H55.8223V154.434H58.1758ZM60.0898 159.834V159.609C60.0898 158.848 60.2005 158.141 60.4219 157.49C60.6432 156.833 60.9655 156.263 61.3887 155.781C61.8118 155.293 62.3262 154.915 62.9316 154.648C63.5371 154.375 64.224 154.238 64.9922 154.238C65.7734 154.238 66.4668 154.375 67.0723 154.648C67.6842 154.915 68.2018 155.293 68.625 155.781C69.0482 156.263 69.3704 156.833 69.5918 157.49C69.8132 158.141 69.9238 158.848 69.9238 159.609V159.834C69.9238 160.596 69.8132 161.302 69.5918 161.953C69.3704 162.604 69.0482 163.174 68.625 163.662C68.2083 164.144 67.694 164.521 67.082 164.795C66.4766 165.062 65.7865 165.195 65.0117 165.195C64.237 165.195 63.5469 165.062 62.9414 164.795C62.3359 164.521 61.8184 164.144 61.3887 163.662C60.9655 163.174 60.6432 162.604 60.4219 161.953C60.2005 161.302 60.0898 160.596 60.0898 159.834ZM62.4531 159.609V159.834C62.4531 160.309 62.502 160.758 62.5996 161.182C62.6973 161.605 62.8503 161.976 63.0586 162.295C63.2669 162.614 63.5339 162.865 63.8594 163.047C64.1849 163.229 64.569 163.32 65.0117 163.32C65.4544 163.32 65.8353 163.229 66.1543 163.047C66.4798 162.865 66.7467 162.614 66.9551 162.295C67.1634 161.976 67.3164 161.605 67.4141 161.182C67.5182 160.758 67.5703 160.309 67.5703 159.834V159.609C67.5703 159.141 67.5182 158.698 67.4141 158.281C67.3164 157.858 67.1634 157.484 66.9551 157.158C66.7467 156.833 66.4798 156.579 66.1543 156.396C65.8288 156.208 65.4414 156.113 64.9922 156.113C64.556 156.113 64.1751 156.208 63.8496 156.396C63.5306 156.579 63.2669 156.833 63.0586 157.158C62.8503 157.484 62.6973 157.858 62.5996 158.281C62.502 158.698 62.4531 159.141 62.4531 159.609ZM78.1562 162.148L81.3008 154.434H83.3418L78.957 165H77.3555L72.9805 154.434H75.0215L78.1562 162.148ZM74.416 154.434V165H72.0625V154.434H74.416ZM81.8965 165V154.434H84.2598V165H81.8965ZM91.5547 165.195C90.7734 165.195 90.0671 165.068 89.4355 164.814C88.8105 164.554 88.2767 164.193 87.834 163.73C87.3978 163.268 87.0625 162.725 86.8281 162.1C86.5938 161.475 86.4766 160.801 86.4766 160.078V159.688C86.4766 158.861 86.597 158.112 86.8379 157.441C87.0788 156.771 87.4141 156.198 87.8438 155.723C88.2734 155.241 88.7812 154.873 89.3672 154.619C89.9531 154.365 90.5879 154.238 91.2715 154.238C92.0267 154.238 92.6875 154.365 93.2539 154.619C93.8203 154.873 94.2891 155.231 94.6602 155.693C95.0378 156.149 95.3177 156.693 95.5 157.324C95.6888 157.956 95.7832 158.652 95.7832 159.414V160.42H87.6191V158.73H93.459V158.545C93.446 158.122 93.3613 157.725 93.2051 157.354C93.0553 156.982 92.8242 156.683 92.5117 156.455C92.1992 156.227 91.7826 156.113 91.2617 156.113C90.8711 156.113 90.5228 156.198 90.2168 156.367C89.9173 156.53 89.6667 156.768 89.4648 157.08C89.263 157.393 89.1068 157.77 88.9961 158.213C88.8919 158.649 88.8398 159.141 88.8398 159.688V160.078C88.8398 160.54 88.9017 160.97 89.0254 161.367C89.1556 161.758 89.3444 162.1 89.5918 162.393C89.8392 162.686 90.1387 162.917 90.4902 163.086C90.8418 163.249 91.2422 163.33 91.6914 163.33C92.2578 163.33 92.7624 163.216 93.2051 162.988C93.6478 162.76 94.0319 162.438 94.3574 162.021L95.5977 163.223C95.3698 163.555 95.0736 163.874 94.709 164.18C94.3444 164.479 93.8984 164.723 93.3711 164.912C92.8503 165.101 92.2448 165.195 91.5547 165.195ZM104.836 158.848V160.703H99.3672V158.848H104.836ZM100.051 154.434V165H97.6973V154.434H100.051ZM106.535 154.434V165H104.182V154.434H106.535ZM110.793 157.793H113.908C114.82 157.793 115.594 157.946 116.232 158.252C116.87 158.558 117.355 158.984 117.688 159.531C118.026 160.072 118.195 160.69 118.195 161.387C118.195 161.901 118.101 162.38 117.912 162.822C117.723 163.258 117.443 163.639 117.072 163.965C116.708 164.29 116.258 164.544 115.725 164.727C115.197 164.909 114.592 165 113.908 165H109.23V154.434H111.594V163.135H113.908C114.377 163.135 114.751 163.053 115.031 162.891C115.311 162.728 115.513 162.516 115.637 162.256C115.767 161.995 115.832 161.719 115.832 161.426C115.832 161.126 115.767 160.843 115.637 160.576C115.513 160.309 115.311 160.091 115.031 159.922C114.751 159.753 114.377 159.668 113.908 159.668H110.793V157.793Z" fill="#379BE4"/>
<path d="M27.0723 23.0059L33.3809 12.7812H35.832V27H33.3809V16.7656L27.0723 27H24.6309V12.7812H27.0723V23.0059ZM45.7539 20.8477V22.7031H40.2852V20.8477H45.7539ZM40.9688 16.4336V27H38.6152V16.4336H40.9688ZM47.4531 16.4336V27H45.0996V16.4336H47.4531ZM56.9941 16.4336V18.3086H52.3848V27H50.0312V16.4336H56.9941ZM62.8242 27.1953C62.043 27.1953 61.3366 27.0684 60.7051 26.8145C60.0801 26.554 59.5462 26.1927 59.1035 25.7305C58.6673 25.2682 58.332 24.7246 58.0977 24.0996C57.8633 23.4746 57.7461 22.8008 57.7461 22.0781V21.6875C57.7461 20.8607 57.8665 20.112 58.1074 19.4414C58.3483 18.7708 58.6836 18.1979 59.1133 17.7227C59.543 17.2409 60.0508 16.873 60.6367 16.6191C61.2227 16.3652 61.8574 16.2383 62.541 16.2383C63.2962 16.2383 63.957 16.3652 64.5234 16.6191C65.0898 16.873 65.5586 17.2311 65.9297 17.6934C66.3073 18.1491 66.5872 18.6927 66.7695 19.3242C66.9583 19.9557 67.0527 20.6523 67.0527 21.4141V22.4199H58.8887V20.7305H64.7285V20.5449C64.7155 20.1217 64.6309 19.7246 64.4746 19.3535C64.3249 18.9824 64.0938 18.6829 63.7812 18.4551C63.4688 18.2272 63.0521 18.1133 62.5312 18.1133C62.1406 18.1133 61.7923 18.1979 61.4863 18.3672C61.1868 18.5299 60.9362 18.7676 60.7344 19.0801C60.5326 19.3926 60.3763 19.7702 60.2656 20.2129C60.1615 20.6491 60.1094 21.1406 60.1094 21.6875V22.0781C60.1094 22.5404 60.1712 22.9701 60.2949 23.3672C60.4251 23.7578 60.6139 24.0996 60.8613 24.3926C61.1087 24.6855 61.4082 24.9167 61.7598 25.0859C62.1113 25.2487 62.5117 25.3301 62.9609 25.3301C63.5273 25.3301 64.0319 25.2161 64.4746 24.9883C64.9173 24.7604 65.3014 24.4382 65.627 24.0215L66.8672 25.2227C66.6393 25.5547 66.3431 25.8737 65.9785 26.1797C65.6139 26.4792 65.168 26.7233 64.6406 26.9121C64.1198 27.1009 63.5143 27.1953 62.8242 27.1953ZM68.4395 21.834V21.6094C68.4395 20.8477 68.5501 20.1413 68.7715 19.4902C68.9928 18.8327 69.3118 18.263 69.7285 17.7812C70.1517 17.293 70.666 16.9154 71.2715 16.6484C71.8835 16.375 72.5736 16.2383 73.3418 16.2383C74.1165 16.2383 74.8066 16.375 75.4121 16.6484C76.0241 16.9154 76.5417 17.293 76.9648 17.7812C77.388 18.263 77.7103 18.8327 77.9316 19.4902C78.153 20.1413 78.2637 20.8477 78.2637 21.6094V21.834C78.2637 22.5957 78.153 23.3021 77.9316 23.9531C77.7103 24.6042 77.388 25.1738 76.9648 25.6621C76.5417 26.1439 76.0273 26.5215 75.4219 26.7949C74.8164 27.0618 74.1296 27.1953 73.3613 27.1953C72.5866 27.1953 71.8932 27.0618 71.2812 26.7949C70.6758 26.5215 70.1615 26.1439 69.7383 25.6621C69.3151 25.1738 68.9928 24.6042 68.7715 23.9531C68.5501 23.3021 68.4395 22.5957 68.4395 21.834ZM70.793 21.6094V21.834C70.793 22.3092 70.8418 22.7585 70.9395 23.1816C71.0371 23.6048 71.1901 23.9759 71.3984 24.2949C71.6068 24.6139 71.8737 24.8646 72.1992 25.0469C72.5247 25.2292 72.9121 25.3203 73.3613 25.3203C73.7975 25.3203 74.1751 25.2292 74.4941 25.0469C74.8197 24.8646 75.0866 24.6139 75.2949 24.2949C75.5033 23.9759 75.6562 23.6048 75.7539 23.1816C75.8581 22.7585 75.9102 22.3092 75.9102 21.834V21.6094C75.9102 21.1406 75.8581 20.6979 75.7539 20.2812C75.6562 19.8581 75.5 19.4837 75.2852 19.1582C75.0768 18.8327 74.8099 18.5788 74.4844 18.3965C74.1654 18.2077 73.7845 18.1133 73.3418 18.1133C72.8991 18.1133 72.515 18.2077 72.1895 18.3965C71.8704 18.5788 71.6068 18.8327 71.3984 19.1582C71.1901 19.4837 71.0371 19.8581 70.9395 20.2812C70.8418 20.6979 70.793 21.1406 70.793 21.6094ZM91.7207 12.7812V27H89.2793V14.7344H82.9609V27H80.5195V12.7812H91.7207ZM100.07 21.6973H96.3691V19.7539H100.07C100.715 19.7539 101.236 19.6497 101.633 19.4414C102.03 19.2331 102.32 18.9466 102.502 18.582C102.691 18.2109 102.785 17.7878 102.785 17.3125C102.785 16.8633 102.691 16.4434 102.502 16.0527C102.32 15.6556 102.03 15.3366 101.633 15.0957C101.236 14.8548 100.715 14.7344 100.07 14.7344H97.1211V27H94.6699V12.7812H100.07C101.171 12.7812 102.105 12.9766 102.873 13.3672C103.648 13.7513 104.237 14.2852 104.641 14.9688C105.044 15.6458 105.246 16.4206 105.246 17.293C105.246 18.2109 105.044 18.9987 104.641 19.6562C104.237 20.3138 103.648 20.8184 102.873 21.1699C102.105 21.5215 101.171 21.6973 100.07 21.6973ZM109.865 23.0059L116.174 12.7812H118.625V27H116.174V16.7656L109.865 27H107.424V12.7812H109.865V23.0059ZM126.438 20.1836H124.465V18.7871H126.164C126.77 18.7871 127.261 18.6992 127.639 18.5234C128.016 18.3411 128.29 18.0905 128.459 17.7715C128.635 17.446 128.723 17.0684 128.723 16.6387C128.723 16.2546 128.625 15.903 128.43 15.584C128.241 15.265 127.948 15.0111 127.551 14.8223C127.154 14.627 126.643 14.5293 126.018 14.5293C125.549 14.5293 125.122 14.6139 124.738 14.7832C124.354 14.9525 124.048 15.1901 123.82 15.4961C123.599 15.8021 123.488 16.1634 123.488 16.5801H121.037C121.037 15.9616 121.167 15.4082 121.428 14.9199C121.695 14.4251 122.056 14.0052 122.512 13.6602C122.974 13.3151 123.505 13.0514 124.104 12.8691C124.709 12.6803 125.347 12.5859 126.018 12.5859C126.799 12.5859 127.505 12.6738 128.137 12.8496C128.768 13.0189 129.312 13.2728 129.768 13.6113C130.223 13.9499 130.572 14.373 130.812 14.8809C131.053 15.3822 131.174 15.9648 131.174 16.6289C131.174 17.1172 131.06 17.5762 130.832 18.0059C130.611 18.4355 130.292 18.8132 129.875 19.1387C129.458 19.4642 128.957 19.7214 128.371 19.9102C127.792 20.0924 127.147 20.1836 126.438 20.1836ZM124.465 19.334H126.438C127.225 19.334 127.925 19.4154 128.537 19.5781C129.149 19.7409 129.667 19.9785 130.09 20.291C130.513 20.6035 130.835 20.9909 131.057 21.4531C131.278 21.9089 131.389 22.4329 131.389 23.0254C131.389 23.6895 131.255 24.2819 130.988 24.8027C130.728 25.3171 130.357 25.7533 129.875 26.1113C129.393 26.4694 128.824 26.7396 128.166 26.9219C127.515 27.1042 126.799 27.1953 126.018 27.1953C125.386 27.1953 124.761 27.1172 124.143 26.9609C123.531 26.7982 122.974 26.5508 122.473 26.2188C121.978 25.8802 121.581 25.4505 121.281 24.9297C120.982 24.4089 120.832 23.7839 120.832 23.0547H123.293C123.293 23.4583 123.407 23.8294 123.635 24.168C123.869 24.5 124.188 24.7669 124.592 24.9688C125.002 25.1641 125.477 25.2617 126.018 25.2617C126.636 25.2617 127.16 25.1641 127.59 24.9688C128.026 24.7734 128.358 24.5065 128.586 24.168C128.82 23.8294 128.938 23.4486 128.938 23.0254C128.938 22.6217 128.876 22.2734 128.752 21.9805C128.635 21.681 128.459 21.4401 128.225 21.2578C127.99 21.069 127.701 20.929 127.355 20.8379C127.01 20.7467 126.613 20.7012 126.164 20.7012H124.465V19.334Z" fill="#379BE4"/>
<line x1="1.20508" y1="1" x2="152.205" y2="1" stroke="#379BE4" stroke-width="2"/>
<path d="M151.205 1.5C150.167 4.48334 155.687 151.5 149.205 164C142.724 176.5 90.2002 168 84.2051 173C78.21 178 76.2051 183.5 76.2051 183.5" stroke="#379BE4" stroke-width="2"/>
<line x1="32.7051" y1="42" x2="32.7051" y2="112" stroke="#379BE4" stroke-width="5"/>
<line x1="21.7051" y1="42" x2="21.7051" y2="120" stroke="#379BE4" stroke-width="5"/>
<line x1="139.705" y1="11" x2="139.705" y2="127" stroke="#379BE4" stroke-width="5"/>
<line x1="129.705" y1="42" x2="129.705" y2="120" stroke="#379BE4" stroke-width="5"/>
<line x1="119.705" y1="42" x2="119.705" y2="112" stroke="#379BE4" stroke-width="5"/>
<line x1="34.2051" y1="110" x2="122.205" y2="110" stroke="#379BE4" stroke-width="4"/>
<line x1="23.2051" y1="118" x2="132.205" y2="118" stroke="#379BE4" stroke-width="4"/>
<line x1="13.2051" y1="128" x2="142.205" y2="128" stroke="#379BE4" stroke-width="4"/>
<line x1="19.2051" y1="41.5" x2="35.2051" y2="41.5" stroke="#379BE4"/>
<line x1="63.2051" y1="102.5" x2="89.2051" y2="102.5" stroke="#379BE4"/>
<line x1="57.2051" y1="98.5" x2="95.2051" y2="98.5" stroke="#379BE4"/>
<line x1="52.2051" y1="93.5" x2="101.205" y2="93.5" stroke="#379BE4"/>
<line x1="49.2051" y1="88.5" x2="104.205" y2="88.5" stroke="#379BE4"/>
<path d="M46.2051 82.5H106.205M45.2051 77.5H107.205" stroke="#379BE4"/>
<line x1="55.2051" y1="97.5" x2="97.2051" y2="97.5" stroke="#379BE4"/>
<line x1="50.2051" y1="92.5" x2="102.205" y2="92.5" stroke="#379BE4"/>
<line x1="47.2051" y1="87.5" x2="105.205" y2="87.5" stroke="#379BE4"/>
<line x1="46.2051" y1="81.5" x2="107.205" y2="81.5" stroke="#379BE4"/>
<line x1="44.2051" y1="72.5" x2="108.205" y2="72.5" stroke="#379BE4"/>
<line x1="46.2051" y1="67.5" x2="108.205" y2="67.5" stroke="#379BE4"/>
<line x1="46.2051" y1="61.5" x2="106.205" y2="61.5" stroke="#379BE4"/>
<line x1="49.2051" y1="56.5" x2="103.205" y2="56.5" stroke="#379BE4"/>
<line x1="45.2051" y1="71.5" x2="107.205" y2="71.5" stroke="#379BE4"/>
<line x1="46.2051" y1="66.5" x2="107.205" y2="66.5" stroke="#379BE4"/>
<line x1="47.2051" y1="60.5" x2="105.205" y2="60.5" stroke="#379BE4"/>
<line x1="50.2051" y1="55.5" x2="102.205" y2="55.5" stroke="#379BE4"/>
<line x1="55.2051" y1="49.5" x2="98.2051" y2="49.5" stroke="#379BE4"/>
<line x1="63.2051" y1="44.5" x2="90.2051" y2="44.5" stroke="#379BE4"/>
<line x1="62.2051" y1="45.5" x2="92.2051" y2="45.5" stroke="#379BE4"/>
<line x1="54.2051" y1="50.5" x2="99.2051" y2="50.5" stroke="#379BE4"/>
<line x1="44.2051" y1="76.5" x2="108.205" y2="76.5" stroke="#379BE4"/>
<line x1="66.2051" y1="103.5" x2="87.2051" y2="103.5" stroke="#379BE4"/>
<path d="M59.1204 128.392L76.4748 145.762L85.2205 137.008L93.9663 128.255" stroke="#379BE4" stroke-width="5"/>
<path d="M76.7051 136L70.2099 129.25H83.2003L76.7051 136Z" fill="#379BE4"/>
<path d="M50.5 150.781V165H48.0684V150.781H50.5ZM54.9629 150.781V152.734H43.6445V150.781H54.9629ZM61.8281 158.701V160.576H56.1641V158.701H61.8281ZM58.1758 154.434V165H55.8223V154.434H58.1758ZM60.0898 159.834V159.609C60.0898 158.848 60.2005 158.141 60.4219 157.49C60.6432 156.833 60.9655 156.263 61.3887 155.781C61.8118 155.293 62.3262 154.915 62.9316 154.648C63.5371 154.375 64.224 154.238 64.9922 154.238C65.7734 154.238 66.4668 154.375 67.0723 154.648C67.6842 154.915 68.2018 155.293 68.625 155.781C69.0482 156.263 69.3704 156.833 69.5918 157.49C69.8132 158.141 69.9238 158.848 69.9238 159.609V159.834C69.9238 160.596 69.8132 161.302 69.5918 161.953C69.3704 162.604 69.0482 163.174 68.625 163.662C68.2083 164.144 67.694 164.521 67.082 164.795C66.4766 165.062 65.7865 165.195 65.0117 165.195C64.237 165.195 63.5469 165.062 62.9414 164.795C62.3359 164.521 61.8184 164.144 61.3887 163.662C60.9655 163.174 60.6432 162.604 60.4219 161.953C60.2005 161.302 60.0898 160.596 60.0898 159.834ZM62.4531 159.609V159.834C62.4531 160.309 62.502 160.758 62.5996 161.182C62.6973 161.605 62.8503 161.976 63.0586 162.295C63.2669 162.614 63.5339 162.865 63.8594 163.047C64.1849 163.229 64.569 163.32 65.0117 163.32C65.4544 163.32 65.8353 163.229 66.1543 163.047C66.4798 162.865 66.7467 162.614 66.9551 162.295C67.1634 161.976 67.3164 161.605 67.4141 161.182C67.5182 160.758 67.5703 160.309 67.5703 159.834V159.609C67.5703 159.141 67.5182 158.698 67.4141 158.281C67.3164 157.858 67.1634 157.484 66.9551 157.158C66.7467 156.833 66.4798 156.579 66.1543 156.396C65.8288 156.208 65.4414 156.113 64.9922 156.113C64.556 156.113 64.1751 156.208 63.8496 156.396C63.5306 156.579 63.2669 156.833 63.0586 157.158C62.8503 157.484 62.6973 157.858 62.5996 158.281C62.502 158.698 62.4531 159.141 62.4531 159.609ZM78.1562 162.148L81.3008 154.434H83.3418L78.957 165H77.3555L72.9805 154.434H75.0215L78.1562 162.148ZM74.416 154.434V165H72.0625V154.434H74.416ZM81.8965 165V154.434H84.2598V165H81.8965ZM91.5547 165.195C90.7734 165.195 90.0671 165.068 89.4355 164.814C88.8105 164.554 88.2767 164.193 87.834 163.73C87.3978 163.268 87.0625 162.725 86.8281 162.1C86.5938 161.475 86.4766 160.801 86.4766 160.078V159.688C86.4766 158.861 86.597 158.112 86.8379 157.441C87.0788 156.771 87.4141 156.198 87.8438 155.723C88.2734 155.241 88.7812 154.873 89.3672 154.619C89.9531 154.365 90.5879 154.238 91.2715 154.238C92.0267 154.238 92.6875 154.365 93.2539 154.619C93.8203 154.873 94.2891 155.231 94.6602 155.693C95.0378 156.149 95.3177 156.693 95.5 157.324C95.6888 157.956 95.7832 158.652 95.7832 159.414V160.42H87.6191V158.73H93.459V158.545C93.446 158.122 93.3613 157.725 93.2051 157.354C93.0553 156.982 92.8242 156.683 92.5117 156.455C92.1992 156.227 91.7826 156.113 91.2617 156.113C90.8711 156.113 90.5228 156.198 90.2168 156.367C89.9173 156.53 89.6667 156.768 89.4648 157.08C89.263 157.393 89.1068 157.77 88.9961 158.213C88.8919 158.649 88.8398 159.141 88.8398 159.688V160.078C88.8398 160.54 88.9017 160.97 89.0254 161.367C89.1556 161.758 89.3444 162.1 89.5918 162.393C89.8392 162.686 90.1387 162.917 90.4902 163.086C90.8418 163.249 91.2422 163.33 91.6914 163.33C92.2578 163.33 92.7624 163.216 93.2051 162.988C93.6478 162.76 94.0319 162.438 94.3574 162.021L95.5977 163.223C95.3698 163.555 95.0736 163.874 94.709 164.18C94.3444 164.479 93.8984 164.723 93.3711 164.912C92.8503 165.101 92.2448 165.195 91.5547 165.195ZM104.836 158.848V160.703H99.3672V158.848H104.836ZM100.051 154.434V165H97.6973V154.434H100.051ZM106.535 154.434V165H104.182V154.434H106.535ZM110.793 157.793H113.908C114.82 157.793 115.594 157.946 116.232 158.252C116.87 158.558 117.355 158.984 117.688 159.531C118.026 160.072 118.195 160.69 118.195 161.387C118.195 161.901 118.101 162.38 117.912 162.822C117.723 163.258 117.443 163.639 117.072 163.965C116.708 164.29 116.258 164.544 115.725 164.727C115.197 164.909 114.592 165 113.908 165H109.23V154.434H111.594V163.135H113.908C114.377 163.135 114.751 163.053 115.031 162.891C115.311 162.728 115.513 162.516 115.637 162.256C115.767 161.995 115.832 161.719 115.832 161.426C115.832 161.126 115.767 160.843 115.637 160.576C115.513 160.309 115.311 160.091 115.031 159.922C114.751 159.753 114.377 159.668 113.908 159.668H110.793V157.793Z" fill="#379BE4"/>
<path d="M27.0723 23.0059L33.3809 12.7812H35.832V27H33.3809V16.7656L27.0723 27H24.6309V12.7812H27.0723V23.0059ZM45.7539 20.8477V22.7031H40.2852V20.8477H45.7539ZM40.9688 16.4336V27H38.6152V16.4336H40.9688ZM47.4531 16.4336V27H45.0996V16.4336H47.4531ZM56.9941 16.4336V18.3086H52.3848V27H50.0312V16.4336H56.9941ZM62.8242 27.1953C62.043 27.1953 61.3366 27.0684 60.7051 26.8145C60.0801 26.554 59.5462 26.1927 59.1035 25.7305C58.6673 25.2682 58.332 24.7246 58.0977 24.0996C57.8633 23.4746 57.7461 22.8008 57.7461 22.0781V21.6875C57.7461 20.8607 57.8665 20.112 58.1074 19.4414C58.3483 18.7708 58.6836 18.1979 59.1133 17.7227C59.543 17.2409 60.0508 16.873 60.6367 16.6191C61.2227 16.3652 61.8574 16.2383 62.541 16.2383C63.2962 16.2383 63.957 16.3652 64.5234 16.6191C65.0898 16.873 65.5586 17.2311 65.9297 17.6934C66.3073 18.1491 66.5872 18.6927 66.7695 19.3242C66.9583 19.9557 67.0527 20.6523 67.0527 21.4141V22.4199H58.8887V20.7305H64.7285V20.5449C64.7155 20.1217 64.6309 19.7246 64.4746 19.3535C64.3249 18.9824 64.0938 18.6829 63.7812 18.4551C63.4688 18.2272 63.0521 18.1133 62.5312 18.1133C62.1406 18.1133 61.7923 18.1979 61.4863 18.3672C61.1868 18.5299 60.9362 18.7676 60.7344 19.0801C60.5326 19.3926 60.3763 19.7702 60.2656 20.2129C60.1615 20.6491 60.1094 21.1406 60.1094 21.6875V22.0781C60.1094 22.5404 60.1712 22.9701 60.2949 23.3672C60.4251 23.7578 60.6139 24.0996 60.8613 24.3926C61.1087 24.6855 61.4082 24.9167 61.7598 25.0859C62.1113 25.2487 62.5117 25.3301 62.9609 25.3301C63.5273 25.3301 64.0319 25.2161 64.4746 24.9883C64.9173 24.7604 65.3014 24.4382 65.627 24.0215L66.8672 25.2227C66.6393 25.5547 66.3431 25.8737 65.9785 26.1797C65.6139 26.4792 65.168 26.7233 64.6406 26.9121C64.1198 27.1009 63.5143 27.1953 62.8242 27.1953ZM68.4395 21.834V21.6094C68.4395 20.8477 68.5501 20.1413 68.7715 19.4902C68.9928 18.8327 69.3118 18.263 69.7285 17.7812C70.1517 17.293 70.666 16.9154 71.2715 16.6484C71.8835 16.375 72.5736 16.2383 73.3418 16.2383C74.1165 16.2383 74.8066 16.375 75.4121 16.6484C76.0241 16.9154 76.5417 17.293 76.9648 17.7812C77.388 18.263 77.7103 18.8327 77.9316 19.4902C78.153 20.1413 78.2637 20.8477 78.2637 21.6094V21.834C78.2637 22.5957 78.153 23.3021 77.9316 23.9531C77.7103 24.6042 77.388 25.1738 76.9648 25.6621C76.5417 26.1439 76.0273 26.5215 75.4219 26.7949C74.8164 27.0618 74.1296 27.1953 73.3613 27.1953C72.5866 27.1953 71.8932 27.0618 71.2812 26.7949C70.6758 26.5215 70.1615 26.1439 69.7383 25.6621C69.3151 25.1738 68.9928 24.6042 68.7715 23.9531C68.5501 23.3021 68.4395 22.5957 68.4395 21.834ZM70.793 21.6094V21.834C70.793 22.3092 70.8418 22.7585 70.9395 23.1816C71.0371 23.6048 71.1901 23.9759 71.3984 24.2949C71.6068 24.6139 71.8737 24.8646 72.1992 25.0469C72.5247 25.2292 72.9121 25.3203 73.3613 25.3203C73.7975 25.3203 74.1751 25.2292 74.4941 25.0469C74.8197 24.8646 75.0866 24.6139 75.2949 24.2949C75.5033 23.9759 75.6562 23.6048 75.7539 23.1816C75.8581 22.7585 75.9102 22.3092 75.9102 21.834V21.6094C75.9102 21.1406 75.8581 20.6979 75.7539 20.2812C75.6562 19.8581 75.5 19.4837 75.2852 19.1582C75.0768 18.8327 74.8099 18.5788 74.4844 18.3965C74.1654 18.2077 73.7845 18.1133 73.3418 18.1133C72.8991 18.1133 72.515 18.2077 72.1895 18.3965C71.8704 18.5788 71.6068 18.8327 71.3984 19.1582C71.1901 19.4837 71.0371 19.8581 70.9395 20.2812C70.8418 20.6979 70.793 21.1406 70.793 21.6094ZM91.7207 12.7812V27H89.2793V14.7344H82.9609V27H80.5195V12.7812H91.7207ZM100.07 21.6973H96.3691V19.7539H100.07C100.715 19.7539 101.236 19.6497 101.633 19.4414C102.03 19.2331 102.32 18.9466 102.502 18.582C102.691 18.2109 102.785 17.7878 102.785 17.3125C102.785 16.8633 102.691 16.4434 102.502 16.0527C102.32 15.6556 102.03 15.3366 101.633 15.0957C101.236 14.8548 100.715 14.7344 100.07 14.7344H97.1211V27H94.6699V12.7812H100.07C101.171 12.7812 102.105 12.9766 102.873 13.3672C103.648 13.7513 104.237 14.2852 104.641 14.9688C105.044 15.6458 105.246 16.4206 105.246 17.293C105.246 18.2109 105.044 18.9987 104.641 19.6562C104.237 20.3138 103.648 20.8184 102.873 21.1699C102.105 21.5215 101.171 21.6973 100.07 21.6973ZM109.865 23.0059L116.174 12.7812H118.625V27H116.174V16.7656L109.865 27H107.424V12.7812H109.865V23.0059ZM126.438 20.1836H124.465V18.7871H126.164C126.77 18.7871 127.261 18.6992 127.639 18.5234C128.016 18.3411 128.29 18.0905 128.459 17.7715C128.635 17.446 128.723 17.0684 128.723 16.6387C128.723 16.2546 128.625 15.903 128.43 15.584C128.241 15.265 127.948 15.0111 127.551 14.8223C127.154 14.627 126.643 14.5293 126.018 14.5293C125.549 14.5293 125.122 14.6139 124.738 14.7832C124.354 14.9525 124.048 15.1901 123.82 15.4961C123.599 15.8021 123.488 16.1634 123.488 16.5801H121.037C121.037 15.9616 121.167 15.4082 121.428 14.9199C121.695 14.4251 122.056 14.0052 122.512 13.6602C122.974 13.3151 123.505 13.0514 124.104 12.8691C124.709 12.6803 125.347 12.5859 126.018 12.5859C126.799 12.5859 127.505 12.6738 128.137 12.8496C128.768 13.0189 129.312 13.2728 129.768 13.6113C130.223 13.9499 130.572 14.373 130.812 14.8809C131.053 15.3822 131.174 15.9648 131.174 16.6289C131.174 17.1172 131.06 17.5762 130.832 18.0059C130.611 18.4355 130.292 18.8132 129.875 19.1387C129.458 19.4642 128.957 19.7214 128.371 19.9102C127.792 20.0924 127.147 20.1836 126.438 20.1836ZM124.465 19.334H126.438C127.225 19.334 127.925 19.4154 128.537 19.5781C129.149 19.7409 129.667 19.9785 130.09 20.291C130.513 20.6035 130.835 20.9909 131.057 21.4531C131.278 21.9089 131.389 22.4329 131.389 23.0254C131.389 23.6895 131.255 24.2819 130.988 24.8027C130.728 25.3171 130.357 25.7533 129.875 26.1113C129.393 26.4694 128.824 26.7396 128.166 26.9219C127.515 27.1042 126.799 27.1953 126.018 27.1953C125.386 27.1953 124.761 27.1172 124.143 26.9609C123.531 26.7982 122.974 26.5508 122.473 26.2188C121.978 25.8802 121.581 25.4505 121.281 24.9297C120.982 24.4089 120.832 23.7839 120.832 23.0547H123.293C123.293 23.4583 123.407 23.8294 123.635 24.168C123.869 24.5 124.188 24.7669 124.592 24.9688C125.002 25.1641 125.477 25.2617 126.018 25.2617C126.636 25.2617 127.16 25.1641 127.59 24.9688C128.026 24.7734 128.358 24.5065 128.586 24.168C128.82 23.8294 128.938 23.4486 128.938 23.0254C128.938 22.6217 128.876 22.2734 128.752 21.9805C128.635 21.681 128.459 21.4401 128.225 21.2578C127.99 21.069 127.701 20.929 127.355 20.8379C127.01 20.7467 126.613 20.7012 126.164 20.7012H124.465V19.334Z" fill="#379BE4"/>
<line x1="3" y1="1" x2="152" y2="1" stroke="#379BE4" stroke-width="2"/>
<path d="M77.21 183.5C77.21 183.5 75.2051 178 69.21 173C63.2148 168 10.6914 176.5 4.20995 164" stroke="#379BE4" stroke-width="2"/>
<path d="M151.205 1.5C150.167 4.48334 155.687 151.5 149.205 164C142.724 176.5 90.2002 168 84.2051 173C78.21 178 76.2051 183.5 76.2051 183.5" stroke="#379BE4" stroke-width="2"/>
<line x1="21.7051" y1="42" x2="21.7051" y2="120" stroke="#379BE4" stroke-width="5"/>
<line x1="139.705" y1="11" x2="139.705" y2="127" stroke="#379BE4" stroke-width="5"/>
<line x1="129.705" y1="42" x2="129.705" y2="120" stroke="#379BE4" stroke-width="5"/>
<line x1="119.705" y1="42" x2="119.705" y2="112" stroke="#379BE4" stroke-width="5"/>
<line x1="34.2051" y1="110" x2="122.205" y2="110" stroke="#379BE4" stroke-width="4"/>
<line x1="23.2051" y1="118" x2="132.205" y2="118" stroke="#379BE4" stroke-width="4"/>
<line x1="13.2051" y1="128" x2="142.205" y2="128" stroke="#379BE4" stroke-width="4"/>
<line x1="19.2051" y1="41.5" x2="35.2051" y2="41.5" stroke="#379BE4"/>
<line x1="117.205" y1="42.5" x2="132.205" y2="42.5" stroke="#379BE4"/>
<line x1="63.2051" y1="102.5" x2="89.2051" y2="102.5" stroke="#379BE4"/>
<line x1="57.2051" y1="98.5" x2="95.2051" y2="98.5" stroke="#379BE4"/>
<line x1="52.2051" y1="93.5" x2="101.205" y2="93.5" stroke="#379BE4"/>
<line x1="49.2051" y1="88.5" x2="104.205" y2="88.5" stroke="#379BE4"/>
<path d="M46.2051 82.5H106.205M45.2051 77.5H107.205" stroke="#379BE4"/>
<line x1="55.2051" y1="97.5" x2="97.2051" y2="97.5" stroke="#379BE4"/>
<line x1="50.2051" y1="92.5" x2="102.205" y2="92.5" stroke="#379BE4"/>
<line x1="47.2051" y1="87.5" x2="105.205" y2="87.5" stroke="#379BE4"/>
<line x1="46.2051" y1="81.5" x2="107.205" y2="81.5" stroke="#379BE4"/>
<line x1="44.2051" y1="72.5" x2="108.205" y2="72.5" stroke="#379BE4"/>
<line x1="46.2051" y1="67.5" x2="108.205" y2="67.5" stroke="#379BE4"/>
<line x1="46.2051" y1="61.5" x2="106.205" y2="61.5" stroke="#379BE4"/>
<line x1="49.2051" y1="56.5" x2="103.205" y2="56.5" stroke="#379BE4"/>
<line x1="45.2051" y1="71.5" x2="107.205" y2="71.5" stroke="#379BE4"/>
<line x1="46.2051" y1="66.5" x2="107.205" y2="66.5" stroke="#379BE4"/>
<line x1="47.2051" y1="60.5" x2="105.205" y2="60.5" stroke="#379BE4"/>
<line x1="50.2051" y1="55.5" x2="102.205" y2="55.5" stroke="#379BE4"/>
<line x1="55.2051" y1="49.5" x2="98.2051" y2="49.5" stroke="#379BE4"/>
<line x1="63.2051" y1="44.5" x2="90.2051" y2="44.5" stroke="#379BE4"/>
<line x1="62.2051" y1="45.5" x2="92.2051" y2="45.5" stroke="#379BE4"/>
<line x1="54.2051" y1="50.5" x2="99.2051" y2="50.5" stroke="#379BE4"/>
<line x1="44.2051" y1="76.5" x2="108.205" y2="76.5" stroke="#379BE4"/>
<line x1="66.2051" y1="103.5" x2="87.2051" y2="103.5" stroke="#379BE4"/>
<path d="M59.1204 128.392L76.4748 145.762L85.2205 137.008L93.9663 128.255" stroke="#379BE4" stroke-width="5"/>
<path d="M76.7051 136L70.2099 129.25H83.2003L76.7051 136Z" fill="#379BE4"/>
<path d="M50.5 150.781V165H48.0684V150.781H50.5ZM54.9629 150.781V152.734H43.6445V150.781H54.9629ZM61.8281 158.701V160.576H56.1641V158.701H61.8281ZM58.1758 154.434V165H55.8223V154.434H58.1758ZM60.0898 159.834V159.609C60.0898 158.848 60.2005 158.141 60.4219 157.49C60.6432 156.833 60.9655 156.263 61.3887 155.781C61.8118 155.293 62.3262 154.915 62.9316 154.648C63.5371 154.375 64.224 154.238 64.9922 154.238C65.7734 154.238 66.4668 154.375 67.0723 154.648C67.6842 154.915 68.2018 155.293 68.625 155.781C69.0482 156.263 69.3704 156.833 69.5918 157.49C69.8132 158.141 69.9238 158.848 69.9238 159.609V159.834C69.9238 160.596 69.8132 161.302 69.5918 161.953C69.3704 162.604 69.0482 163.174 68.625 163.662C68.2083 164.144 67.694 164.521 67.082 164.795C66.4766 165.062 65.7865 165.195 65.0117 165.195C64.237 165.195 63.5469 165.062 62.9414 164.795C62.3359 164.521 61.8184 164.144 61.3887 163.662C60.9655 163.174 60.6432 162.604 60.4219 161.953C60.2005 161.302 60.0898 160.596 60.0898 159.834ZM62.4531 159.609V159.834C62.4531 160.309 62.502 160.758 62.5996 161.182C62.6973 161.605 62.8503 161.976 63.0586 162.295C63.2669 162.614 63.5339 162.865 63.8594 163.047C64.1849 163.229 64.569 163.32 65.0117 163.32C65.4544 163.32 65.8353 163.229 66.1543 163.047C66.4798 162.865 66.7467 162.614 66.9551 162.295C67.1634 161.976 67.3164 161.605 67.4141 161.182C67.5182 160.758 67.5703 160.309 67.5703 159.834V159.609C67.5703 159.141 67.5182 158.698 67.4141 158.281C67.3164 157.858 67.1634 157.484 66.9551 157.158C66.7467 156.833 66.4798 156.579 66.1543 156.396C65.8288 156.208 65.4414 156.113 64.9922 156.113C64.556 156.113 64.1751 156.208 63.8496 156.396C63.5306 156.579 63.2669 156.833 63.0586 157.158C62.8503 157.484 62.6973 157.858 62.5996 158.281C62.502 158.698 62.4531 159.141 62.4531 159.609ZM78.1562 162.148L81.3008 154.434H83.3418L78.957 165H77.3555L72.9805 154.434H75.0215L78.1562 162.148ZM74.416 154.434V165H72.0625V154.434H74.416ZM81.8965 165V154.434H84.2598V165H81.8965ZM91.5547 165.195C90.7734 165.195 90.0671 165.068 89.4355 164.814C88.8105 164.554 88.2767 164.193 87.834 163.73C87.3978 163.268 87.0625 162.725 86.8281 162.1C86.5938 161.475 86.4766 160.801 86.4766 160.078V159.688C86.4766 158.861 86.597 158.112 86.8379 157.441C87.0788 156.771 87.4141 156.198 87.8438 155.723C88.2734 155.241 88.7812 154.873 89.3672 154.619C89.9531 154.365 90.5879 154.238 91.2715 154.238C92.0267 154.238 92.6875 154.365 93.2539 154.619C93.8203 154.873 94.2891 155.231 94.6602 155.693C95.0378 156.149 95.3177 156.693 95.5 157.324C95.6888 157.956 95.7832 158.652 95.7832 159.414V160.42H87.6191V158.73H93.459V158.545C93.446 158.122 93.3613 157.725 93.2051 157.354C93.0553 156.982 92.8242 156.683 92.5117 156.455C92.1992 156.227 91.7826 156.113 91.2617 156.113C90.8711 156.113 90.5228 156.198 90.2168 156.367C89.9173 156.53 89.6667 156.768 89.4648 157.08C89.263 157.393 89.1068 157.77 88.9961 158.213C88.8919 158.649 88.8398 159.141 88.8398 159.688V160.078C88.8398 160.54 88.9017 160.97 89.0254 161.367C89.1556 161.758 89.3444 162.1 89.5918 162.393C89.8392 162.686 90.1387 162.917 90.4902 163.086C90.8418 163.249 91.2422 163.33 91.6914 163.33C92.2578 163.33 92.7624 163.216 93.2051 162.988C93.6478 162.76 94.0319 162.438 94.3574 162.021L95.5977 163.223C95.3698 163.555 95.0736 163.874 94.709 164.18C94.3444 164.479 93.8984 164.723 93.3711 164.912C92.8503 165.101 92.2448 165.195 91.5547 165.195ZM104.836 158.848V160.703H99.3672V158.848H104.836ZM100.051 154.434V165H97.6973V154.434H100.051ZM106.535 154.434V165H104.182V154.434H106.535ZM110.793 157.793H113.908C114.82 157.793 115.594 157.946 116.232 158.252C116.87 158.558 117.355 158.984 117.688 159.531C118.026 160.072 118.195 160.69 118.195 161.387C118.195 161.901 118.101 162.38 117.912 162.822C117.723 163.258 117.443 163.639 117.072 163.965C116.708 164.29 116.258 164.544 115.725 164.727C115.197 164.909 114.592 165 113.908 165H109.23V154.434H111.594V163.135H113.908C114.377 163.135 114.751 163.053 115.031 162.891C115.311 162.728 115.513 162.516 115.637 162.256C115.767 161.995 115.832 161.719 115.832 161.426C115.832 161.126 115.767 160.843 115.637 160.576C115.513 160.309 115.311 160.091 115.031 159.922C114.751 159.753 114.377 159.668 113.908 159.668H110.793V157.793Z" fill="#379BE4"/>
<path d="M27.0723 23.0059L33.3809 12.7812H35.832V27H33.3809V16.7656L27.0723 27H24.6309V12.7812H27.0723V23.0059ZM45.7539 20.8477V22.7031H40.2852V20.8477H45.7539ZM40.9688 16.4336V27H38.6152V16.4336H40.9688ZM47.4531 16.4336V27H45.0996V16.4336H47.4531ZM56.9941 16.4336V18.3086H52.3848V27H50.0312V16.4336H56.9941ZM62.8242 27.1953C62.043 27.1953 61.3366 27.0684 60.7051 26.8145C60.0801 26.554 59.5462 26.1927 59.1035 25.7305C58.6673 25.2682 58.332 24.7246 58.0977 24.0996C57.8633 23.4746 57.7461 22.8008 57.7461 22.0781V21.6875C57.7461 20.8607 57.8665 20.112 58.1074 19.4414C58.3483 18.7708 58.6836 18.1979 59.1133 17.7227C59.543 17.2409 60.0508 16.873 60.6367 16.6191C61.2227 16.3652 61.8574 16.2383 62.541 16.2383C63.2962 16.2383 63.957 16.3652 64.5234 16.6191C65.0898 16.873 65.5586 17.2311 65.9297 17.6934C66.3073 18.1491 66.5872 18.6927 66.7695 19.3242C66.9583 19.9557 67.0527 20.6523 67.0527 21.4141V22.4199H58.8887V20.7305H64.7285V20.5449C64.7155 20.1217 64.6309 19.7246 64.4746 19.3535C64.3249 18.9824 64.0938 18.6829 63.7812 18.4551C63.4688 18.2272 63.0521 18.1133 62.5312 18.1133C62.1406 18.1133 61.7923 18.1979 61.4863 18.3672C61.1868 18.5299 60.9362 18.7676 60.7344 19.0801C60.5326 19.3926 60.3763 19.7702 60.2656 20.2129C60.1615 20.6491 60.1094 21.1406 60.1094 21.6875V22.0781C60.1094 22.5404 60.1712 22.9701 60.2949 23.3672C60.4251 23.7578 60.6139 24.0996 60.8613 24.3926C61.1087 24.6855 61.4082 24.9167 61.7598 25.0859C62.1113 25.2487 62.5117 25.3301 62.9609 25.3301C63.5273 25.3301 64.0319 25.2161 64.4746 24.9883C64.9173 24.7604 65.3014 24.4382 65.627 24.0215L66.8672 25.2227C66.6393 25.5547 66.3431 25.8737 65.9785 26.1797C65.6139 26.4792 65.168 26.7233 64.6406 26.9121C64.1198 27.1009 63.5143 27.1953 62.8242 27.1953ZM68.4395 21.834V21.6094C68.4395 20.8477 68.5501 20.1413 68.7715 19.4902C68.9928 18.8327 69.3118 18.263 69.7285 17.7812C70.1517 17.293 70.666 16.9154 71.2715 16.6484C71.8835 16.375 72.5736 16.2383 73.3418 16.2383C74.1165 16.2383 74.8066 16.375 75.4121 16.6484C76.0241 16.9154 76.5417 17.293 76.9648 17.7812C77.388 18.263 77.7103 18.8327 77.9316 19.4902C78.153 20.1413 78.2637 20.8477 78.2637 21.6094V21.834C78.2637 22.5957 78.153 23.3021 77.9316 23.9531C77.7103 24.6042 77.388 25.1738 76.9648 25.6621C76.5417 26.1439 76.0273 26.5215 75.4219 26.7949C74.8164 27.0618 74.1296 27.1953 73.3613 27.1953C72.5866 27.1953 71.8932 27.0618 71.2812 26.7949C70.6758 26.5215 70.1615 26.1439 69.7383 25.6621C69.3151 25.1738 68.9928 24.6042 68.7715 23.9531C68.5501 23.3021 68.4395 22.5957 68.4395 21.834ZM70.793 21.6094V21.834C70.793 22.3092 70.8418 22.7585 70.9395 23.1816C71.0371 23.6048 71.1901 23.9759 71.3984 24.2949C71.6068 24.6139 71.8737 24.8646 72.1992 25.0469C72.5247 25.2292 72.9121 25.3203 73.3613 25.3203C73.7975 25.3203 74.1751 25.2292 74.4941 25.0469C74.8197 24.8646 75.0866 24.6139 75.2949 24.2949C75.5033 23.9759 75.6562 23.6048 75.7539 23.1816C75.8581 22.7585 75.9102 22.3092 75.9102 21.834V21.6094C75.9102 21.1406 75.8581 20.6979 75.7539 20.2812C75.6562 19.8581 75.5 19.4837 75.2852 19.1582C75.0768 18.8327 74.8099 18.5788 74.4844 18.3965C74.1654 18.2077 73.7845 18.1133 73.3418 18.1133C72.8991 18.1133 72.515 18.2077 72.1895 18.3965C71.8704 18.5788 71.6068 18.8327 71.3984 19.1582C71.1901 19.4837 71.0371 19.8581 70.9395 20.2812C70.8418 20.6979 70.793 21.1406 70.793 21.6094ZM91.7207 12.7812V27H89.2793V14.7344H82.9609V27H80.5195V12.7812H91.7207ZM100.07 21.6973H96.3691V19.7539H100.07C100.715 19.7539 101.236 19.6497 101.633 19.4414C102.03 19.2331 102.32 18.9466 102.502 18.582C102.691 18.2109 102.785 17.7878 102.785 17.3125C102.785 16.8633 102.691 16.4434 102.502 16.0527C102.32 15.6556 102.03 15.3366 101.633 15.0957C101.236 14.8548 100.715 14.7344 100.07 14.7344H97.1211V27H94.6699V12.7812H100.07C101.171 12.7812 102.105 12.9766 102.873 13.3672C103.648 13.7513 104.237 14.2852 104.641 14.9688C105.044 15.6458 105.246 16.4206 105.246 17.293C105.246 18.2109 105.044 18.9987 104.641 19.6562C104.237 20.3138 103.648 20.8184 102.873 21.1699C102.105 21.5215 101.171 21.6973 100.07 21.6973ZM109.865 23.0059L116.174 12.7812H118.625V27H116.174V16.7656L109.865 27H107.424V12.7812H109.865V23.0059ZM126.438 20.1836H124.465V18.7871H126.164C126.77 18.7871 127.261 18.6992 127.639 18.5234C128.016 18.3411 128.29 18.0905 128.459 17.7715C128.635 17.446 128.723 17.0684 128.723 16.6387C128.723 16.2546 128.625 15.903 128.43 15.584C128.241 15.265 127.948 15.0111 127.551 14.8223C127.154 14.627 126.643 14.5293 126.018 14.5293C125.549 14.5293 125.122 14.6139 124.738 14.7832C124.354 14.9525 124.048 15.1901 123.82 15.4961C123.599 15.8021 123.488 16.1634 123.488 16.5801H121.037C121.037 15.9616 121.167 15.4082 121.428 14.9199C121.695 14.4251 122.056 14.0052 122.512 13.6602C122.974 13.3151 123.505 13.0514 124.104 12.8691C124.709 12.6803 125.347 12.5859 126.018 12.5859C126.799 12.5859 127.505 12.6738 128.137 12.8496C128.768 13.0189 129.312 13.2728 129.768 13.6113C130.223 13.9499 130.572 14.373 130.812 14.8809C131.053 15.3822 131.174 15.9648 131.174 16.6289C131.174 17.1172 131.06 17.5762 130.832 18.0059C130.611 18.4355 130.292 18.8132 129.875 19.1387C129.458 19.4642 128.957 19.7214 128.371 19.9102C127.792 20.0924 127.147 20.1836 126.438 20.1836ZM124.465 19.334H126.438C127.225 19.334 127.925 19.4154 128.537 19.5781C129.149 19.7409 129.667 19.9785 130.09 20.291C130.513 20.6035 130.835 20.9909 131.057 21.4531C131.278 21.9089 131.389 22.4329 131.389 23.0254C131.389 23.6895 131.255 24.2819 130.988 24.8027C130.728 25.3171 130.357 25.7533 129.875 26.1113C129.393 26.4694 128.824 26.7396 128.166 26.9219C127.515 27.1042 126.799 27.1953 126.018 27.1953C125.386 27.1953 124.761 27.1172 124.143 26.9609C123.531 26.7982 122.974 26.5508 122.473 26.2188C121.978 25.8802 121.581 25.4505 121.281 24.9297C120.982 24.4089 120.832 23.7839 120.832 23.0547H123.293C123.293 23.4583 123.407 23.8294 123.635 24.168C123.869 24.5 124.188 24.7669 124.592 24.9688C125.002 25.1641 125.477 25.2617 126.018 25.2617C126.636 25.2617 127.16 25.1641 127.59 24.9688C128.026 24.7734 128.358 24.5065 128.586 24.168C128.82 23.8294 128.938 23.4486 128.938 23.0254C128.938 22.6217 128.876 22.2734 128.752 21.9805C128.635 21.681 128.459 21.4401 128.225 21.2578C127.99 21.069 127.701 20.929 127.355 20.8379C127.01 20.7467 126.613 20.7012 126.164 20.7012H124.465V19.334Z" fill="#379BE4"/>
<path d="M77.21 183.5C77.21 183.5 75.2051 178 69.21 173C63.2148 168 10.6914 176.5 4.20995 164" stroke="#379BE4" stroke-width="2"/>
<path d="M151.205 1.5C150.167 4.48334 155.687 151.5 149.205 164C142.724 176.5 90.2002 168 84.2051 173C78.21 178 76.2051 183.5 76.2051 183.5" stroke="#379BE4" stroke-width="2"/>
</svg>
