<svg width="50" height="53" viewBox="0 0 50 53" fill="none" xmlns="http://www.w3.org/2000/svg">
<path d="M44.276 36.1276C42.4427 36.1276 41.6302 35.3768 40.4844 34.3168C39.2135 33.1684 37.6302 31.7109 34.6511 31.7109C31.6511 31.7109 30.0885 33.1684 28.8177 34.3168C27.6718 35.3768 26.8385 36.1276 25.0052 36.1276C23.1927 36.1276 22.3594 35.3768 21.2135 34.3168C19.9427 33.1684 18.3594 31.7109 15.3802 31.7109C12.3802 31.7109 10.7969 33.1684 9.52606 34.3168C8.38022 35.3768 7.56771 36.1276 5.73438 36.1276C4.88021 36.1276 4.17188 36.8784 4.17188 37.7839C4.17188 38.7114 4.88021 39.4401 5.73438 39.4401C8.73438 39.4401 10.2968 38.0047 11.5677 36.8343C12.7135 35.7743 13.5469 35.0234 15.3802 35.0234C17.2136 35.0234 18.0261 35.7743 19.1719 36.8343C20.4427 38.0047 22.026 39.4401 25.0052 39.4401C28.0052 39.4401 29.5885 38.0047 30.8594 36.8343C32.0052 35.7743 32.8177 35.0234 34.6511 35.0234C36.4636 35.0234 37.2969 35.7743 38.4427 36.8343C39.7136 38.0047 41.2969 39.4401 44.276 39.4401C45.1302 39.4401 45.8385 38.7114 45.8385 37.7839C45.8385 36.8784 45.1302 36.1276 44.276 36.1276Z" fill="white"/>
<path d="M44.276 27.0309C42.4427 27.0309 41.6302 26.258 40.4844 25.2201C39.2135 24.0497 37.6302 22.6143 34.6511 22.6143C31.6511 22.6143 30.0885 24.0497 28.8177 25.2201C27.6718 26.258 26.8385 27.0309 25.0052 27.0309C23.1927 27.0309 22.3594 26.258 21.2135 25.2201C19.9427 24.0497 18.3594 22.6143 15.3802 22.6143C12.3802 22.6143 10.7969 24.0497 9.52606 25.2201C8.38022 26.258 7.56771 27.0309 5.73438 27.0309C4.88021 27.0309 4.17188 27.7597 4.17188 28.6872C4.17188 29.5926 4.88021 30.3434 5.73438 30.3434C8.73438 30.3434 10.2968 28.8859 11.5677 27.7155C12.7135 26.6776 13.5469 25.9268 15.3802 25.9268C17.2136 25.9268 18.0261 26.6776 19.1719 27.7155C20.4427 28.8859 22.026 30.3434 25.0052 30.3434C28.0052 30.3434 29.5885 28.8859 30.8594 27.7155C32.0052 26.6776 32.8177 25.9268 34.6511 25.9268C36.4636 25.9268 37.2969 26.6776 38.4427 27.7155C39.7136 28.8859 41.2969 30.3434 44.276 30.3434C45.1302 30.3434 45.8385 29.5926 45.8385 28.6872C45.8385 27.7597 45.1302 27.0309 44.276 27.0309Z" fill="white"/>
<path d="M5.73437 21.2887C8.73437 21.2887 10.2968 19.8312 11.5677 18.6829C12.7135 17.6229 13.5469 16.8721 15.3802 16.8721C17.2136 16.8721 18.0261 17.6229 19.1719 18.6829C20.4427 19.8312 22.026 21.2887 25.0052 21.2887C28.0052 21.2887 29.5885 19.8312 30.8594 18.6829C32.0052 17.6229 32.8177 16.8721 34.651 16.8721C36.4636 16.8721 37.2969 17.6229 38.4427 18.6829C39.7136 19.8312 41.2969 21.2887 44.276 21.2887C45.1302 21.2887 45.8385 20.5379 45.8385 19.6325C45.8385 18.705 45.1302 17.9762 44.276 17.9762C42.4427 17.9762 41.6302 17.2254 40.4844 16.1654C39.2135 14.995 37.6302 13.5596 34.651 13.5596C31.651 13.5596 30.0885 14.995 28.8177 16.1654C27.6718 17.2254 26.8385 17.9762 25.0052 17.9762C23.1927 17.9762 22.3594 17.2254 21.2135 16.1654C19.9427 14.995 18.3594 13.5596 15.3802 13.5596C12.3802 13.5596 10.7969 14.995 9.52606 16.1654C8.38022 17.2254 7.56771 17.9762 5.73437 17.9762C4.88021 17.9762 4.17188 18.705 4.17188 19.6325C4.17188 20.5379 4.88021 21.2887 5.73437 21.2887Z" fill="white"/>
</svg>
