<svg width="113" height="113" viewBox="0 0 113 113" fill="none" xmlns="http://www.w3.org/2000/svg">
<path d="M82.5573 68.3073C80.174 68.3073 79.1177 67.3865 77.6281 66.0865C75.976 64.6781 73.9177 62.8906 70.0448 62.8906C66.1448 62.8906 64.1135 64.6781 62.4614 66.0865C60.9718 67.3865 59.8885 68.3073 57.5052 68.3073C55.149 68.3073 54.0656 67.3865 52.576 66.0865C50.9239 64.6781 48.8656 62.8906 44.9927 62.8906C41.0927 62.8906 39.0344 64.6781 37.3823 66.0865C35.8927 67.3865 34.8365 68.3073 32.4531 68.3073C31.3427 68.3073 30.4219 69.2281 30.4219 70.3385C30.4219 71.476 31.3427 72.3698 32.4531 72.3698C36.3531 72.3698 38.3843 70.6094 40.0364 69.174C41.526 67.874 42.6094 66.9531 44.9927 66.9531C47.3761 66.9531 48.4323 67.874 49.9219 69.174C51.574 70.6094 53.6323 72.3698 57.5052 72.3698C61.4052 72.3698 63.4635 70.6094 65.1156 69.174C66.6052 67.874 67.6615 66.9531 70.0448 66.9531C72.401 66.9531 73.4844 67.874 74.974 69.174C76.6261 70.6094 78.6844 72.3698 82.5573 72.3698C83.6677 72.3698 84.5885 71.476 84.5885 70.3385C84.5885 69.2281 83.6677 68.3073 82.5573 68.3073Z" fill="#2A94E2"/>
<path d="M82.5573 57.151C80.174 57.151 79.1177 56.2031 77.6281 54.9302C75.976 53.4948 73.9177 51.7344 70.0448 51.7344C66.1448 51.7344 64.1135 53.4948 62.4614 54.9302C60.9718 56.2031 59.8885 57.151 57.5052 57.151C55.149 57.151 54.0656 56.2031 52.576 54.9302C50.9239 53.4948 48.8656 51.7344 44.9927 51.7344C41.0927 51.7344 39.0344 53.4948 37.3823 54.9302C35.8927 56.2031 34.8365 57.151 32.4531 57.151C31.3427 57.151 30.4219 58.0448 30.4219 59.1823C30.4219 60.2927 31.3427 61.2135 32.4531 61.2135C36.3531 61.2135 38.3843 59.426 40.0364 57.9906C41.526 56.7177 42.6094 55.7969 44.9927 55.7969C47.3761 55.7969 48.4323 56.7177 49.9219 57.9906C51.574 59.426 53.6323 61.2135 57.5052 61.2135C61.4052 61.2135 63.4635 59.426 65.1156 57.9906C66.6052 56.7177 67.6615 55.7969 70.0448 55.7969C72.401 55.7969 73.4844 56.7177 74.974 57.9906C76.6261 59.426 78.6844 61.2135 82.5573 61.2135C83.6677 61.2135 84.5885 60.2927 84.5885 59.1823C84.5885 58.0448 83.6677 57.151 82.5573 57.151Z" fill="#2A94E2"/>
<path d="M32.4531 50.1091C36.3531 50.1091 38.3843 48.3216 40.0364 46.9132C41.526 45.6132 42.6094 44.6924 44.9927 44.6924C47.3761 44.6924 48.4323 45.6132 49.9219 46.9132C51.574 48.3216 53.6323 50.1091 57.5052 50.1091C61.4052 50.1091 63.4635 48.3216 65.1156 46.9132C66.6052 45.6132 67.6615 44.6924 70.0448 44.6924C72.4011 44.6924 73.4844 45.6132 74.974 46.9132C76.6261 48.3216 78.6844 50.1091 82.5573 50.1091C83.6677 50.1091 84.5885 49.1882 84.5885 48.0778C84.5885 46.9403 83.6677 46.0466 82.5573 46.0466C80.174 46.0466 79.1177 45.1257 77.6281 43.8257C75.976 42.3903 73.9177 40.6299 70.0448 40.6299C66.1448 40.6299 64.1135 42.3903 62.4614 43.8257C60.9718 45.1257 59.8885 46.0466 57.5052 46.0466C55.149 46.0466 54.0656 45.1257 52.576 43.8257C50.9239 42.3903 48.8656 40.6299 44.9927 40.6299C41.0927 40.6299 39.0344 42.3903 37.3823 43.8257C35.8927 45.1257 34.8365 46.0466 32.4531 46.0466C31.3427 46.0466 30.4219 46.9403 30.4219 48.0778C30.4219 49.1882 31.3427 50.1091 32.4531 50.1091Z" fill="#2A94E2"/>
<circle cx="56.5" cy="56.5" r="54" stroke="#2A94E2" stroke-width="5" stroke-dasharray="4 12"/>
</svg>
