<svg width="113" height="113" viewBox="0 0 113 113" fill="none" xmlns="http://www.w3.org/2000/svg">
<path d="M41.5926 73.5777C40.1849 73.5777 38.8695 73.0951 37.9233 72.1989C36.7233 71.073 36.1464 69.3725 36.3541 67.5342L37.208 60.089C37.3695 58.6873 38.2233 56.826 39.2157 55.8149L58.1618 35.8462C62.8926 30.8597 67.831 30.7219 72.8387 35.4326C77.8464 40.1432 77.9849 45.0608 73.2541 50.0472L54.308 70.0159C53.3387 71.05 51.5387 72.0151 50.131 72.2449L42.7003 73.5087C42.308 73.5317 41.9618 73.5777 41.5926 73.5777ZM65.5695 35.4096C63.7926 35.4096 62.2464 36.5126 60.6772 38.1671L41.731 58.1588C41.2695 58.6413 40.7387 59.7903 40.6464 60.4567L39.7926 67.9019C39.7003 68.6602 39.8849 69.2806 40.3003 69.6713C40.7157 70.0619 41.3387 70.1998 42.1003 70.0849L49.531 68.821C50.2003 68.7061 51.308 68.1087 51.7695 67.6261L70.7157 47.6574C73.5772 44.6242 74.6157 41.8207 70.4387 37.9143C68.5926 36.1449 67.0003 35.4096 65.5695 35.4096Z" fill="#2A94E2"/>
<path d="M68.8271 53.885C68.7809 53.885 68.7117 53.885 68.6656 53.885C61.4655 53.1727 55.6732 47.7267 54.5655 40.6032C54.4271 39.661 55.0732 38.7878 56.0194 38.627C56.9655 38.4891 57.8425 39.1325 58.004 40.0747C58.8809 45.6356 63.404 49.9097 69.0348 50.4612C69.9809 50.5531 70.6732 51.4033 70.5809 52.3454C70.4656 53.2186 69.704 53.885 68.8271 53.885Z" fill="#2A94E2"/>
<path d="M77.2692 80.9996H35.7308C34.7846 80.9996 34 80.2183 34 79.2762C34 78.334 34.7846 77.5527 35.7308 77.5527H77.2692C78.2154 77.5527 79 78.334 79 79.2762C79 80.2183 78.2154 80.9996 77.2692 80.9996Z" fill="#2A94E2"/>
<circle cx="56.5" cy="56.5" r="54" stroke="#2A94E2" stroke-width="5" stroke-dasharray="4 12"/>
</svg>
