<svg width="113" height="113" viewBox="0 0 113 113" fill="none" xmlns="http://www.w3.org/2000/svg">
<path d="M67.8543 68.6884H45.1509C37.0251 68.6884 34.5547 66.218 34.5547 58.0922V45.148C34.5547 37.0222 37.0251 34.5518 45.1509 34.5518H67.8339C75.9597 34.5518 78.4301 37.0222 78.4301 45.148V58.0718C78.4505 66.218 75.9801 68.6884 67.8543 68.6884ZM45.1509 37.6143C38.7401 37.6143 37.6172 38.7372 37.6172 45.148V58.0718C37.6172 64.4826 38.7401 65.6055 45.1509 65.6055H67.8339C74.2447 65.6055 75.3676 64.4826 75.3676 58.0718V45.148C75.3676 38.7372 74.2447 37.6143 67.8339 37.6143H45.1509V37.6143Z" fill="#2A94E2"/>
<path d="M56.5 78.4476C55.6629 78.4476 54.9688 77.7535 54.9688 76.9164V67.1572C54.9688 66.3201 55.6629 65.626 56.5 65.626C57.3371 65.626 58.0313 66.3201 58.0313 67.1572V76.9164C58.0313 77.7535 57.3371 78.4476 56.5 78.4476Z" fill="#2A94E2"/>
<path d="M76.9193 60.0732H36.0859C35.2489 60.0732 34.5547 59.3791 34.5547 58.542C34.5547 57.7049 35.2489 57.0107 36.0859 57.0107H76.9193C77.7564 57.0107 78.4505 57.7049 78.4505 58.542C78.4505 59.3791 77.7564 60.0732 76.9193 60.0732Z" fill="#2A94E2"/>
<path d="M65.6875 78.4482H47.3125C46.4754 78.4482 45.7812 77.7541 45.7812 76.917C45.7812 76.0799 46.4754 75.3857 47.3125 75.3857H65.6875C66.5246 75.3857 67.2188 76.0799 67.2188 76.917C67.2188 77.7541 66.5246 78.4482 65.6875 78.4482Z" fill="#2A94E2"/>
<circle cx="56.5" cy="56.5" r="54" stroke="#2A94E2" stroke-width="5" stroke-dasharray="4 12"/>
</svg>
